STARTFONT 2.1
FONT -CBS-Song-Medium-R-Normal-Fantizi-40-400-75-75-C-400-CNS11643.1992-3
SIZE 40 80 80
FONTBOUNDINGBOX 40 40 0 -6
STARTPROPERTIES 23
FONTNAME_REGISTRY ""
FOUNDRY "CBS"
FAMILY_NAME "Song"
WEIGHT_NAME "Medium"
SLANT "R"
SETWIDTH_NAME "Normal"
ADD_STYLE_NAME "Fantizi"
PIXEL_SIZE 40
POINT_SIZE 400
RESOLUTION_X 75
RESOLUTION_Y 75
SPACING "C"
AVERAGE_WIDTH 400
CHARSET_REGISTRY "CNS11643.1992"
CHARSET_ENCODING "3"
COPYRIGHT "March 1994 by Central Bureau of Standards, Ministry of Economy, ROC"
WEIGHT 19329
RESOLUTION 110
X_HEIGHT 34
QUAD_WIDTH 40
DEFAULT_CHAR 32382
FONT_ASCENT 34
FONT_DESCENT 6
ENDPROPERTIES
CHARS 6149
STARTCHAR 2121
ENCODING 8481
SWIDTH 903 0
DWIDTH 40 0
BBX 40 40 0 -6
BITMAP
0000300000
00003e0000
00003c0000
0000380000
0000380000
0000380000
0000380000
0000380000
0000380000
0000380000
0000380000
0000380000
0000380000
0000380000
0000380000
0000380000
0000380000
0000380000
0000380000
0000380000
0000380000
0000380000
0000380000
0000380000
0000380000
0000380000
0000380000
0000380000
0000380000
0000380000
0000380000
0000380000
0000380000
0000380000
0000380000
0000380000
0000380000
0000380000
0000380000
0000300000
ENDCHAR
STARTCHAR 2122
ENCODING 8482
SWIDTH 903 0
DWIDTH 40 0
BBX 40 40 0 -6
BITMAP
0000000000
0000000000
0000000000
0000000000
0000000000
0000000000
0000000000
0000000000
0000000000
0000000000
0000000000
0000000000
0000000000
0018000000
000e000000
0007800000
0003c00000
0001f00000
0000f80000
00007e0000
00003f0000
00001f8000
00000fc000
000007e000
000007e000
000003e000
000003e000
000001c000
0000000000
0000000000
0000000000
0000000000
0000000000
0000000000
0000000000
0000000000
0000000000
0000000000
0000000000
0000000000
ENDCHAR
STARTCHAR 2123
ENCODING 8483
SWIDTH 903 0
DWIDTH 40 0
BBX 40 40 0 -6
BITMAP
00000c0000
00000f8000
00000f0000
00000e0000
00000e0000
00000e0000
00000e0000
00000e0000
00000e0000
00000e0000
00000e0000
00000e0000
00000e0000
00000e0000
00000e0000
00000e0000
00000e0000
00000e0000
00000e0000
00001e0000
00001c0000
00001c0000
00001c0000
00003c0000
0000380000
0000380000
0000380000
0000780000
0000700000
0000f00000
0000e00000
0001e00000
0003c00000
0007800000
000f000000
001e000000
003c000000
0078000000
00e0000000
0180000000
ENDCHAR
STARTCHAR 2124
ENCODING 8484
SWIDTH 903 0
DWIDTH 40 0
BBX 40 40 0 -6
BITMAP
0000180000
00001f0000
00001e0000
00001c0000
00001c0000
00001c0000
00001c0000
00001c0000
00001c0000
00001c0000
00001c0000
00001c0000
00001c0000
00001c0000
00001c0000
00001c0000
00001c0000
00001c0000
00001c0000
00001c0000
00001c0000
00001c0000
00001c0000
00001c0000
00001c0000
00001c0000
00001c0000
00001c0000
00001c0000
00001c0000
00001c0000
00001c0000
00001c0000
00001c0000
00001c0000
00003c0000
003ffc0000
0007f80000
0000f00000
0000e00000
ENDCHAR
STARTCHAR 2125
ENCODING 8485
SWIDTH 903 0
DWIDTH 40 0
BBX 40 40 0 -6
BITMAP
0000000000
0000000018
000000003c
7ffffffffe
0000380000
0000380000
0000380000
0000380000
0000380000
0000380000
0000380000
0000380000
0000380000
0000380000
0000380000
0000380000
0000380000
0000380000
0000380000
0000380000
0000380000
0000380000
0000380000
0000380000
0000380000
0000380000
0000380000
0000380000
0000380000
0000380000
0000380000
0000380000
0000380000
0000380000
0000380000
0000380000
0000380000
0000380000
0000380000
0000300000
ENDCHAR
STARTCHAR 2126
ENCODING 8486
SWIDTH 903 0
DWIDTH 40 0
BBX 40 40 0 -6
BITMAP
0000000000
0000300000
00003e0000
00003c0000
0000380000
0000380000
0000380000
0000380000
0000380000
0000380000
0000380000
0000380000
0000380000
0000380000
0000380000
0000380000
0000380000
0000380000
0000380000
0000380000
0000380000
0000380000
0000380000
0000380000
0000380000
0000380000
0000380000
0000380000
0000380000
0000380000
0000380000
0000380000
0000380000
0000380000
0000380000
0000380000
000038000c
000038001e
ffffffffff
0000000000
ENDCHAR
STARTCHAR 2127
ENCODING 8487
SWIDTH 903 0
DWIDTH 40 0
BBX 40 40 0 -6
BITMAP
0000000000
3000000030
3800000078
3ffffffffc
380000003c
3800000038
3800000038
3800000038
3800000038
3800000038
3800000038
3800000038
3800000038
3800000038
3800000038
3800000038
3800000038
3800000038
3800000038
3800000038
3800000038
3800000038
3800000038
3800000038
3800000038
3800000038
3800000038
3800000038
3800000038
3800000038
3800000038
3800000038
3800000038
3800000038
3800000038
3800000038
3800000ff8
38000001f8
3800000070
3000000060
ENDCHAR
STARTCHAR 2128
ENCODING 8488
SWIDTH 903 0
DWIDTH 40 0
BBX 40 40 0 -6
BITMAP
0000000000
0000000000
0000000000
0000000000
0000000000
0000000000
0000000000
0000000000
0000000000
0000000000
0000000000
0000000000
1000000000
100000000c
300000001e
3fffffffff
300000001f
700000001c
7000000038
e000000030
e000000060
c000000000
0000000000
0000000000
0000000000
0000000000
0000000000
0000000000
0000000000
0000000000
0000000000
0000000000
0000000000
0000000000
0000000000
0000000000
0000000000
0000000000
0000000000
0000000000
ENDCHAR
STARTCHAR 2129
ENCODING 8489
SWIDTH 903 0
DWIDTH 40 0
BBX 40 40 0 -6
BITMAP
0000000000
0000000000
000000000c
000000001e
ffffffffff
1c00000000
1c00000000
1c00000000
1c00000000
1c00000000
1c00000000
1c00000000
1c00000000
1c00000000
1c00000000
1c00000000
1c00000000
1c00000000
1c00000000
1c00000000
1c00000000
1c00000000
1c00000000
1c00000000
1c00000000
1c00000000
1c00000000
1c00000000
1c00000000
1c00000000
1c00000000
1c00000000
1c00000000
1e00000000
1ffffffffe
0fffffffff
03ffffffff
0000000000
0000000000
0000000000
ENDCHAR
STARTCHAR 212a
ENCODING 8490
SWIDTH 903 0
DWIDTH 40 0
BBX 40 40 0 -6
BITMAP
0030000c00
0038001e00
003fffff00
0038000f00
0038000e00
0038000e00
0038000e00
0038000e00
0038000e00
0038000e00
0038000e00
0038000e00
0038000e00
0038000e00
0038000e00
0038000e00
0038000e00
0038000e00
0038000e00
0038000e00
0038000e00
0038000e00
0038000e00
0038000e00
0038000e00
0038001e00
00380ffe00
003801fc00
0038003800
0038003000
0038000000
0038000000
0038000000
0038000000
0038000000
0038000000
0038000000
0038000000
0038000000
0030000000
ENDCHAR
STARTCHAR 212b
ENCODING 8491
SWIDTH 903 0
DWIDTH 40 0
BBX 40 40 0 -6
BITMAP
0000000000
0000000000
0000000000
0000000000
0000000000
0000000000
0000180000
00001f8000
00001f0000
00001e0000
00003c0000
00003c0000
0000780000
0000780000
0000f00000
0000e00000
0001e00000
0001c00000
0003c00000
0007800000
0007001800
000f000c00
001e000e00
001c000700
0038000780
0070000380
00e00001c0
01c00001e0
038007fff0
0701fff0f0
1ffffc00f8
1fff000078
07f0000078
03c0000030
00c0000000
0000000000
0000000000
0000000000
0000000000
0000000000
ENDCHAR
STARTCHAR 212c
ENCODING 8492
SWIDTH 903 0
DWIDTH 40 0
BBX 40 40 0 -6
BITMAP
0000300000
00003e0000
00003c0000
0000780000
00007c0000
0000f40000
0000e60000
0001e30000
0003c38000
000781c000
000f00e000
001e007000
003c303c00
00783e1f00
00f03c0fc0
01e03807ff
03c03801ff
07003800f8
1e00380038
3800380000
e000380000
0000380000
0000380000
0000380000
0000380000
0000380000
0000380000
0000380000
0000380000
0000380000
0000380000
0000380000
0000380000
0000380000
0000380000
0000380000
0000380000
0000380000
0000380000
0000300000
ENDCHAR
STARTCHAR 212d
ENCODING 8493
SWIDTH 903 0
DWIDTH 40 0
BBX 40 40 0 -6
BITMAP
0180000000
01f0000000
01e0000000
01c0000000
01c0000000
0380000000
0380000030
0380000078
07fffffffc
07000e0000
06000e0000
0e000e0000
0c000e0000
1c000e0000
18000e0000
30000e0000
60000e0000
00000e0000
00000e0000
00000e0000
00000e0000
00000e0000
00000e0000
00000e0000
00000e0000
00000e0000
00000e0000
00000e0000
00000e0000
00000e0000
00000e0000
00000e0000
00000e0000
00000e0000
00000e0000
00001e0000
0007fe0000
0000fc0000
0000380000
0000300000
ENDCHAR
STARTCHAR 212e
ENCODING 8494
SWIDTH 903 0
DWIDTH 40 0
BBX 40 40 0 -6
BITMAP
0000000000
0001800c00
0000e00f80
0000700f00
0000380e00
00203c0e00
00301c0e00
00301c1e00
00380c1c00
0018001c00
0018003c00
0018003800
001c003800
000c007800
000e007000
0006007000
000700f000
000300e000
000381e000
000181c000
0001c3c000
0000e78000
0000670000
00007f0000
00003e0000
00003c0000
00007e0000
0000ff0000
0001e78000
0003c3c000
000781e000
000f00f800
001e007e00
003c003f80
0078000ff0
00f00007ff
01e00001ff
078000007c
1e0000001c
7000000000
ENDCHAR
STARTCHAR 212f
ENCODING 8495
SWIDTH 903 0
DWIDTH 40 0
BBX 40 40 0 -6
BITMAP
0000600000
00007c0000
0000780000
0000700000
0000f00000
0000e00000
0001c00000
0003800000
0063003000
0076007800
007ffffc00
0070003c00
0070003800
0070003800
0070003800
0070003800
0070003800
0070003800
0070003800
0070003800
0070003800
0070003800
0070003800
0070003800
00e0003800
00e0003800
00e0003800
00e0003800
00e0003800
01c0003801
01c0003801
01c0003803
0380003803
0380003806
0700003806
0600003c0e
0c00003fff
1800001fff
30000007fe
6000000000
ENDCHAR
STARTCHAR 2130
ENCODING 8496
SWIDTH 903 0
DWIDTH 40 0
BBX 40 40 0 -6
BITMAP
0000060000
000007c000
0000078000
0000070000
00c0070000
00f8070000
00f0070000
00e0070000
00e0070000
00e0070000
01c0070000
01c00f0000
01c00e0000
03800e0000
03800e0000
03801e0000
07001e0000
07001f0000
0ffffd0000
0600398000
0000398000
000071c000
000070c000
0000e0e000
0000e06000
0001c07000
0001c03800
0003803800
0003801c00
0007000e00
0007000e00
000e000700
001c000780
00380003c0
00700001f0
00e00000ff
01c000007f
078000003c
1e0000000c
7800000000
ENDCHAR
STARTCHAR 2131
ENCODING 8497
SWIDTH 903 0
DWIDTH 40 0
BBX 40 40 0 -6
BITMAP
0000000000
0000000000
0000000180
00000003c0
0fffffffe0
0000000000
0000000000
0000000000
0000000000
0000000000
0000000000
0000000018
000000003c
3ffffffffe
001c000000
001c000000
001c000000
0038000000
0038000000
0038000000
0070000300
0070000780
00ffffffc0
00600003c0
0000000380
0000000380
0000000380
0000000380
0000000380
0000000380
0000000780
0000000700
0000000700
0000000f00
0000000e00
0000003e00
00007ffc00
000007f800
000000f000
000000e000
ENDCHAR
STARTCHAR 2132
ENCODING 8498
SWIDTH 903 0
DWIDTH 40 0
BBX 40 40 0 -6
BITMAP
0000000000
0000300000
00003e0000
00003c0000
0000380000
0000380000
00007c0000
00007c0000
0000f60000
0000e60000
0001e30000
0001c30000
0003c18000
000381c000
000780c000
000700e000
000f006000
000e007000
001e003800
003c003c00
0038001e00
0078000f00
00f0000780
01e00007e0
03c00003ff
07800001ff
0f00000078
1c00000038
3800000000
6000000000
c000000000
0000000000
0000000000
0000000018
000000003c
7ffffffffe
0000000000
0000000000
0000000000
0000000000
ENDCHAR
STARTCHAR 2133
ENCODING 8499
SWIDTH 903 0
DWIDTH 40 0
BBX 40 40 0 -6
BITMAP
00000c0000
00000f8000
00000f0000
00000e0000
30000e0000
3e000e0000
3c000e0000
38000e0000
38000e0000
38000e0000
38000e0000
38000e0000
38000f0000
38001f0000
38001d0000
38001d8000
38001d8000
38003dc000
380038c000
380038e000
380078e000
3800707000
3800707000
3800e03800
3800e03c00
3801c01e00
3803c00f00
3803800780
38070003e0
380e0001fe
381c0000fe
3838000070
38f0000030
39c0000000
3800000000
3c00000000
3ffffffffe
1fffffffff
07ffffffff
0000000000
ENDCHAR
STARTCHAR 2134
ENCODING 8500
SWIDTH 903 0
DWIDTH 40 0
BBX 40 40 0 -6
BITMAP
0000000000
0000e00000
0000780000
0000380000
30001c0000
3e001c0000
3c001c0000
38001c0000
38000e0000
38000e0000
38001e0000
38001e0000
38001e0000
38001e0000
38003b0000
38003b0000
38003b0000
38007b8000
3800718000
380071c000
3800e0e000
3800e0e000
3801c07000
3801c07000
3803803800
3803801c00
3807001e00
380e000f00
380e0007c0
381c0003fc
38380001fc
38700000f0
38e0000030
3980000000
3800000000
3c00000000
3ffffffffe
1fffffffff
07ffffffff
0000000000
ENDCHAR
STARTCHAR 2135
ENCODING 8501
SWIDTH 903 0
DWIDTH 40 0
BBX 40 40 0 -6
BITMAP
0000600000
00007c0000
0000780000
0000700000
0000700000
0000700000
0000700000
0000700000
0000700000
0060703000
0070707800
007ffffc00
0070003c00
0070003800
0070003800
0070003800
0070003800
0070003800
0070003800
0070003800
0070003800
0070003800
0070003800
0070003800
0070003800
00e0003800
00e0003800
00e0003800
00e0003800
01c0003801
01c0003801
01c0003803
0380003803
0380003806
0700003806
0600003c0e
0c00003fff
1800001fff
30000007fe
6000000000
ENDCHAR
STARTCHAR 2136
ENCODING 8502
SWIDTH 903 0
DWIDTH 40 0
BBX 40 40 0 -6
BITMAP
0000000000
0000000600
0000000f00
0fffffff80
0000e00780
0000e00700
0000e00700
0000e00700
0000e00700
0000e00700
0000e00700
0000e00700
0600e00700
0300e00700
01c0e00700
00e1e00700
0071c00700
0039c00700
001dc00700
000fc00700
0007c00700
0003800700
0003c00f00
0003e00e00
0007700e00
00073c0e00
00071e0e00
000e0f8e00
000e03ee00
001c01fe00
001c007e00
0038001f00
0070000fe0
00e0001fff
01c0001dff
0380003c78
07003ff818
0e0003f000
380000e000
600000c000
ENDCHAR
STARTCHAR 2137
ENCODING 8503
SWIDTH 903 0
DWIDTH 40 0
BBX 40 40 0 -6
BITMAP
00c000c000
00f800f800
00f000f000
00e000e000
00e000e000
00e000e000
00e000e000
00e000e000
00e000e000
00e000e000
00e060e000
00e0f0e000
3ffff8e000
00e078e000
00e070e000
00e070e000
00e070e000
00e070e000
00e070e000
00e070e000
00e070e000
00e070e000
01c070e000
01c070e000
01c070e000
01c070e000
038070e000
038070e000
038070e001
070070e001
070070e003
0e00f0e003
0e00e0e006
1c01e0e006
1803c0e00e
31ff80f01f
603f00ffff
c00e007ffe
800c003ff8
0000000000
ENDCHAR
STARTCHAR 2138
ENCODING 8504
SWIDTH 903 0
DWIDTH 40 0
BBX 40 40 0 -6
BITMAP
0018006000
001f007c00
001e007800
001c007000
001c007000
001c007000
001c007000
001c007000
001c007000
001c007000
001c007000
001c007000
001c007000
001c007000
001c007000
001c00700c
001c00701e
ffffffffff
001c007000
001c007000
001c007000
001c007000
001c007000
001c007000
001c007000
001c007000
001c007000
001c007000
001c007000
001c007000
001c007000
001c007000
001c007000
001c007000
001c007000
001c007000
001c007000
001c007000
001c007000
0018006000
ENDCHAR
STARTCHAR 2139
ENCODING 8505
SWIDTH 903 0
DWIDTH 40 0
BBX 40 40 0 -6
BITMAP
0003000000
0003e00000
0003c00000
0003800000
0007800000
0007000000
0007000000
000f000000
000e000000
000e001800
001c003c00
001ffffe00
0038003e00
0038003800
007c003800
006c007000
00e6007000
00c6007000
01c300e000
038380e000
0301c1c000
0600c1c000
0c00e38000
0000638000
0000370000
00003e0000
00001e0000
00003e0000
00003f0000
00007f8000
0000f3c000
0001e1f000
000380fc00
000f007f00
001e001fe0
0078000fff
01e00003ff
07800000f8
1e00000038
7800000000
ENDCHAR
STARTCHAR 213a
ENCODING 8506
SWIDTH 903 0
DWIDTH 40 0
BBX 40 40 0 -6
BITMAP
0003000000
0003e00000
0003c00000
0003800000
0007800000
0007000000
0007000000
000f000000
000e000000
000e001800
0c1c003c00
061ffffe00
031c003e00
03b8003800
01f8003800
00f0007000
0070007000
00f0007000
00f800e000
01dc00e000
038e01c000
030701c000
0603838000
0c01c38000
1800e70000
0000770000
00003e0000
00003e0000
00003f0000
00007f8000
0000f3c000
0001e1f000
000380fc00
000f007f00
001e001fe0
0078000fff
01e00003ff
07800000f8
1e00000038
7800000000
ENDCHAR
STARTCHAR 213b
ENCODING 8507
SWIDTH 903 0
DWIDTH 40 0
BBX 40 40 0 -6
BITMAP
0000000000
0000000000
0000000000
0000000000
0000000000
0000000000
0000000000
0000000000
0000000000
0000000000
0000c00000
0000700000
0000380000
08001c0000
08001c000c
18000c001e
1fffffffff
380000001f
700000001c
f000000018
e000000030
c000000020
0000000000
0000000000
0000000000
0000000000
0000000000
0000000000
0000000000
0000000000
0000000000
0000000000
0000000000
0000000000
0000000000
0000000000
0000000000
0000000000
0000000000
0000000000
ENDCHAR
STARTCHAR 213c
ENCODING 8508
SWIDTH 903 0
DWIDTH 40 0
BBX 40 40 0 -6
BITMAP
0000000000
0000000000
0000000000
0000000000
0000000000
0000000000
0000000000
0060060060
007c07c07c
0078078078
00700f00f0
00f00e00e0
00e00e00e0
01c01c01c0
01c01c01c0
0380380380
0380380380
0700700700
0e00e00e00
1c01c01c00
3803803800
1c01c01c00
0f00f00f00
0780780780
03c03c03c0
01e01e01e0
00f00f00f0
00f00f00f0
0078078078
0078078078
0038038038
0018018018
0000000000
0000000000
0000000000
0000000000
0000000000
0000000000
0000000000
0000000000
ENDCHAR
STARTCHAR 213d
ENCODING 8509
SWIDTH 903 0
DWIDTH 40 0
BBX 40 40 0 -6
BITMAP
0000000000
0000c00000
0000f80000
0000f00000
0001e00000
0001c00000
0001c00000
0003800000
0003800000
0007000000
0007000000
000e000000
000e018000
001c01f000
003801e000
007003c000
00e0038000
00f0078000
0038070000
001e0f0000
00078e0000
0003de0000
0000fc0000
0000780000
0000f00000
0001e00000
0003c0c000
0007806000
000f003800
001c001c00
0078000e00
00e0000700
01c007ff80
07ffffc3c0
07fffc03c0
03ff0001c0
01c00001c0
00c00000c0
0000000000
0000000000
ENDCHAR
STARTCHAR 213e
ENCODING 8510
SWIDTH 903 0
DWIDTH 40 0
BBX 40 40 0 -6
BITMAP
0000300000
00001c0000
00000e0000
0c000e000c
0e0006001e
0fffffffff
0e00000000
0e00000000
0e00000000
0e00000000
0e00000000
0e00000000
0e00000000
0e00000000
0e00000000
0e00000000
0e00000000
0e00000000
0e00000000
0e00000000
0e00000000
0e00000000
0e00000000
0e00000000
0e00000000
0e00000000
0e00000000
1c00000000
1c00000000
1c00000000
1c00000000
1800000000
3800000000
3800000000
3000000000
7000000000
6000000000
c000000000
8000000000
0000000000
ENDCHAR
STARTCHAR 213f
ENCODING 8511
SWIDTH 903 0
DWIDTH 40 0
BBX 40 40 0 -6
BITMAP
0000000000
0000000000
0060000000
00f0000000
3ff8000000
0078000000
0070000000
0070000000
00e0000000
00e0000000
01c0000000
01c0000000
0380000000
0380000000
0718000000
073c000000
0ffe000000
061e000000
001c000000
001c000000
101c000000
101c000000
1838000000
0838000000
0c38000000
0c70000000
0670000000
0770000000
03e0000000
03e0000000
01c0000000
01e0000000
03f0000000
03bc000000
071f80000f
0e0ffffffe
1c03fffff8
3800ffffe0
6000000000
0000000000
ENDCHAR
STARTCHAR 2140
ENCODING 8512
SWIDTH 903 0
DWIDTH 40 0
BBX 40 40 0 -6
BITMAP
0000000000
0000000000
0000000600
0000000f00
3fffffff80
0000000780
0000000700
0000000700
0000000700
0000000700
0000000700
0000000700
0000000700
0000000700
0000000700
0000000700
0000000700
0000000700
0000000700
03ffffff00
0000000700
0000000700
0000000700
0000000700
0000000700
0000000700
0000000700
0000000700
0000000700
0000000700
0000000700
0000000700
0000000700
0000000700
000000070c
000000071e
ffffffffff
0000000000
0000000000
0000000000
ENDCHAR
STARTCHAR 2141
ENCODING 8513
SWIDTH 903 0
DWIDTH 40 0
BBX 40 40 0 -6
BITMAP
0000000000
0006000000
0007c00000
0007800000
0007000000
0007000000
0007000000
0007000000
0007000000
000e000000
000e000c00
000e001e00
000fffff00
000e000f00
001e000e00
001c000e00
001c000e00
001c000e00
001c000e00
003c000e00
0038001c00
0038001c00
0038001c00
0038001c00
0070001c00
0070001c00
00fffffc00
0060003800
0000003800
0000003800
0000003800
0000003800
0000007000
0000007000
0000007000
0000007000
000000e00c
000000e01e
ffffffffff
0000000000
ENDCHAR
STARTCHAR 2142
ENCODING 8514
SWIDTH 903 0
DWIDTH 40 0
BBX 40 40 0 -6
BITMAP
0000000000
0000006000
0000007c00
000000f800
000001e000
000003c000
00000f0000
00003c0000
0000f00000
0003c00000
000f000000
0038000000
00e0000000
0000003000
0000003e00
0000007c00
000000f000
000001e000
000003c000
00000f0000
00001c0000
0000780000
0001e00000
0007800000
001e000000
00f0000c00
0000000f80
0000001f00
0000003c00
0000007800
000000f000
000001e000
0000078000
00000f0000
00003c0000
0000f00000
0003c00000
000f000000
003c000000
01e0000000
ENDCHAR
STARTCHAR 2143
ENCODING 8515
SWIDTH 903 0
DWIDTH 40 0
BBX 40 40 0 -6
BITMAP
0000000000
0003006000
000380f000
0003fff800
000380f800
000380e000
000380e000
000381c000
0003818000
0003818000
0003830000
0003830000
0003860000
0003860000
0003830000
0003818000
000380c000
0003806000
0003807000
0003803000
0003803800
0003803800
0003801c00
0003801c00
0003801c00
0003801c00
0003801c00
0003803c00
0003803800
0003807800
0003fff000
00038fe000
000381c000
0003818000
0003800000
0003800000
0003800000
0003800000
0003800000
0003000000
ENDCHAR
STARTCHAR 2144
ENCODING 8516
SWIDTH 903 0
DWIDTH 40 0
BBX 40 40 0 -6
BITMAP
0000030000
000003e000
000003cc00
0000038700
0000038380
0000038380
0000038180
0000038018
000003803c
7ffffffffe
0000038000
0000038000
0000038000
0000038000
0040038000
0040038000
0040070000
0060070000
0020070000
0030070000
00180e0000
00180e0000
000c0e0000
000e1c0000
00071c0000
0007b80000
0003f80000
0001f00000
0000f00000
0000f80000
0001fe0000
0003cf0000
000787c000
000f03f000
001e00fe00
0078007fe0
01f0001fff
07c00007ff
1f000001f8
7800000078
ENDCHAR
STARTCHAR 2145
ENCODING 8517
SWIDTH 903 0
DWIDTH 40 0
BBX 40 40 0 -6
BITMAP
0000060000
00c007c000
00f8078000
00f0070000
01e0070000
01c0070000
01c0070000
0380070000
0380070000
0700070000
0600070000
0e00070000
0c06070000
1c07c70000
380f870000
3c0f070000
1e1e070000
071c070000
03bc070000
01f8070000
00f8070000
0070070000
0070070000
00e0070000
00e0070000
01c0070000
0380070000
038c070000
0706070002
0e03070002
0e03870006
1c1fc70006
38f9c7000c
7fc0e7000c
7f00e7001c
3c0067803e
1c0067fffe
000003fffc
000001fff0
0000000000
ENDCHAR
STARTCHAR 2146
ENCODING 8518
SWIDTH 903 0
DWIDTH 40 0
BBX 40 40 0 -6
BITMAP
0000060000
00c007c000
00f8078000
00f0070000
00e0070000
00e0070000
00e0070000
00e0070000
00e0070000
30e3070000
3ce3c70000
38e3870000
38e3870000
38e3870000
38e3870000
38e3870000
38e3870000
38e3870000
38e3870000
38e3870000
38e3870000
38e3870000
38e3870000
38e3870000
38e3870000
38e3870000
38e3870000
38e3870000
38e3870002
38e3870002
38e3870006
7fff870006
300387000c
000307000c
000007001c
000007803e
000007fffe
000003fffc
000001fff0
0000000000
ENDCHAR
STARTCHAR 2147
ENCODING 8519
SWIDTH 903 0
DWIDTH 40 0
BBX 40 40 0 -6
BITMAP
0003000000
0001c00000
0000e00000
0000700000
0000780000
0000380000
0000380000
000018000c
000000001e
ffffffffff
0038003800
0038003800
0038003800
0038003800
0038003800
0038003800
0038003800
0038003800
0038003800
0038003800
0038003800
0038003800
0038003800
0038003800
0038003800
0038003800
0038003800
0070003800
0070003800
0070003800
00e0003800
00e0003800
01c0003800
01c0003800
0380003800
0700003800
0e00003800
1c00003800
3000003800
6000003000
ENDCHAR
STARTCHAR 2148
ENCODING 8520
SWIDTH 903 0
DWIDTH 40 0
BBX 40 40 0 -6
BITMAP
0000300000
00003e0000
00003c0000
0000380000
0000380000
0000380000
0000380000
0000380000
3000380030
3800380078
3ffffffffc
380038003c
3800380038
3800380038
3800380038
3800780038
3800780038
38007c0038
3800760038
3800e70038
3800e38038
3801c1c038
3801c1e038
380380f038
3803807838
3807003c38
380e001e38
381c001e38
3838000f38
3870000738
38c0000338
3980000038
3800000038
3800000038
3800000038
3800000078
3800003ff8
38000007f8
38000000f0
30000000e0
ENDCHAR
STARTCHAR 2149
ENCODING 8521
SWIDTH 903 0
DWIDTH 40 0
BBX 40 40 0 -6
BITMAP
0030000000
003e000000
003c000000
00780000c0
00700001e0
0071fffff0
00e02000f0
00e02000e0
01c02000e0
01c02000e0
03c03001e0
03c03001c0
07c03001c0
07c01803c0
0fc0180380
0fc0180380
1dc00c0780
39c00c0700
31c00c0700
61c0060f00
c1c0060e00
01c0031e00
01c0039c00
01c003bc00
01c001f800
01c001f800
01c000f000
01c001f000
01c001f000
01c003f800
01c007bc00
01c00f1e00
01c01e0f00
01c03c07c0
01c07803f0
01c0f001ff
01c1c000ff
01c7800078
01ce000018
01b8000000
ENDCHAR
STARTCHAR 214a
ENCODING 8522
SWIDTH 903 0
DWIDTH 40 0
BBX 40 40 0 -6
BITMAP
0030000000
003c000000
003c000000
007800c000
007000f800
007000f000
00e000e000
00e000e000
01c000e000
01c000e000
038001e000
038001c000
078001c000
078001c000
0f8003c000
0f80038000
1f80038000
3b80038000
3380078000
6380070000
c380070000
0380070000
03800e0c00
03800e0600
03800e0300
03800e0380
03801c01c0
03801c01c0
03803c00e0
03803800f0
0380780078
0380700038
0380f03ffc
0383fffe1e
0383ffc01e
0381fc000e
0380e0000e
0380600006
0380000000
0300000000
ENDCHAR
STARTCHAR 214b
ENCODING 8523
SWIDTH 903 0
DWIDTH 40 0
BBX 40 40 0 -6
BITMAP
0030006000
003e007c00
003c007800
0038007000
0038007000
0038007000
0038007000
0038007000
0038007000
0038007000
0038007000
0038007000
0038007000
0038007800
0038007800
0038007800
007000f800
007800ec00
007c00ec00
007600ec00
007600ee00
007700e600
00e300c600
00e381c700
00e381c300
01c181c300
01c1c38380
01c1c38380
0380e381c0
0380e701c0
0380e700e0
07006600e0
06006e0070
0e000c0078
0c001c003c
180018003f
300030001f
600060001c
c000c0000c
0001800000
ENDCHAR
STARTCHAR 214c
ENCODING 8524
SWIDTH 903 0
DWIDTH 40 0
BBX 40 40 0 -6
BITMAP
0000600000
00007c0000
0000780000
0000700000
0000700000
0000780000
0000f80000
0000e80000
0000ec0000
0001c60000
0001c70000
0003838000
000381c000
000700e000
000e007000
001c003c00
0038001f00
0070600fe0
00e07c07fe
03c07801fe
0f007000f0
3c00700030
f000780000
0000f80000
0000e80000
0000ec0000
0001c60000
0001c70000
0003838000
000381c000
000700e000
000e007000
001c003c00
0038001f00
0070000fe0
00e00007fe
01c00001fe
07000000f0
1e00000030
7000000000
ENDCHAR
STARTCHAR 214d
ENCODING 8525
SWIDTH 903 0
DWIDTH 40 0
BBX 40 40 0 -6
BITMAP
0000000000
0180000600
01c0000f00
01ffffff80
01c0000780
01c0000700
01c0000700
01c0000700
01c0000700
01c0000700
01c0000700
01c000070c
01c000071e
ffffffffff
01c0000700
01c0000700
01c0000700
01c0000700
01c0000700
01c0000700
01c0000700
01c0000700
01c000070c
01c000071e
ffffffffff
01c0000700
01c0000700
01c0000700
01c0000700
01c0000700
01c0000700
01c0000700
01c0000700
01c0000700
01c0000700
01c0000f00
01c003ff00
01c0007e00
01c0001c00
0180001800
ENDCHAR
STARTCHAR 214e
ENCODING 8526
SWIDTH 903 0
DWIDTH 40 0
BBX 40 40 0 -6
BITMAP
0000000000
00000000c0
03000001e0
03fffffff0
03801c00f0
03801c00e0
03801c00e0
03801c00e0
03801c00e0
03801c00e0
03801c00e0
03801c00e0
03801c00e0
03801c00e0
03801c00e0
03801c00e0
03801c00e0
03801c00e0
03801c00e0
03ffffffe0
03800000e0
03800000e0
03800000e0
03800000e0
03800000e0
03800000e0
03800000e0
03800000e0
03800000e0
03800000e0
03800000e0
03800000e0
03800000e0
03800000e0
03800000e0
03800001e0
038000ffe0
0380001fc0
0380000780
0300000700
ENDCHAR
STARTCHAR 214f
ENCODING 8527
SWIDTH 903 0
DWIDTH 40 0
BBX 40 40 0 -6
BITMAP
0000000000
0800000000
080000000c
180000001e
1fffffffff
380000001f
700000001c
f000000018
e000000030
c018006020
001f007c00
001e007800
001c007000
001c007000
001c007000
001c007000
001c007000
001c007000
001c007000
001c007000
001c007000
001c007000
001c007000
001c007000
001c007000
0038007000
0038007000
0038007000
0038007000
0070007000
0070007001
00e0007001
00e0007003
01c0007003
0380007006
070000780e
0e00007fff
1c00003fff
3800001ffe
6000000000
ENDCHAR
STARTCHAR 2150
ENCODING 8528
SWIDTH 903 0
DWIDTH 40 0
BBX 40 40 0 -6
BITMAP
0000000000
0000000000
0000000000
300000000c
1c0000001e
0e03ffffff
0700003800
0780003800
0380003800
0180003800
0010003800
0010003800
0030003800
0020003800
0060003800
0060003800
00c0003800
00c0003800
01c0003800
0180003800
0180003800
0380003800
0300003800
0700003800
0700003800
0e00003800
7e00003800
3e00003800
1c00003800
1c00003800
0e00003800
0e00003800
0e00003800
0f00003800
0f00003800
0f00007800
0f001ff800
060003f000
000000e000
000000c000
ENDCHAR
STARTCHAR 2151
ENCODING 8529
SWIDTH 903 0
DWIDTH 40 0
BBX 40 40 0 -6
BITMAP
0000000000
0000000600
0c00000f00
0fffffff80
0e00000780
0e00000700
0e00000700
0e00030700
0e00078700
0e3fffc700
0e0803c700
0e08038700
0e08038700
0e0c070700
0e0c070700
0e060e0700
0e060e0700
0e060e0700
0e031c0700
0e031c0700
0e03b80700
0e01b80700
0e01f00700
0e01f00700
0e00e00700
0e01f00700
0e01f80780
0e03fc0381
0c079e0381
1c0f0f0381
1c1e07c3c3
1c3803f9c3
187001f9e3
38e000e0e6
31800060f6
730000007e
600000003f
c00000001f
8000000006
0000000000
ENDCHAR
STARTCHAR 2152
ENCODING 8530
SWIDTH 903 0
DWIDTH 40 0
BBX 40 40 0 -6
BITMAP
0000000000
0000000c00
0000001e00
7fffffff00
0001c00f00
0001c00e00
0001c00e00
0001c00e00
0001c00e00
0001c00e00
0001c00e00
0001c00e00
0001c00e00
0001c00e00
0001c00e00
0601c00e00
0381c00e00
01e1c00f80
00f3800ee0
007b800e70
003f800e38
001f800e1c
000f800e1e
0007000e0e
0007000e0e
0007000e06
000e000e00
000e000e00
001c000e00
001c000e00
0038001e00
0038001c00
0070003c00
00e0003c00
01c0007800
03803ff800
070007f000
0e0001e000
380001c000
6000000000
ENDCHAR
STARTCHAR 2153
ENCODING 8531
SWIDTH 903 0
DWIDTH 40 0
BBX 40 40 0 -6
BITMAP
0001800000
0001f00000
0001e00000
0001c00000
0001c00000
0001c00000
0001c00000
0001c00c00
0001c01e00
1fffffff00
0001c00f00
0001c00e00
0001c00e00
0001c00e00
0001c00e00
0001c00e00
0001c00e00
0001c00e00
0041c00e00
0041c00e00
00c3800f80
00c3800ee0
01c3800e70
01c3800e38
0383800e3c
0787000e1e
0707000e0e
0607000e06
000e000e00
000e000e00
001c000e00
001c001e00
0038001c00
0070003c00
00e0003c00
01c0007800
03803ff800
070007f000
1c0001e000
700001c000
ENDCHAR
STARTCHAR 2154
ENCODING 8532
SWIDTH 903 0
DWIDTH 40 0
BBX 40 40 0 -6
BITMAP
000000c000
000000f800
000000f000
000000e000
000000e000
000600e000
000f00e000
7fff80e000
000780e000
000700e000
000f00e018
300e00e03c
180e3ffffe
0c1c00e01e
061c00e01c
073800e01c
03b800e01c
01f000e01c
01f000e01c
00e000e01c
00f000e01c
01f001c01c
01f801c01c
039c01c01c
038e01c01c
070e01c01c
070703801c
0e0703801c
0e0383803c
1c03870038
1c01870038
38000e0038
30000e0078
60001c0070
c0003800f0
80007001f0
0000e07fe0
0001c00fc0
0007000380
001c000300
ENDCHAR
STARTCHAR 2155
ENCODING 8533
SWIDTH 903 0
DWIDTH 40 0
BBX 40 40 0 -6
BITMAP
00c0000000
00f8000000
00f0000000
00e0000000
01e0000000
01c0000030
01c0000078
03fffffffc
038000003c
0380000038
0700000038
0700c00038
0e00f80038
1c00f00038
1800e00038
3000e00038
6001e00038
4001c00038
0001c00038
0003e00038
0003e00038
0007300038
0007380038
000e1c0038
000e0e0038
001c070038
0038078038
007003e038
00e001fc38
01c000fc38
0380007038
0e00003038
3800000038
0000000078
0000000078
00000000f0
000000fff0
0000000fe0
00000003c0
0000000380
ENDCHAR
STARTCHAR 2156
ENCODING 8534
SWIDTH 903 0
DWIDTH 40 0
BBX 40 40 0 -6
BITMAP
00c0000000
00f8000000
00f0000000
00e0000000
01e0000000
01c0000030
01c0000078
03fffffffc
038000003c
0380000038
0700000038
0700000038
0e1e000038
0c07c00038
1c01f80038
18007e0038
30001f8038
2000078038
0000038038
0000000038
0000000038
0000000038
0000000038
0000001c38
000000f038
000007c038
00003f0038
0003f80038
003fc00038
07ff000038
07f8000078
03c0000070
01c0000070
00800000f0
00000000e0
00000003e0
000007ffc0
0000007f80
0000000f00
0000000e00
ENDCHAR
STARTCHAR 2157
ENCODING 8535
SWIDTH 903 0
DWIDTH 40 0
BBX 40 40 0 -6
BITMAP
0000000000
0000000030
0000000078
7ffffffffc
1c00000000
1c00000000
1c00001800
1c00001f00
1c00001e00
1c00001c00
1c30003c00
1c18003800
1c0e003800
1c07007800
1c03807000
1c01c0f000
1c00e0e000
1c0071e000
1c0039c000
1c001f8000
1c000f8000
1c000f0000
1c001f8000
1c001fc000
1c003de000
1c0078f000
1c00f07800
1c01e03c00
1c03c01e00
1c07000f00
1c0e000f80
1c1c000780
1c38000380
1c60000180
1c00000000
1e00000000
1ffffffffc
0ffffffffe
03fffffffe
0000000000
ENDCHAR
STARTCHAR 2158
ENCODING 8536
SWIDTH 903 0
DWIDTH 40 0
BBX 40 40 0 -6
BITMAP
030000c000
03e000f800
03c000f000
038000e000
038000e000
038000e000
038000e000
038000e000
038000e000
038000e018
038800e03c
039cfffffe
fffe00e01e
038000e01c
038000e01c
038000e01c
038000e01c
038000e01c
038000e01c
038001c01c
038001c01c
038001c01c
038001c01c
038001c01c
038003801c
038003801c
038003801c
038007001c
038007003c
03800e0038
03800e0038
03801c0038
03801c0078
0380380070
03807000f0
0380e001e0
0381c0ffc0
0383801f80
0387000700
031c000600
ENDCHAR
STARTCHAR 2159
ENCODING 8537
SWIDTH 903 0
DWIDTH 40 0
BBX 40 40 0 -6
BITMAP
000c000000
000f800000
000f000000
000e000000
000e006000
000e00f000
0ffffff800
000e007800
000e007000
000e007000
001c007002
001c007002
001c007006
0038007006
003800700c
007000781c
00e0007ffe
01c0003ffe
0380601ff8
07007c0000
1c00780000
7000700000
0000700000
0000700000
0000700018
000070003c
fffffffffe
0000700000
0000700000
0000700000
0000700000
0000700000
0000700000
0000700000
0000700000
0000700000
0000700000
0000700000
0000700000
0000600000
ENDCHAR
STARTCHAR 215a
ENCODING 8538
SWIDTH 903 0
DWIDTH 40 0
BBX 40 40 0 -6
BITMAP
0018006000
001f007c00
001e007800
001c007000
001c007000
001c007000
001c007000
001c007000
001c007000
001c007000
001c007000
001c007000
001c007000
001c00700c
001c00701e
fffc007fff
001c007000
001c007000
001c007000
001c007000
001c007000
001c007000
001c007000
001c007000
001c007000
001c007000
001c007000
001c007000
001c007000
001c007000
001c007000
001c007000
001c007000
001c007000
001c007000
001c007000
001c007000
001c007000
001c007000
0018006000
ENDCHAR
STARTCHAR 215b
ENCODING 8539
SWIDTH 903 0
DWIDTH 40 0
BBX 40 40 0 -6
BITMAP
0000000000
0c0000000c
0e0000001e
0fffffffff
0e00000000
0e00000000
0e000c0000
0e000f8000
0e000f0000
0e000e0000
0e000e0000
0e000e0000
0e000e0000
0e000e0000
0e000e0060
0e000e00f0
0e7ffffff8
0e000e0078
0e000e0070
0e000e0070
0e000e0070
0e001c0070
1c001c0070
1c001c0070
1c00380070
1c00380070
1c00380070
1800700070
38007000f0
3800e000e0
3800e000e0
3001c000e0
3001c001e0
70038001c0
60070003c0
600e000780
c01c03ff00
c038007e00
80e0001c00
0380001800
ENDCHAR
STARTCHAR 215c
ENCODING 8540
SWIDTH 903 0
DWIDTH 40 0
BBX 40 40 0 -6
BITMAP
0000000000
0000c00000
0000f80000
0000f00000
0000f00000
0000e00000
0000e00000
0001c00000
0001c00000
0001c0000c
0001c0001e
ffffffffff
0003800000
0003800000
0003800000
0007000000
0007000000
0007030000
000e03e000
000e03c000
001c078000
001c070000
00380f0000
00380e0000
00701c0000
00701c0000
00e0380c00
00e0380700
01c0700380
01c0e001c0
0380e000e0
0701c000f0
0e03800070
0c0700fff8
180e3ff038
301fff0038
601ff00038
c00f000018
0006000000
0000000000
ENDCHAR
STARTCHAR 215d
ENCODING 8541
SWIDTH 903 0
DWIDTH 40 0
BBX 40 40 0 -6
BITMAP
0000000000
0000600000
00007c0000
0000780000
0000f00000
0000f00000
0001e00000
0003c03000
0003801800
0007000e00
000e000700
001c000380
00380001c0
00700000e0
01c00fffe0
07ffffe0f0
07fff00070
03fe000070
01c0000030
0000000000
0000000000
0000600000
00007c0000
0000780000
0000f00000
0000f00000
0001e00000
0003c03000
0003801800
0007000e00
000e000700
001c000380
00380001c0
00700000e0
00e00fffe0
07ffffe0f0
07fff00070
03ff000070
01c0000030
0000000000
ENDCHAR
STARTCHAR 215e
ENCODING 8542
SWIDTH 903 0
DWIDTH 40 0
BBX 40 40 0 -6
BITMAP
0000000000
0000000000
0000000060
00000000f0
00031ffff8
0007840078
7fffc40070
0003c40070
00038400f0
00038600e0
00038600e0
30070600e0
18070300e0
0c070301e0
0e070301c0
070e0181c0
070e0181c0
038e0183c0
038e00c380
01dc00c380
01dc00e780
00f8006700
00f8006f00
0078007e00
007c003e00
00fc003c00
00fe003c00
01ee003e00
01ce007e00
01c700f700
038700f380
030381e3c0
070383c1e0
06018780f0
0c000f007c
1c001e003f
18003c001f
300078000e
6000e00006
0001800000
ENDCHAR
STARTCHAR 215f
ENCODING 8543
SWIDTH 903 0
DWIDTH 40 0
BBX 40 40 0 -6
BITMAP
0000000300
0000000780
03ffffffc0
0060000fc0
0030000f00
0018001e00
000c003c00
0007007800
000380f000
0001e1e000
0000f78000
00003f0000
00007fc000
0001f7f800
0003e1ff80
000f803ffe
003e000ffe
01f80001f8
0fc0000038
7e00000000
0000000300
0000000780
03ffffffc0
0060000fc0
0030000f00
0018001e00
000c003c00
0007007800
000380f000
0001e1e000
0000f78000
00003f0000
00007fc000
0001f7f800
0003e1ff80
000f803ffe
003e000ffe
01f80001f8
0fc0000038
7e00000000
ENDCHAR
STARTCHAR 2160
ENCODING 8544
SWIDTH 903 0
DWIDTH 40 0
BBX 40 40 0 -6
BITMAP
0018000000
001f000000
001e000030
001c000078
001c7ffffc
601c08003c
7c1c080038
781c080038
701c080038
701c0c0078
701c0c0070
701c0c0070
701c0c0070
701c0600f0
701c0600e0
701c0600e0
701c0600e0
701c0301e0
701c0301c0
701c0301c0
701c0183c0
701c018380
701c01c380
701c00c780
701c00e700
701c00ef00
fffc007e00
701c007e00
001c003c00
001c007c00
001c007e00
001c00ff00
001c01e780
001c03c3e0
001c0781f8
001c0f00ff
001c1e007f
001c380038
001cf00018
001bc00000
ENDCHAR
STARTCHAR 2161
ENCODING 8545
SWIDTH 903 0
DWIDTH 40 0
BBX 40 40 0 -6
BITMAP
0000180000
00001f0000
00001e0000
00001c0000
00001c0000
00001c0000
00001c0000
00001c0000
00001c0000
00001c0000
00001c0000
00001c0000
00001c0000
00001c0000
00001c00c0
00001c01e0
0ffffffff0
00001c0000
00001c0000
00001c0000
00001c0000
00001c0000
00001c1800
00001c0c00
00001c0e00
00001c0700
00001c0780
00001c0380
00001c03c0
00001c01c0
00001c0180
00001c0000
00001c0000
00001c0000
00001c000c
00001c001e
ffffffffff
0000000000
0000000000
0000000000
ENDCHAR
STARTCHAR 2162
ENCODING 8546
SWIDTH 903 0
DWIDTH 40 0
BBX 40 40 0 -6
BITMAP
0000300000
00003e0000
00003c0000
0000380000
0000380000
0000380000
1800380060
1f0038007c
1e00380078
1c00380070
1c00380070
1c00380070
1c00380070
1c00380070
1c00380070
1c00380070
1c00380070
1c00380070
1c00380070
1c00380070
1c00380070
1c00380070
3ffffffff0
1800380060
0000380000
0000380000
0000380000
0000380000
0000380000
0000380000
0000380000
0000380000
0000380000
0000380000
0000380000
0000380000
000038000c
000038001e
ffffffffff
0000000000
ENDCHAR
STARTCHAR 2163
ENCODING 8547
SWIDTH 903 0
DWIDTH 40 0
BBX 40 40 0 -6
BITMAP
0000000000
000000000c
000000001e
ffffffffff
0000380000
0000380000
0000380000
0000380000
0000380000
0000380000
00003800c0
0c003801e0
0ffffffff0
0e003800f0
0e003800e0
0e003800e0
0e003800e0
0e003800e0
0e003800e0
0e003800e0
0e003800e0
0e003800e0
0e003800e0
0e003800e0
0e003800e0
0e003800e0
0e003800e0
0e00387fe0
0e00380fe0
0e003801c0
0c00380180
0000380000
0000380000
0000380000
0000380000
0000380000
0000380000
0000380000
0000380000
0000300000
ENDCHAR
STARTCHAR 2164
ENCODING 8548
SWIDTH 903 0
DWIDTH 40 0
BBX 40 40 0 -6
BITMAP
000000c000
000000f800
000000f300
000000e180
000000e1c0
000000e0e0
000000e0e0
000000e060
000000e00c
000000e01e
ffffffffff
000000e000
000000e000
000000e000
000000e000
000000e000
000000e000
0000007000
0000007000
0000007000
0000007000
0000007000
0000003800
0000183800
00003c3800
3ffffe3800
0000001c00
0000001c00
0000001c00
0000000e01
0000000e01
0000000701
0000000703
0000000383
00000001c7
00000001f6
00000000fe
000000007f
000000003f
000000000e
ENDCHAR
STARTCHAR 2165
ENCODING 8549
SWIDTH 903 0
DWIDTH 40 0
BBX 40 40 0 -6
BITMAP
0000000000
0000600000
0000380000
00001c0000
00000e0000
00000f0000
0000070000
0000070000
0000030000
0060000060
00700000f0
007ffffff8
0070000078
0070000070
0070000070
0070000070
0070000070
0070000070
0070000070
0070000070
0070000070
0070000070
007ffffff0
0070000070
0070000060
0070000000
0070000000
00e0000000
00e0000000
00e0000000
00e0000000
01c0000000
01c0000000
0380000000
0380000000
0700000000
0600000000
0c00000000
1800000000
3000000000
ENDCHAR
STARTCHAR 2166
ENCODING 8550
SWIDTH 903 0
DWIDTH 40 0
BBX 40 40 0 -6
BITMAP
0000000000
0000000000
0000000030
0000000078
01fffffffc
0000000000
0000000000
0000000000
0000000000
0060000060
00700000f0
007ffffff8
0070000078
0070000070
0070000070
0070000070
0070000070
0070000070
0070000070
0070000070
0070000070
0070000070
007ffffff0
0070000070
0070000060
0070000000
0070000000
00e0000000
00e0000000
00e0000000
00e0000000
01c0000000
01c0000000
0380000000
0380000000
0700000000
0600000000
0c00000000
1800000000
3000000000
ENDCHAR
STARTCHAR 2167
ENCODING 8551
SWIDTH 903 0
DWIDTH 40 0
BBX 40 40 0 -6
BITMAP
0000600000
00007c0000
0000780000
0000700000
0000700000
0000700000
0000700018
000070003c
00007ffffe
0000700000
0000700000
0000700000
0000700000
0000700000
0000700000
0000700600
0000700f00
03ffffff80
0020000f80
0030000f00
0018001e00
0018001c00
000c003c00
000e007800
0007007000
000380f000
0001c1e000
0000e3c000
0000778000
00003f0000
00003e0000
00007f0000
0000f7c000
0001e3f000
000780fe00
001f007fc0
007c001fff
01f00007ff
0fc00001f8
7e00000078
ENDCHAR
STARTCHAR 2168
ENCODING 8552
SWIDTH 903 0
DWIDTH 40 0
BBX 40 40 0 -6
BITMAP
0003000000
0003e00000
0003c00000
0003800000
0007800000
0007000000
0007000000
000f000000
000e000000
000e000060
001c0000f0
001ffffff8
0038001c00
0038001c00
007c001c00
006c003800
00e6003800
00c6007000
01c3007000
038380e000
0301c0e000
0600c1c000
0c00e1c000
0000638000
0000378000
00003f0000
00001e0000
00003e0000
00003f0000
00007f8000
0000f3c000
0001e1f000
000380fc00
000f007f00
001e001fe0
0078000fff
01e00003ff
07800000f8
1e00000038
7800000000
ENDCHAR
STARTCHAR 2169
ENCODING 8553
SWIDTH 903 0
DWIDTH 40 0
BBX 40 40 0 -6
BITMAP
0000000000
0000000180
00000003c0
07ffffffe0
0000380000
0000380000
0000380000
0000380000
0000380000
0000380000
0000380000
0000380000
0000380000
0000380000
0000380030
0000380078
3ffffffffc
0000730000
000073e000
000073c000
0000738000
0000e38000
0000e38000
0000e38000
0001c38000
0001c38000
0003838000
0003838000
0007038000
0007038000
000e038001
000e038001
001c038003
0038038003
0070038007
00e003c00e
01c003ffff
078001ffff
1e00007ffe
7800000000
ENDCHAR
STARTCHAR 216a
ENCODING 8554
SWIDTH 903 0
DWIDTH 40 0
BBX 40 40 0 -6
BITMAP
0000000000
0000000180
01800003c0
01ffffffe0
01c0070000
01c0070000
01c0070000
01c0070000
01c0070000
01c0070000
01c0070000
0380070000
0380070000
0380070000
0380070018
038007003c
07fffffffe
0300070000
0000070000
0000070000
01c0070000
0078070000
001e070000
0007870000
0001e70000
00007f0000
00003f0000
00000fc000
000007f800
0000077f00
0000071fe0
00000707ff
00000703ff
00000700f8
0000070038
00000f0000
0007ff0000
0000fe0000
00003c0000
0000380000
ENDCHAR
STARTCHAR 216b
ENCODING 8555
SWIDTH 903 0
DWIDTH 40 0
BBX 40 40 0 -6
BITMAP
0000000000
0060000000
007c000000
0078000000
0070000000
00f0000000
00e0000000
00e0000060
01c00000f0
01fffffff8
03801c0000
03801c0000
07001c0000
07001c0000
0e001c0000
1c001c0000
18001c0000
30001c0000
60001c0000
00001c0000
00001c0000
00001c0180
00001c03c0
07ffffffe0
00001c0000
00001c0000
00001c0000
00001c0000
00001c0000
00001c0000
00001c0000
00001c0000
00001c0000
00001c0000
00001c0000
00001c000c
00001c001e
ffffffffff
0000000000
0000000000
ENDCHAR
STARTCHAR 216c
ENCODING 8556
SWIDTH 903 0
DWIDTH 40 0
BBX 40 40 0 -6
BITMAP
0000000000
0000300000
00003e0000
00003c0000
0000380000
0000380000
0000380000
1800380060
1f0038007c
1e00380078
1c00380070
1c00380070
1c00380070
1c00380070
1c00380070
1c00380070
1c00380070
1c00380070
3ffffffff0
1800000060
0000000000
0000000000
0000000000
0000000000
0000000000
0000000000
00000000c0
00000001e0
0ffffffff0
0000000000
0000000000
0000000000
0000000000
0000000000
0000000000
000000000c
000000001e
7fffffffff
0000000000
0000000000
ENDCHAR
STARTCHAR 216d
ENCODING 8557
SWIDTH 903 0
DWIDTH 40 0
BBX 40 40 0 -6
BITMAP
0018000000
001f000030
001e000078
003cfffffc
0038007000
0038007000
0070007000
0070007000
00e0007000
00e0007000
01c0007000
01c0007000
03c0007000
03c0007000
07c0007000
07c0007000
0fc000700c
1dc000701e
19c3ffffff
31c0007000
61c0007000
01c0007000
01c0007000
01c0007000
01c0007000
01c0007000
01c0007000
01c0007000
01c0007000
01c0007000
01c0007000
01c0007000
01c0007000
01c0007000
01c0007000
01c0007000
01c0007000
01c0007000
01c0007000
0180006000
ENDCHAR
STARTCHAR 216e
ENCODING 8558
SWIDTH 903 0
DWIDTH 40 0
BBX 40 40 0 -6
BITMAP
0030006000
003e007c00
003c007800
0078007000
0070007000
0070007000
00e0007000
00e0007000
01c0007000
01c0007000
03c0007008
03c000701c
07c1fffffe
07c0007000
0fc0007000
0fc0007000
1dc0007000
39c0007000
31c000f800
61c000f800
c1c000f800
01c000d800
01c001cc00
01c001cc00
01c001cc00
01c0038600
01c0038600
01c0038700
01c0070300
01c0070380
01c00e01c0
01c00e01e0
01c01c00f0
01c03c00f8
01c038007c
01c070003f
01c0e0001f
01c1c0000e
01c3800006
018e000000
ENDCHAR
STARTCHAR 216f
ENCODING 8559
SWIDTH 903 0
DWIDTH 40 0
BBX 40 40 0 -6
BITMAP
0060000000
007c000000
0078600300
0070700780
00f07fffc0
00e07003c0
00e0700380
01c0700380
01c0700380
0380700380
0380700380
0700700380
0700700380
0f00700380
0f00730380
1f00718380
3f0070c380
370070e380
6700707380
c700707380
0700703380
0700703380
0700700380
0700700380
0700700380
0700e00380
0700e00380
0700e00380
0700e00380
0700e00380
0701c00380
0701c00381
0701c00381
0703800383
0703800383
07070003c6
07060003ff
070c0001ff
07180000fe
0630000000
ENDCHAR
STARTCHAR 2170
ENCODING 8560
SWIDTH 903 0
DWIDTH 40 0
BBX 40 40 0 -6
BITMAP
0000600000
00007c0000
0000780000
0000700000
0000700000
0000700080
00007001c0
00007fffe0
0000700000
0000700000
0000700000
0000700000
0000700000
000070000c
000070001e
ffffffffff
0000000000
0000300000
00003e0000
00003c0000
0000380000
0000380000
0000380000
0000780000
00007c0000
0000f40000
0000e60000
0001c30000
0001c18000
000381c000
000780e000
000f007800
001e003c00
003c001f00
0078000fe0
00f00007ff
01e00001ff
07800000f8
1e00000038
7000000000
ENDCHAR
STARTCHAR 2171
ENCODING 8561
SWIDTH 903 0
DWIDTH 40 0
BBX 40 40 0 -6
BITMAP
0060000000
007c000000
0078000000
0070000000
00f000000c
00e000001e
00e7ffffff
01c00e0e00
01c00e0e00
03800e0e00
03800e0e00
07000e0e00
07000e0e00
0f000e0e00
0f000e0e00
1f000e0e00
3f000e0e00
37000e0e00
67000e0e00
c7000e0e00
07000e0e00
07000e0e00
07000e0e00
07000e0e00
07001c0e00
07001c0e00
07001c0e00
07001c0e00
0700380e00
0700380e00
0700380e00
0700700e01
0700700e01
0700e00e03
0700e00e03
0701c00f06
0703800fff
07070007ff
070e0001fe
0638000000
ENDCHAR
STARTCHAR 2172
ENCODING 8562
SWIDTH 903 0
DWIDTH 40 0
BBX 40 40 0 -6
BITMAP
0030000000
003e006000
003c007c00
0078007800
0070007000
0070007000
00e0007000
00e0007000
01c0007000
01c0007000
03c0007000
03c0007000
07c0007000
07c0307000
0fc03e7300
0fc03c7180
1dc03871c0
39c03870e0
31c07070e0
61c0707070
c1c0707038
01c0e07038
01c0e0703c
01c0c0701c
01c1c0701c
01c180700e
01c380700e
01c300700e
01c6007006
01c6007000
01cc007000
01c0007000
01c0007000
01c0007000
01c0007000
01c000f000
01c03ff000
01c007e000
01c001c000
0180018000
ENDCHAR
STARTCHAR 2173
ENCODING 8563
SWIDTH 903 0
DWIDTH 40 0
BBX 40 40 0 -6
BITMAP
0030018000
003e01f000
003c01e000
007801c000
007001c000
007001c000
00e0038000
00e0038018
01c003803c
01c007fffe
03c007001e
03c007001c
07c00e001c
07c00e001c
0fc00c001c
0fc01c0038
1dc0180038
39c0380038
31c0330038
61c071c070
c1c060f070
01c0c07870
01c1803ce0
01c1001ce0
01c0000dc0
01c00001c0
01c0000380
01c0000380
01c0000700
01c0000e00
01c0001c00
01c0003800
01c0007000
01c000e000
01c001c000
01c0038000
01c0070000
01c01c0000
01c0700000
0181c00000
ENDCHAR
STARTCHAR 2174
ENCODING 8564
SWIDTH 903 0
DWIDTH 40 0
BBX 40 40 0 -6
BITMAP
0030030000
003e03e000
003c03c000
0078038000
0070038000
0070038000
00e0038000
00e0038000
01c0078000
01c0070000
03c0070300
03c00703cc
07c007039e
07c7ffffff
0fc00e0380
0fc00e0380
1dc00e0380
39c01c0380
31c01c0380
61c01c0780
c1c0380700
01c0380700
01c0380f00
01c0700e00
01c0700e00
01c0e00e00
01c0f81e00
01c0ff1c00
01c007fc00
01c000f800
01c0007c00
01c000ff00
01c001e7c0
01c003c1e0
01c00780f0
01c00f0078
01c03c003c
01c0f8003c
01c3e0001c
019f80000c
ENDCHAR
STARTCHAR 2175
ENCODING 8565
SWIDTH 903 0
DWIDTH 40 0
BBX 40 40 0 -6
BITMAP
0000300000
0000380000
00003e0000
00007c0000
0000760000
0000f30000
0001e1c000
0003c0e000
0007807000
000f003800
001e001e00
0038000f80
00f00007e0
01c00183ff
038003f0ff
0e0007e078
1c000f8018
70003e0000
c000f80000
0003e00000
000f800000
007c003000
03e0007e00
000000fc00
000003f000
00000fc000
00003f0000
0001f80000
000fc00300
007e0007e0
03f0001fc0
0000007f00
000003f800
00001fc000
0000fe0000
0007f00000
00ff800000
0ff8000000
0000000000
0000000000
ENDCHAR
STARTCHAR 2176
ENCODING 8566
SWIDTH 903 0
DWIDTH 40 0
BBX 40 40 0 -6
BITMAP
0000600000
0000380000
00001c0000
00003e0000
00007f0000
0000f38000
0001e1c000
0003c0e000
000780f000
000f007800
001e003c00
003c001e00
0078000f80
00e00007f0
01c00003ff
07000001ff
0e00000078
3800000038
e000000300
0000000780
07ffffffc0
0000380000
0000380000
0000380000
0000380000
0000380000
0000380000
0000380000
0000380000
0000380000
0000380000
0000380000
0000380000
0000380000
0000380000
0000380018
000038003c
7ffffffffe
0000000000
0000000000
ENDCHAR
STARTCHAR 2177
ENCODING 8567
SWIDTH 903 0
DWIDTH 40 0
BBX 40 40 0 -6
BITMAP
0000000000
0000000018
300000003c
3ffffffffe
380000001e
380000001c
380000001c
380000601c
381800f01c
381ffff81c
381c00781c
381c00701c
381c00701c
381c00701c
381c00701c
381c00701c
381c00701c
381c00701c
381c00701c
381ffff01c
381c00701c
381c00601c
381c00001c
381c00001c
381c00021c
381c00021c
381c00061c
381c000e1c
381e001c1c
381ffffe1c
380ffffe1c
3803fffc1c
380000001c
380000001c
380000001c
3800000ffc
38000001fc
380000007c
3800000038
3000000030
ENDCHAR
STARTCHAR 2178
ENCODING 8568
SWIDTH 903 0
DWIDTH 40 0
BBX 40 40 0 -6
BITMAP
0000000000
0000000018
300000003c
3ffffffffe
380000001e
380000001c
380000001c
380000001c
380000001c
380000001c
380000001c
380000001c
380000601c
380c00f01c
380ffff81c
380e00781c
380e00701c
380e00701c
380e00701c
380e00701c
380e00701c
380e00701c
380e00701c
380e00701c
380e00701c
380e00701c
380e00701c
380ffff01c
380e00701c
380c00601c
380000001c
380000001c
380000001c
380000001c
380000001c
380000001c
38000007fc
38000000fc
3800000038
3000000030
ENDCHAR
STARTCHAR 2179
ENCODING 8569
SWIDTH 903 0
DWIDTH 40 0
BBX 40 40 0 -6
BITMAP
0000000000
0003000300
0307830780
03ffc3ffc0
0383c383c0
0383838380
0383838380
0383838380
0383838380
0383838380
0383838380
0383838380
0383838380
0383838380
0383838380
0383838380
0383838380
038383838c
038383839e
ffffffffff
0383838380
0383838380
0383838380
0383838380
0383838380
0383838380
0383838380
0383838380
0383838380
0383838380
0383838380
0383838380
0383838380
0383838380
0383838380
0383838380
03bf83bf80
038f838f80
0387038700
0306030600
ENDCHAR
STARTCHAR 217a
ENCODING 8570
SWIDTH 903 0
DWIDTH 40 0
BBX 40 40 0 -6
BITMAP
0000000000
100000000c
100000001e
1fffffffff
300000001f
300000001c
7060000018
f07c000030
e078000020
c070000000
0070000300
0070000780
00ffffffc0
00e0000000
00e0000000
00e0000000
01c0000000
01c0000600
01c0000f00
03ffffff80
0180000780
0000000700
0000000700
0000000700
0000000704
000000070e
ffffffffff
0000000700
0000000700
0000000f00
0000000e00
0000000e00
0000001e00
0000001c00
0000003c00
0000007800
00007ff000
000007e000
000001c000
0000018000
ENDCHAR
STARTCHAR 217b
ENCODING 8571
SWIDTH 903 0
DWIDTH 40 0
BBX 40 40 0 -6
BITMAP
0000000030
0c00000078
0ffffffffc
0e0000003c
0e00000038
0e00000038
0e00000038
0e00000038
0e00000038
0e00000038
0ffffffff8
0e00000038
0e00000030
0e00000000
0e00001800
0e01803c00
0e01fffe00
0e01c01e00
0e01c01c00
0e01c01c00
0e01c01c00
0e01c01c00
0e01c01c00
0e01c01c00
0e01c01c00
0e01c01c00
0e01c01c00
1c03801c00
1c03801c00
1c03801c00
1c03801c02
1c07001c02
3807001c06
380e001c0e
300e001e1c
701c001ffe
6038000ffe
c0600003fc
80c0000000
0000000000
ENDCHAR
STARTCHAR 217c
ENCODING 8572
SWIDTH 903 0
DWIDTH 40 0
BBX 40 40 0 -6
BITMAP
0000000000
0180000000
01f0000000
01e000000c
01c000001e
01c0ffffff
01c001c00f
01c001c00e
01c001c00e
01c001c00e
01c401c00e
01ce01c00e
7fff01c00e
01c001c00e
01c001c00e
01c001c00e
01c001c00e
01c001c00e
01c001c00e
01c001c00e
01c003800e
01c003800e
01c003800e
01c003800e
01c003800e
01c007000e
01c387000e
01de07000e
01f80e000e
0fc00e001e
ff001c001c
fc001c001c
700038003c
3000700038
0000e00078
0001c000f0
000380ffe0
0007000fc0
001c000380
0070000300
ENDCHAR
STARTCHAR 217d
ENCODING 8573
SWIDTH 903 0
DWIDTH 40 0
BBX 40 40 0 -6
BITMAP
0000000018
000060001f
0001f8001e
000ff8001c
007f80001c
03fc00001c
1f9c00301c
001c003e1c
001c003c1c
001c00381c
001c00381c
001c00381c
001c00381c
001c00381c
001c0c381c
001c1e381c
ffffff381c
001c00381c
001c00381c
001c00381c
001c00381c
001c00381c
001c00381c
003800381c
003800381c
003800381c
003800381c
007000381c
007000381c
007000381c
00e000301c
00e000001c
01c000001c
01c000001c
038000001c
030000003c
0600000ffc
0c000001f8
1800000070
3000000060
ENDCHAR
STARTCHAR 217e
ENCODING 8574
SWIDTH 903 0
DWIDTH 40 0
BBX 40 40 0 -6
BITMAP
0000000000
0180000000
01f0000000
01e0000018
03c000003c
0380fffffe
038001c01e
070001c01c
070001c01c
0e0001c01c
0c0001c01c
1c0001c01c
180c01c01c
380f81c01c
701f01c01c
781e01c01c
3c3c01c01c
0e3801c01c
077801c01c
03f001c01c
01f003801c
00e003801c
01c003801c
01c003801c
038003801c
070007001c
071807001c
0e0c07001c
1c060e001c
1c070e001c
383f8e0038
71f39c0038
ff839c0038
fe01b80078
7800380070
38007001f0
0000e0ffe0
0001c00fc0
0007800380
001e000300
ENDCHAR
STARTCHAR 2221
ENCODING 8737
SWIDTH 903 0
DWIDTH 40 0
BBX 40 40 0 -6
BITMAP
0000000000
3000000030
3800000078
3ffffffffc
380000003c
3800c00038
3800f80038
3800f00038
3800e00038
3800e00038
3800e00038
3800e00038
3800e01838
3800e03c38
38fffffe38
3800e01e38
3800e01c38
3800e01c38
3800e01c38
3801c01c38
3801c01c38
3801c01c38
3801c01c38
3803801c38
3803801c38
3807001c38
3807001c38
380e001c38
380e001c38
381c003c38
3818007838
38303ff838
386007f038
38c000e038
398000c038
3800000038
3800000038
3ffffffff8
3800000038
3000000030
ENDCHAR
STARTCHAR 2222
ENCODING 8738
SWIDTH 903 0
DWIDTH 40 0
BBX 40 40 0 -6
BITMAP
0180000000
01f0000000
01e0000000
01c0000000
03c0000000
0380000018
038000003c
07fffffffe
070000001e
070000001c
0e0000001c
0e0300001c
1c01c0001c
1800f0001c
3800700c1c
3000301e1c
67ffffff1c
407000001c
007000001c
007000001c
007000001c
007000001c
007000001c
007000001c
007000001c
007000001c
007000001c
007000001c
007800001c
007ffff81c
003ffffc3c
001ffffc38
0000000038
0000000078
0000000070
00000001f0
000003ffe0
0000003fc0
0000000780
0000000700
ENDCHAR
STARTCHAR 2223
ENCODING 8739
SWIDTH 903 0
DWIDTH 40 0
BBX 40 40 0 -6
BITMAP
0060000000
007c000000
0078000000
0070000000
0070000018
00f000003c
00fffffffe
01e000001e
01c000001c
038000001c
038000001c
070018001c
0e001f001c
0c001e001c
18001c001c
30001c001c
61801c001c
01f01c001c
01e038001c
01c03e001c
01c073001c
01c071801c
01c0e0c01c
01c0e0e01c
01c1c0701c
01c180381c
01c300381c
01c600181c
01cc00001c
01c000001c
01c000001c
01c000061c
03ffffff1c
018000003c
0000000038
0000000078
0000007ff0
00000007e0
00000001c0
0000000180
ENDCHAR
STARTCHAR 2224
ENCODING 8740
SWIDTH 903 0
DWIDTH 40 0
BBX 40 40 0 -6
BITMAP
0180000000
01f0000000
01e0000000
01c0000000
03c0000000
0380000018
038000003c
07fffffffe
070000001e
070000001c
0e0180001c
0e01f0001c
1c01e0001c
1803c00c1c
3803801e1c
3007ffff1c
6007001f1c
400e003c1c
001c003c1c
003e00781c
007380701c
00e1e0f01c
01c0f0e01c
038079c01c
0e003fc01c
00001f801c
00000f001c
00001e001c
00003c001c
000078001c
0000f0003c
0003c00038
0007800038
001e000078
0078000070
03e00001f0
1f0003ffe0
0000003fc0
0000000780
0000000700
ENDCHAR
STARTCHAR 2225
ENCODING 8741
SWIDTH 903 0
DWIDTH 40 0
BBX 40 40 0 -6
BITMAP
0060000000
007c000000
0078000000
0070000000
0070000000
00e0000000
00e0000180
00e00003c0
01ffffffe0
01c1c1c1e0
01c1c1c1c0
0381c1c1c0
0381c1c1c0
0701c1c1c0
0761c1c1c0
0e3b8381c0
1c1f8381c0
180f8381c0
3007c381c0
6007e701c0
00077701c0
000e3f01c0
000e1e01c0
001c0f01c0
001c1f81c0
00381fc1c0
00703ce1c0
00e03879c0
01c0783dc0
0380701fc0
0700e00fc0
0e01c007f0
1c038003ff
30070007ff
000e0007bc
001c000f0c
003803ff00
0060007e00
0000001c00
0000001800
ENDCHAR
STARTCHAR 2226
ENCODING 8742
SWIDTH 903 0
DWIDTH 40 0
BBX 40 40 0 -6
BITMAP
0000000000
0000000018
300000003c
3ffffffffe
3800000000
3800000000
3800000000
3800000000
3800000100
3800000380
387fffffc0
38000e0000
38000e0000
38000e0000
38000e0000
38000e0000
38000e0000
38000e0000
38000e0000
38000e0000
38000e0000
38000e0000
38000e0000
38000e0000
38000e0000
38000e0000
38000e0000
38000e0000
38000e0020
38000e0070
39fffffff8
3800000000
3800000000
3800000000
3800000000
380000000c
380000001e
7fffffffff
3000000000
0000000000
ENDCHAR
STARTCHAR 2227
ENCODING 8743
SWIDTH 903 0
DWIDTH 40 0
BBX 40 40 0 -6
BITMAP
0000018000
000001f000
000001e000
000001c000
000001c000
300c01c000
381e01c000
3fff01c000
380f01c000
380e01c000
380e01c000
380e01c000
380e01c000
380e01f000
380e01dc00
380e01ce00
380e01c780
380e01c3c0
380e01c1e0
380e01c0f0
380e01c078
380e01c03c
380e01c03c
380e01c01c
380e01c01c
380e01c00c
3ffe01c000
380e01c000
380e01c000
380c01c000
300001c000
000001c000
000001c000
000001c000
000001c000
000001c000
000001c000
000001c000
000001c000
0000018000
ENDCHAR
STARTCHAR 2228
ENCODING 8744
SWIDTH 903 0
DWIDTH 40 0
BBX 40 40 0 -6
BITMAP
0000000000
0000030018
000103803c
000383fffe
7fffc3801e
00e003801c
00e003801c
00e003801c
00e003801c
00e003801c
00e003801c
00e003801c
00e003801c
00e003801c
00e003801c
00e003801c
00e003801c
00e003801c
00e003801c
00e003801c
00e003801c
00e003801c
00e003801c
00e003801c
00e003801c
00e003801c
00e3f3801c
00ff03801c
fff803803c
ffc0039ffc
7e000381f8
3800038070
1800038060
0000038000
0000038000
0000038000
0000038000
0000038000
0000038000
0000030000
ENDCHAR
STARTCHAR 2229
ENCODING 8745
SWIDTH 903 0
DWIDTH 40 0
BBX 40 40 0 -6
BITMAP
0000000000
0c0000000c
0e0000001e
0fffffffff
0e00000000
0e00000000
0e00000000
0e00000000
0e00000030
0e00000078
0e7ffffffc
0e00700000
0e00700000
0e00700000
0e00700000
0e00700000
0e00700180
0e007003c0
0e007fffe0
0e007001e0
0e007001c0
0e007001c0
0e00e001c0
1c00e001c0
1c00e001c0
1c01c001c0
1c01c001c0
1c01c001c0
18038001c0
38038003c0
3807000380
3007000380
300e000780
700e000700
601c000f00
6038001e00
c0701ffc00
c0e001f800
81c0007000
0700006000
ENDCHAR
STARTCHAR 222a
ENCODING 8746
SWIDTH 903 0
DWIDTH 40 0
BBX 40 40 0 -6
BITMAP
0000600000
00007c0000
0000780000
0000f00000
0000f00000
0000e00030
0001e00078
3ffffffffc
0001c18000
0003c0c000
0007806000
0007007000
000e003800
001e001c00
001c001e00
0038000f00
0070000780
00e0c003e0
01c0f801f8
0380f000ff
0700e0007f
0e01e0003c
3801c0000c
e001c00000
0003800000
0003800000
0007018000
000700e000
000e007000
000e003800
001c001c00
0038000e00
0070000700
00e003ff80
01c0ffc3c0
03fffc03c0
03ff8001c0
01e00000c0
0060000000
0000000000
ENDCHAR
STARTCHAR 222b
ENCODING 8747
SWIDTH 903 0
DWIDTH 40 0
BBX 40 40 0 -6
BITMAP
0000000000
00000007e0
000001fff8
0007fffffc
1ffffe0000
0001c00000
0001c00000
0001c00000
0001c00000
0001c0000c
0001c0001e
ffffffffff
0003800000
0003800000
0003800000
0003800000
0007800600
0007000f00
0007ffff80
000f400f80
000e400f00
001e600e00
001c601c00
003c301c00
0038303800
0070183800
0070187000
00e00c7000
00e00ee000
01c007c000
038007c000
07000fe000
0e001ef000
1c003c7c00
3000f83fc0
6003e00fff
000f8003ff
003e0000f8
01f8000038
0fc0000000
ENDCHAR
STARTCHAR 222c
ENCODING 8748
SWIDTH 903 0
DWIDTH 40 0
BBX 40 40 0 -6
BITMAP
000000c000
000000f800
000000f000
000000e000
000000e000
601800e000
703c00e000
7ffe00e000
701e00e000
701c00e000
701c00e000
701c00e000
701c00e000
701c00e000
701c00f000
701c00f000
701c01d000
701c01d000
701c01d800
701c01c800
701c01c800
701c038c00
701c038c00
701c038600
701c070600
701c070700
7ffc070300
701c0e0380
70180e0380
70001c01c0
60001c01c0
00003800e0
00007000f0
0000e00078
0001c0003c
000380003f
000700001f
000e00000e
0038000006
00e0000000
ENDCHAR
STARTCHAR 222d
ENCODING 8749
SWIDTH 903 0
DWIDTH 40 0
BBX 40 40 0 -6
BITMAP
0000006000
0000007c00
0000007800
0000007000
0000007000
6030007000
7078007000
7ffc007000
703c007000
7038007000
7038007000
7038007000
703800700c
703800701e
703bffffff
7038007000
7038007000
7038007000
7038007000
7038007000
7038007000
7038007000
7038007000
7038007000
7038007000
7038007000
7ff8007000
7038007000
7038007000
7030007000
6000007000
0000007000
0000007000
0000007000
0000007000
0000007000
0000007000
0000007000
0000007000
0000006000
ENDCHAR
STARTCHAR 222e
ENCODING 8750
SWIDTH 903 0
DWIDTH 40 0
BBX 40 40 0 -6
BITMAP
0000000600
0180000f00
01ffffff80
01c0000780
01c0000700
01c0000700
01c0000700
01c0000700
01c0000700
01c0000700
01c0000700
01ffffff00
01c0000600
0180000000
0000000030
0000000078
3ffffffffc
001c000000
001c000000
001c000000
0038000000
0038000000
0070000180
00700003c0
00ffffffe0
00600001e0
00000001c0
00000001c0
00000001c0
00000001c0
00000001c0
00000001c0
00000003c0
0000000380
0000000780
0000000f00
00000fff00
000000fe00
0000001c00
0000001800
ENDCHAR
STARTCHAR 222f
ENCODING 8751
SWIDTH 903 0
DWIDTH 40 0
BBX 40 40 0 -6
BITMAP
0000000000
0000000000
0000000060
00000000f0
0000fffff8
6030100078
7078100070
7ffc100070
703c100070
70381800e0
70381800e0
70380800e0
70380c01c0
70380c01c0
70380c01c0
7038060380
7038060380
7038060700
7038030700
7038030e00
7038038e00
7038019c00
703801dc00
703800f800
703800f800
7038007000
703800f800
7ff801f800
703801dc00
7030038e00
7000070700
60000e0780
00001c03c0
00003801e0
00007000f8
0000e0007f
0001c0003f
000380001c
000e00000c
0038000000
ENDCHAR
STARTCHAR 2230
ENCODING 8752
SWIDTH 903 0
DWIDTH 40 0
BBX 40 40 0 -6
BITMAP
0000060000
000007c000
0000078000
0000070000
0000070000
6060070000
70f0070000
7ff8070000
7078070000
7070070300
7070070780
7071ffffc0
70700703c0
7070070380
7070070380
7070070380
7070070380
7070070380
7070070380
7070070380
7070070380
70700e0380
70700e0380
70700e0380
70700e0380
70701c0380
70701c0380
7ff01c0380
7070380380
7060380380
7000700380
6000700381
0000e00381
0001c00383
0003800383
00070003c6
000e0003ff
001c0001ff
00700000fe
01c0000000
ENDCHAR
STARTCHAR 2231
ENCODING 8753
SWIDTH 903 0
DWIDTH 40 0
BBX 40 40 0 -6
BITMAP
0001800000
0001f00000
0001e00000
0001c00000
0001c00000
0001c01800
0001c03c00
0ffffffe00
0001c01e00
0001c01c00
0003801c00
0003801c00
0003801c00
0007001c00
0007001c00
000e001c01
001c001c01
0038001c03
0070001c03
00e0001e06
01c0001fff
0700000fff
1c000007fe
f000000000
0000000000
00c0000700
00ffffff80
00e0000780
00e0000700
00e0000700
00e0000700
00e0000700
00e0000700
00e0000700
00e0000700
00e0000700
00e0000700
00ffffff00
00e0000700
00c0000600
ENDCHAR
STARTCHAR 2232
ENCODING 8754
SWIDTH 903 0
DWIDTH 40 0
BBX 40 40 0 -6
BITMAP
0000000000
3000000030
3800000078
3ffffffffc
380000003c
3800000038
3800006038
380000f038
387ffff838
380400f838
380400e038
380600e038
380600e038
380201c038
380301c038
380301c038
3801838038
3801838038
3800c70038
3800e70038
38006e0038
38007e0038
38003c0038
38003c0038
38007e0038
3800770038
3800e38038
3801c1e038
380380f838
3807007f38
380e003f38
381c001c38
3870000c38
39c0000038
3800000038
3800000038
3ffffffff8
3800000038
3800000030
3000000000
ENDCHAR
STARTCHAR 2233
ENCODING 8755
SWIDTH 903 0
DWIDTH 40 0
BBX 40 40 0 -6
BITMAP
000000c000
030000f800
03e000f000
03c000e000
038000e000
038000e000
038000e000
038000e000
038000e000
038000e018
038000e03c
03887ffffe
039c00e01e
7ffe00e01c
038000e01c
038000e01c
038000e01c
038000e01c
038000e01c
038000e01c
038001c01c
038001c01c
038001c01c
038001c01c
038003801c
038003801c
038703801c
03bc07001c
03f007001c
0fc00e003c
ff000e0038
fc001c0038
70001c0078
3000380070
00007000f0
0000e001e0
0001c0ffc0
0003801f80
000e000700
0038000600
ENDCHAR
STARTCHAR 2234
ENCODING 8756
SWIDTH 903 0
DWIDTH 40 0
BBX 40 40 0 -6
BITMAP
000000c000
00c000f800
00f800f000
00f000e000
00e000e000
00e000e000
00e000e000
00e000e000
00e000e000
00e000e000
00e000e000
00e200e000
00e700e000
1fff80f800
00e000ee00
00e000e700
00e000e380
00e000e1e0
00e000e0f0
00e000e078
00e000e03c
00e000e01e
00e000e01e
00e000e00e
00e000e006
00e000e000
00e1c0e000
00ef00e000
00fc00e000
03f000e000
3fc000e000
3f0000e000
1c0000e000
0c0000e000
000000e000
000000e000
000000e000
000000e000
000000e000
000000c000
ENDCHAR
STARTCHAR 2235
ENCODING 8757
SWIDTH 903 0
DWIDTH 40 0
BBX 40 40 0 -6
BITMAP
00c0003000
00f8003e00
00f0003c00
00e0003800
00e0003800
00e0003800
01c0003800
01c0c03800
01c1e03800
01fff03800
0380f03800
0380e03c00
0380e03c00
0380e03600
0700e03600
0700e07600
0781c07600
0e81c06700
0ec1c0e300
1c41c0e300
186380e380
383380c180
303b81c1c0
601f01c1c0
400f0180e0
00070380f0
000f030078
000f87007c
001dc6003e
003cec001e
003878000c
0070380000
00e01c0000
01c00f0000
038007c000
070001f000
0e0000ffff
1c00003fff
7000000ffc
0000000000
ENDCHAR
STARTCHAR 2236
ENCODING 8758
SWIDTH 903 0
DWIDTH 40 0
BBX 40 40 0 -6
BITMAP
0060000000
007c00000c
007800301e
0070003fff
007000380f
007000380e
007000380e
00e030380e
00e078380e
00fffc380e
00e03c380e
01c03c380e
01c038380e
01c038380e
038038380e
038038380e
078070380e
070070380e
0fc070380e
0e7070380e
1c3ce0380e
381ee0380e
300fe0380e
6007c0380e
4001c0380e
0003c0380e
000380380e
000780381e
00070039fe
000e00387c
001e003838
001c003800
0038003800
0070003800
00e0003800
01c0003800
0380003800
0700003800
1c00003800
7000003000
ENDCHAR
STARTCHAR 2237
ENCODING 8759
SWIDTH 903 0
DWIDTH 40 0
BBX 40 40 0 -6
BITMAP
0000300000
00003e0000
00003c0000
0000380000
0000380000
0000380000
0000380018
000038003c
7ffffffffe
0000720000
0000720000
0000730000
0000e10000
0000e18000
0001c18000
0001c0c000
000380e000
0007006000
0007003000
000e303800
001c3e1c00
00383c0e00
0070380700
00e03803c0
01c03801e0
03803800f8
070038087f
0e00381c3f
38fffffe1e
e000380006
0000380000
0000380000
0000380000
0000380000
0000380000
0000380000
0000380000
0000380000
0000380000
0000300000
ENDCHAR
STARTCHAR 2238
ENCODING 8760
SWIDTH 903 0
DWIDTH 40 0
BBX 40 40 0 -6
BITMAP
0000600000
0000780000
0000700000
0000e00000
0000e00018
0001c0003c
7ffffffffe
000380c000
0007806000
0007003000
000e003800
001e001c00
001c000e00
0038000700
0070000380
00e00001e0
01c00000f8
039800307f
071f003e3f
0e1e003c1e
381c003806
e01c003800
001c003800
001c003800
001c003800
001c003800
001c003800
001c003800
0038003800
0038003800
0038003800
0070003800
0070003800
00e0003800
00e0003800
01c0003800
0380003800
0700003800
0e00003800
1800003000
ENDCHAR
STARTCHAR 2239
ENCODING 8761
SWIDTH 903 0
DWIDTH 40 0
BBX 40 40 0 -6
BITMAP
00000c0000
00000f8000
00000f0000
00000e0000
03800e0000
00e00e0000
00780e0000
003c0e0000
001c0e0000
000c0e0000
00000e0000
00000e0000
00000e0000
0e000e0000
03800e0000
01e00e0000
00f00e0000
00780e0000
00380e0000
00181c0000
00001c0000
00001c000c
000038001e
ffffffffff
0000380000
0000700000
0000700000
0000e06000
0000e03800
0001c01c00
0001c00f00
0003800780
00070003c0
000e0001e0
001c0000f0
0038000078
00f000003c
03c000001c
0f0000000c
7800000000
ENDCHAR
STARTCHAR 223a
ENCODING 8762
SWIDTH 903 0
DWIDTH 40 0
BBX 40 40 0 -6
BITMAP
0000600000
0000780000
0000700000
0000e00000
0000e00018
0001c0003c
7ffffffffe
0003818000
000780c000
000700e000
000e007000
001e003800
001c001c00
0038000f00
0070000780
00e00003e0
01c00001f8
03800000ff
070000007f
0e0000003c
380000000c
e300000300
03e00003e0
03c00003c0
0380000380
0380000380
0380000380
0380000380
0380000380
0380000380
0380000380
0380000380
0380000380
0380000380
0380000380
0380000380
0380000380
07ffffff80
0300000380
0000000300
ENDCHAR
STARTCHAR 223b
ENCODING 8763
SWIDTH 903 0
DWIDTH 40 0
BBX 40 40 0 -6
BITMAP
0000000000
0300000000
03e000000c
03c000001e
03807fffff
0380001c00
0380001c00
0380001c00
038c001c00
038e001c00
03bf801c00
fffe001c00
ff0e001c00
670e001c00
070e001c00
070e001c00
070e001c00
070e001c00
0e0e001c00
0e0e001c00
0e1c001c00
0e1c001c00
1c1c001c00
1c1c001c00
1c38001c00
1f38001c00
07f0001c00
01f0001c00
00f8001c00
01fc001c00
01de001c00
038f001c00
0707001c00
0e03001c00
1c00001c00
3800003c00
70000ffc00
c00001f800
0000007000
0000006000
ENDCHAR
STARTCHAR 223c
ENCODING 8764
SWIDTH 903 0
DWIDTH 40 0
BBX 40 40 0 -6
BITMAP
0000c00000
0000700000
0000380000
08001c0000
08001c000c
18000c001e
1fffffffff
380000001f
700000001c
f000000018
e000000c30
c000001e20
01ffffff00
0008001f00
0008001c00
000c001c00
0004003800
0006003800
0002007000
0003007000
000300e000
000180e000
0001c1c000
0000c38000
0000e38000
0000770000
00003e0000
00003c0000
00003e0000
00007f0000
0000f78000
0001e3e000
0003c0f800
0007007e00
001e001fc0
0038000ffe
00f00003fe
03c00000f8
0f00000038
7800000000
ENDCHAR
STARTCHAR 223d
ENCODING 8765
SWIDTH 903 0
DWIDTH 40 0
BBX 40 40 0 -6
BITMAP
0000c00000
0000700000
0000380000
08001c0000
08001c000c
18000c001e
1fffffffff
380000001f
700000001c
f000000018
e000000030
c00c00c020
000f80f800
000f00f000
000e00e000
000e00e000
000e00e000
000e00e000
000e00e000
000e00e000
000e00e000
000e00e000
000e00e000
000e00e000
000e00e000
001c00e000
001c00e000
001c00e000
001c00e000
003800e000
003800e002
007000e002
007000e006
00e000e006
01c000e00c
038000f01c
070000fffe
0e00007ffe
3800003ffc
6000000000
ENDCHAR
STARTCHAR 223e
ENCODING 8766
SWIDTH 903 0
DWIDTH 40 0
BBX 40 40 0 -6
BITMAP
00000000c0
00000000f8
00000000f0
00030000e0
00078000e0
7fffc000e0
0007c000e0
00070000e0
00070000e0
20070000e6
30071fffff
100e0000e0
180e0000e0
080e0000e0
0c0e0000e0
061c0000e0
061c0300e0
031c0180e0
033801c0e0
033800e0e0
01b800f0e0
01f00070e0
00f00070e0
00e00030e0
00f00000e0
00f00000e0
01f80000e0
01d80000e0
019c0000e0
038c0000e0
030e0000e0
070e0000e0
06070000e0
0e070000e0
0c038000e0
18038001e0
3001807fe0
6000000fc0
c000000380
0000000300
ENDCHAR
STARTCHAR 223f
ENCODING 8767
SWIDTH 903 0
DWIDTH 40 0
BBX 40 40 0 -6
BITMAP
00c0000000
00f8000000
00f0000000
00e0000000
00e0000000
01c0000000
01c0000030
0380000078
03fffffffc
07000e007c
06000e0070
0c000e0060
18000e00c0
30000e0080
20000e0000
00000e0000
00000e0000
00c00e0000
00f80e0600
00f00e0300
00e00e0180
00e00e00c0
01c00e0060
01c00e0070
01800e0038
03800e003c
03000e001c
07000e001e
06000e000e
0c000e000e
18000e0006
30000e0006
60000e0000
c0000e0000
00000e0000
00001e0000
000ffe0000
0000fc0000
0000380000
0000300000
ENDCHAR
STARTCHAR 2240
ENCODING 8768
SWIDTH 903 0
DWIDTH 40 0
BBX 40 40 0 -6
BITMAP
0000000000
0c00000060
0e000000f0
0ffffffff8
0e00000078
0e00000070
0e00000070
0e00000070
0e00000070
0ffffffff0
0e00000060
0e00000000
0e00000000
0e00000600
0e00000f00
0e1fffff80
0e01000f80
0e01000e00
0e01800e00
0e00800e00
0e00c01c00
0e00401c00
0e00603800
0e00303800
0c00307000
1c00187000
1c000ce000
1c000fc000
1c00078000
1800078000
38000fc000
38001cf000
3000387800
3000f03e00
6001c00fc0
60078007ff
c01e0001ff
807800007c
01e000001c
0f00000000
ENDCHAR
STARTCHAR 2241
ENCODING 8769
SWIDTH 903 0
DWIDTH 40 0
BBX 40 40 0 -6
BITMAP
0000000000
0600000000
07c0180300
07801c0780
07001fffc0
07001c03c0
07001c0380
07001c0380
07001c0380
c7181c0380
e71e1c0380
c71c1c0380
c71c1c0380
c71c1c0380
c71c1c0380
c71c1c0380
c71c1c0380
c71c1c0380
c71c1c0380
c71c1c0380
c71c1c0380
c71c1c0380
c71c1c0380
c71c1c0380
c71c1c0380
c71c1c0380
c71c380380
c71c380380
c71c380380
c71c380380
fffc700380
c018700381
0000e00381
0000e00383
0001c00383
00038003c6
00070003ff
000e0001ff
00380000fe
00e0000000
ENDCHAR
STARTCHAR 2242
ENCODING 8770
SWIDTH 903 0
DWIDTH 40 0
BBX 40 40 0 -6
BITMAP
0000300000
00003e0000
06003c0180
07c03801f0
07803801e0
07003801c0
07003801c0
07003801c0
07003801c0
07003801c0
0fffffffc0
06000001c0
0000300180
00003e0000
00003c0000
0000380000
0000380000
0000380000
00003c0000
00003c0000
0000740000
0000760000
0000720000
0000e30000
0000e30000
0001c18000
0001c18000
000380c000
000380e000
0007007000
000e003800
001e003c00
003c001e00
0078000f80
00f00007e0
01e00003ff
03c00001ff
07000000f8
1c00000038
7000000000
ENDCHAR
STARTCHAR 2243
ENCODING 8771
SWIDTH 903 0
DWIDTH 40 0
BBX 40 40 0 -6
BITMAP
0000300000
00003e0000
06003c0180
07c03801f0
07803801e0
07003801c0
07003801c0
07003801c0
07003801c0
07003801c0
0fffffffc0
06000001c0
0001800180
0000e00000
0000700000
0000380000
0000380000
00001c0000
00003e0000
00003e0000
00003b0000
0000730000
0000718000
0000e18000
0000e0c000
0001c0e000
0001c06000
0003807000
0007003800
0007001c00
000e001e00
001c000f00
0038000780
00700003e0
00e00001f8
01c00000ff
038000007f
070000003c
1c0000000c
7000000000
ENDCHAR
STARTCHAR 2244
ENCODING 8772
SWIDTH 903 0
DWIDTH 40 0
BBX 40 40 0 -6
BITMAP
0000300000
00003e0000
06003c0180
07c03801f0
07803801e0
07003801c0
07003801c0
07003801c0
0fffffffc0
0600000180
0000000000
0000000c00
0000001e00
03ffffff00
0003801f00
0003801c00
0003801c00
0003803800
0003803800
0003807030
0003807078
000380fffc
000700603c
0007000038
0007000038
0007000038
000e000038
000e000038
001c000038
001c000038
0038000078
0038000070
0070000070
00e00000f0
01c00000e0
03800003e0
070001ffc0
0e00001f80
3800000700
6000000600
ENDCHAR
STARTCHAR 2245
ENCODING 8773
SWIDTH 903 0
DWIDTH 40 0
BBX 40 40 0 -6
BITMAP
0000000000
0000000300
0000000780
03ffffffc0
00000003c0
0000000380
0000000380
0000000380
0000000380
0000000380
0000000380
0300000380
03c0000380
0380000380
0380000380
03ffffff80
0380000380
0380000300
0380000000
0380000000
0380000000
0380000000
03800000c0
03800001e0
03fffffff0
03800000f0
03800000e0
03800000e0
03800000e0
03800000e0
03800000e0
03800000e0
03800000e0
03800000e0
03800000e0
03800000e0
03ffffffe0
03800000e0
03800000c0
0300000000
ENDCHAR
STARTCHAR 2246
ENCODING 8774
SWIDTH 903 0
DWIDTH 40 0
BBX 40 40 0 -6
BITMAP
00c0000000
00f8030000
00f003e000
00e003c000
00e0038000
00e0038000
00e0038000
30e3038000
38e7838000
3fffc38000
38e3c38000
38e3838000
38e3838000
38e3838000
38e3838000
38e3838018
38e383803c
38e383fffe
38e3838000
38e3838000
38e3838000
38e3838000
38e3838000
38e3838000
38e3838000
38e3838000
38e3838000
38ff838000
38e7038000
30e6038002
00e0038002
00e0038002
00e0038002
00e0038006
00e0038006
00e003c00e
00e003ffff
00e001ffff
00e000fffe
00c0000000
ENDCHAR
STARTCHAR 2247
ENCODING 8775
SWIDTH 903 0
DWIDTH 40 0
BBX 40 40 0 -6
BITMAP
0000300000
00001c0000
00000e0000
18000e000c
1c0006001e
1fffffffff
1c00000000
1c00000000
1c00000000
1c00000010
1c00000038
1c7ffffffc
1c00038000
1c00038000
1c00038000
1c00038000
1c00038000
1c00038000
1c00038000
1c00038000
1c00038000
1c00038000
1c00038000
1c00038000
1c00038000
1c00038000
1800038000
3800038000
3800038000
3800038000
3000038000
3000038000
7000038000
6000038000
6000038000
c000078000
c003ff8000
80003f0000
00000e0000
00000c0000
ENDCHAR
STARTCHAR 2248
ENCODING 8776
SWIDTH 903 0
DWIDTH 40 0
BBX 40 40 0 -6
BITMAP
0000300000
00001c0000
00000e0000
00000f0000
0c0007000c
0e0006001e
0fffffffff
0e00000000
0e00000000
0e00000000
0e00180000
0e001f0000
0e001e0000
0e001c0000
0e001c0000
0e001c0000
0e00380000
0e00380000
0e00380000
0e00700000
0e00700000
0e00700000
0e00e00000
0e00e00000
0e01c03000
1c01c01c00
1c03800f00
1c03800780
1c070003c0
18070001e0
380e0000f0
381c000078
3038007ffc
707ffff03c
607ffe001c
603fc0001c
c01f00000c
8007000000
0000000000
0000000000
ENDCHAR
STARTCHAR 2249
ENCODING 8777
SWIDTH 903 0
DWIDTH 40 0
BBX 40 40 0 -6
BITMAP
000000c000
000000f000
000000e300
000000e1c0
000000e0e0
000000e0e0
000000e060
000000e000
000000e006
ffffffffff
000000e000
000000e000
000000e000
000000e000
000000e000
0000807000
0001c07000
0fffe07000
0000007000
0000007000
0000003800
0000003800
0000003800
0000003800
0000001c00
0000001c00
0000001c00
0000000e00
0000000e00
00000c0700
00001e0700
7fffff0381
0000000381
00000001c3
00000001e3
00000000f6
000000007e
000000003f
000000001f
000000000e
ENDCHAR
STARTCHAR 224a
ENCODING 8778
SWIDTH 903 0
DWIDTH 40 0
BBX 40 40 0 -6
BITMAP
0030000000
003e000000
003c000018
003800003c
00381ffffe
003800001e
003800001c
003800001c
003800001c
603800001c
303800001c
183800001c
1c3800001c
0e3800001c
0e3800001c
063800001c
063800001c
003800001c
003800001c
003800001c
00380ffffc
003800001c
007000001c
007000001c
007000001c
007000001c
007000001c
006000001c
00e000001c
00e000001c
00c000001c
01c000001c
018000001c
038000001c
030000001c
060000001c
0c001ffffc
180000001c
3000000018
6000000000
ENDCHAR
STARTCHAR 224b
ENCODING 8779
SWIDTH 903 0
DWIDTH 40 0
BBX 40 40 0 -6
BITMAP
0030000000
003c000000
0078000004
007000000e
00e0ffffff
01e0001c00
01c0001c00
0380001c00
0700001c00
0e00001c00
1c30001c00
303c001c00
0078001c00
0070001c00
00e0001c00
01e0001c00
01c0001c00
0380001c00
0780001c00
0780001c00
0f80001c00
1f80001c00
1b80001c00
3380001c00
6380001c00
c380001c00
0380001c00
0380001c00
0380001c00
0380001c00
0380001c00
0380001c00
0380001c00
0380001c00
0380001c00
0380003c00
03801ffc00
038001f800
0380007000
0300006000
ENDCHAR
STARTCHAR 224c
ENCODING 8780
SWIDTH 903 0
DWIDTH 40 0
BBX 40 40 0 -6
BITMAP
0600000000
07c0000000
078000000c
070000001e
0703ffffff
0700003800
0700003800
0700003800
0700003800
0780003800
27c0003800
2760003800
2770003800
6738003800
6738003800
6718003800
e700003800
e700003800
c700003800
c700003800
0700003800
0700003800
0700003800
0700003800
0700003800
0700003800
0700003800
0700003800
0700003800
0700003800
0700003800
0700003800
0700003800
0700003800
0700003800
0700007800
07003ff800
070003f000
070000e000
060000c000
ENDCHAR
STARTCHAR 224d
ENCODING 8781
SWIDTH 903 0
DWIDTH 40 0
BBX 40 40 0 -6
BITMAP
060000c000
07c000f800
078000f000
070000e000
070000e000
070000e000
070000e000
070000e000
070000e000
078000e00c
27c000e01e
2760ffffff
277000e00f
673800e00e
673800e00e
671800e00e
e70000e00e
e70000e00e
c70000e00e
c70001c00e
070001c00e
070001c00e
070001c00e
070001c00e
070003800e
070003800e
070003800e
070007000e
070007001e
07000e001c
07000e001c
07001c001c
07001c003c
0700380038
0700700078
0700e000f0
0701c07fe0
0703800fc0
070e000380
0638000300
ENDCHAR
STARTCHAR 224e
ENCODING 8782
SWIDTH 903 0
DWIDTH 40 0
BBX 40 40 0 -6
BITMAP
0000000780
000003ffc0
0c03ffffe0
0ffff00000
0e00000000
0e00000000
0e00000038
0ffffffffc
0e0000003c
0e00000038
0e00000038
0e00000038
0ffffffff8
0e00000030
0e00000000
0e00000000
0e000003c0
0e1fffffe0
0e000007e0
0e00000f80
0e00001e00
0e00007800
0c0000f000
1c0003c000
1c000f0000
1c003e0000
1c00780000
1c01e00000
1803c00000
380f000000
381e000002
383c000002
3078000006
7078000006
607800000c
607c00001c
c03ffffffe
c01ffffffe
8007fffffc
0000000000
ENDCHAR
STARTCHAR 224f
ENCODING 8783
SWIDTH 903 0
DWIDTH 40 0
BBX 40 40 0 -6
BITMAP
0180000000
01f0000000
01e0000000
01c0000018
01c000003c
01c03ffffe
01c001c01e
01c001c01c
01c201c01c
01c701c01c
7fff81c01c
01c001c01c
01c001c01c
01c001c01c
01c001c01c
01c001c01c
01c001c01c
01c001c01c
01c701c01c
01fc01c01c
03f003801c
1fc003801c
ffc003801c
fdc003801c
71c003801c
31c007001c
01c007001c
01c007001c
01c00e001c
01c00e003c
01c01c0038
01c01c0038
01c0380038
01c0380078
01c0700070
03c0e001f0
7fc1c0ffe0
0fc3800fc0
0387000380
031e000300
ENDCHAR
STARTCHAR 2250
ENCODING 8784
SWIDTH 903 0
DWIDTH 40 0
BBX 40 40 0 -6
BITMAP
03000c0000
03e00f8000
03c00f0000
03800e0000
03800e0000
03800e0000
03800e0000
03800e0000
03800e0000
03900e0300
7ff80e0780
0383ffffc0
03800e03c0
03800e0380
03800e0380
03800e0380
03800e0380
03800e0380
039c0e0380
03f00e0380
03c00e0380
0f800e0380
ff800e0380
ff801c0380
73801c0380
33801c0380
0380180380
0380380380
0380380380
0380300380
0380700380
0380600381
0380e00381
0380c00383
0381c00383
07818003c6
ff830003ff
0f060001ff
0e0c0000fe
0c18000000
ENDCHAR
STARTCHAR 2251
ENCODING 8785
SWIDTH 903 0
DWIDTH 40 0
BBX 40 40 0 -6
BITMAP
0000000000
0000000000
0600000000
07c0c00030
0780e00078
0700fffffc
0700e0003c
0700e00038
0700e00038
0700e00038
0700e00038
0700e00038
0700e00038
0700e00038
0700e00038
0700e00038
0700e00038
0700e00038
0700e00038
0700fffff8
0700e00038
0700e00038
0700e00038
0700e00038
0700e00038
0700e00038
0700e00038
0700e00038
0700e00038
0700e00038
0700e00038
0700e00038
0700e00038
0700fffff8
0700e00038
0700e00038
0700e00030
0700c00000
0600000000
0000000000
ENDCHAR
STARTCHAR 2252
ENCODING 8786
SWIDTH 903 0
DWIDTH 40 0
BBX 40 40 0 -6
BITMAP
0000300000
00003e0000
00003c3000
0000381c00
0000380e00
0000380f00
0000380700
0000380300
0000380018
000038003c
7ffffffffe
0000780000
00007c0000
0000fc0000
0000fe0000
0001fa0000
0001bb0000
0003bb0000
0003398000
000739c000
000e38c000
000e386000
001c387000
001c383800
0038381c00
0070381e00
0070380f00
00e0380780
01c03803e0
03803801f8
07003800ff
0e0038007f
1c0038001e
3800380006
7000380000
c000380000
0000380000
0000380000
0000380000
0000300000
ENDCHAR
STARTCHAR 2253
ENCODING 8787
SWIDTH 903 0
DWIDTH 40 0
BBX 40 40 0 -6
BITMAP
0000180000
00001f0000
00001e0000
00001c0000
00001c00c0
00001c01e0
00301ffff0
003e1c0000
003c1c0000
00381c0000
00381c0600
00381c0f00
007fffff80
0078000f80
00f0000f00
00e0000e00
01e0001e00
01c0001e00
039c001c00
0707003c00
0e03c03800
1c01e07800
3800f07000
600070f000
000031e000
000003c000
0000078000
00000f0000
00001e0000
00003c0000
0000780000
0000f00000
0001e00000
0003c00000
000f000000
001c000000
0078000000
03e0000000
0f80000000
7c00000000
ENDCHAR
STARTCHAR 2254
ENCODING 8788
SWIDTH 903 0
DWIDTH 40 0
BBX 40 40 0 -6
BITMAP
0000000000
0001800000
0003c0c000
7fffe0f800
0003e0f000
000780e000
000700e000
000e00e000
001c00e000
003800e000
007000e060
00e01cf0f8
01cffcf1e0
01c01cfb80
03801cee00
07001ce800
070038ec00
0e0038e400
1e0070e600
1c0070e300
3800e0e380
3800e0e1c0
7001c0e1e0
700380e0f8
f00700e07f
e00e00e03f
e01c00e01c
e07001e00c
e1c07fe000
e0000fc000
e000038000
f000030001
7000000001
7800000003
3c00000003
1f00000006
0fffffffff
07ffffffff
01fffffffe
0000000000
ENDCHAR
STARTCHAR 2255
ENCODING 8789
SWIDTH 903 0
DWIDTH 40 0
BBX 40 40 0 -6
BITMAP
0000300000
0c003e0000
07003c0000
0380380000
01c0380000
01c0380000
00c0380000
0000380000
0000380000
0008380000
0008380000
c018380000
7010380070
38303801f8
1c303807fc
1c60383f80
0c6039f000
00603f0000
00c0380000
00c0380000
01c0380000
0180380000
0380380000
0300380000
0700380000
0700380000
0e00380000
1e00380000
fe00380000
3c00380000
1c00380001
1c00380001
0e00380003
0e00380003
0f00380006
0f003c000e
0f003fffff
0f001fffff
06000ffffe
0000000000
ENDCHAR
STARTCHAR 2256
ENCODING 8790
SWIDTH 903 0
DWIDTH 40 0
BBX 40 40 0 -6
BITMAP
0000000000
0c00000000
0700600c00
0380701e00
01c07fff00
01c0700f00
00c0700e00
0000700e00
0000700e00
0008700e00
0008700e00
c018700e00
7010700e00
3830700e00
1c30700e00
1c60700e00
0c60700e00
0060700e00
00c0700e00
00c0700e00
01c0700e00
0180700e00
0380700e00
0300700e00
0700700e00
0700e00e00
0e00e00e00
1e00e00e00
fe00e00e00
3c01c00e00
1c01c00e01
1c01c00e01
0e03800e03
0e03800e03
0f07000e06
0f07000f0e
0f0e000fff
0f0c0007ff
06180003fe
0030000000
ENDCHAR
STARTCHAR 2257
ENCODING 8791
SWIDTH 903 0
DWIDTH 40 0
BBX 40 40 0 -6
BITMAP
0000180000
00001f0000
00001e0000
03801c0000
00e01c0000
00781c0000
003c1c0000
001c1c0000
000c1c0000
00001c0060
00001c00f8
00001c01f0
00071c03c0
3fff9d0700
00079d0e00
00071d9c00
00071db800
00071ce000
00071cc000
00071cc000
000e1c6000
000e1c6000
000e1c3000
001c1c3000
001c1c1800
00381c1c00
00381c0e00
00701c0f00
00701c0780
00e01c03c0
01c01c01e0
03801c00f8
07001c007f
0e001c003f
1c001c001e
38003c0006
e00ffc0000
0001f80000
0000700000
0000600000
ENDCHAR
STARTCHAR 2258
ENCODING 8792
SWIDTH 903 0
DWIDTH 40 0
BBX 40 40 0 -6
BITMAP
0000030000
180003e000
0e0003c000
0700038000
0780038000
0380038000
0180038000
0000038000
0000038000
0010038000
0010038000
c030038000
7030038000
3820038000
3c60038000
1c60038000
0c60038000
00c007c000
00c007c000
01c0074000
0180076000
03800e6000
03800e7000
07000e3000
07001c3000
0f001c3800
0e001c1800
1e00381c00
3c00381c00
fc00700e00
7c00700f00
3800e00780
3800e007c0
3c01c003e0
1c01c001f8
1c038000ff
1e0700007f
1e0e000038
1e1c000018
0c70000000
ENDCHAR
STARTCHAR 2259
ENCODING 8793
SWIDTH 903 0
DWIDTH 40 0
BBX 40 40 0 -6
BITMAP
0000000000
0c0000000c
070000001e
0383ffffff
03c0038000
01c0038000
01c0038000
00c0070000
0000070000
00080e0000
00080e0000
c0180e0000
70101c0000
38301c0000
3c301c0000
1c60380018
1c6038003c
0c607ffffe
00c030001e
00c000001c
01c000001c
018000001c
038000001c
030000001c
070000001c
070000001c
0e0000001c
1e0000001c
fe0000001c
3c0000001c
1c0000003c
1c00000038
0e00000078
0e00000070
0f000000f0
0f000001e0
0f0000ffe0
0f00000fc0
0600000380
0000000300
ENDCHAR
STARTCHAR 225a
ENCODING 8794
SWIDTH 903 0
DWIDTH 40 0
BBX 40 40 0 -6
BITMAP
00000c0000
00000f8000
00000f0000
00000e0000
00020e0000
00070e0000
7fff8e0000
01c00e0000
01c00e0000
01c00e0000
01c00e0000
01c00e0000
01c00e0000
01c00e0000
01c00e0000
01c00e0000
01c00e0000
01c20e0000
01c70e0000
7fff8e0000
01c00e0000
01c00e0000
01c00e0000
01c00e0000
01c00e0000
01c00e0000
01c00e0000
01c00e0000
01c00e0000
01c00e0000
01c00e0001
01cfce0001
01fc0e0003
0fe00e0003
ff000e0007
fc000f0006
700007800e
300007ffff
000003ffff
000000fffe
ENDCHAR
STARTCHAR 225b
ENCODING 8795
SWIDTH 903 0
DWIDTH 40 0
BBX 40 40 0 -6
BITMAP
0000300000
00001c0000
00000e0000
000007000c
030003001e
03ffffffff
0380000000
0380000000
0380000000
c380000000
6380000000
7380000000
3b80000000
3b80000000
1b80000000
0380000000
0380000000
0380000000
0380000000
0f80000000
3b80000000
f380000000
e380000000
6380000000
0380000000
0380000000
0380000000
0780000000
0700000000
0700000000
0700000000
0e00000000
0e00000000
0c00000000
1c00000000
1800000000
3800000000
3000000000
6000000000
4000000000
ENDCHAR
STARTCHAR 225c
ENCODING 8796
SWIDTH 903 0
DWIDTH 40 0
BBX 40 40 0 -6
BITMAP
0000000000
0000000000
0000c20700
0001e20f80
0ffff33e00
0001e37000
0001e3c000
0001c18000
0001c18000
0003c1c060
0c0381c07c
070380c0f8
038780e1e0
01c700e3c0
00e7007700
00ee007c00
007e007800
003c003800
003c003c00
0038001c00
0078001e00
0070000f00
00f0000780
00e00007c0
01c00003e0
01c00001f0
03800000fc
070000007f
0e0000003f
1c0000001c
380000000c
7000000000
c000000000
0000000000
0000000000
0000000000
0000000000
0000000000
0000000000
0000000000
ENDCHAR
STARTCHAR 225d
ENCODING 8797
SWIDTH 903 0
DWIDTH 40 0
BBX 40 40 0 -6
BITMAP
0000000000
000000c018
000000e03c
000180fffe
0003c0e03e
3fffe0e038
0003e0e038
000380e070
000380e060
000380e060
000380e0c0
300700e0c0
180700e180
0c0700e180
0e0700e0c0
060e00e060
030e00e030
038e00e018
019c00e01c
01dc00e00c
00dc00e00e
00f800e00e
007800e007
007800e007
007800e007
00fc00e007
00ec00e007
00ce00e00f
01c700e00e
038700e01e
038380fffc
070380e3f8
0701c0e070
0e01c0e060
0c00e0e000
1800e0e000
300060e000
600000e000
c00000e000
000000c000
ENDCHAR
STARTCHAR 225e
ENCODING 8798
SWIDTH 903 0
DWIDTH 40 0
BBX 40 40 0 -6
BITMAP
0000000000
000000c018
000020e03c
000070fffe
fffff8e03e
007000e038
007000e038
007000e070
007000e060
007000e060
007000e0c0
007000e0c0
007000e180
007000e180
007000e0c0
007000e060
007000e030
007000e018
007000e01c
007000e00c
007000e00e
007000e00e
007000e007
007000e007
007000e007
007000e007
007000e007
007000e00f
007000e00e
007000e01e
007000fffc
007000e3f8
007000e070
007000e060
007000e000
00f000e000
3ff000e000
07e000e000
01c000e000
018000c000
ENDCHAR
STARTCHAR 225f
ENCODING 8799
SWIDTH 903 0
DWIDTH 40 0
BBX 40 40 0 -6
BITMAP
0000000000
000300300c
060780381e
07ffc03fff
0703c0381f
070380381c
0703803818
0703803838
0703803830
0703803870
0703803860
07038038c0
07038038c0
0703803980
07038038c0
0703803860
0703803830
0703803818
070380381c
070380380c
070380380e
070380380e
0703803807
0703803807
0703803807
0703803807
0f03803807
0e03803807
0e0380380f
0e03803ffe
0e0381b8fe
1c0387383c
1c039c3838
1803f83800
3803e03800
3003c03800
3003803800
6001803800
4000003800
0000003000
ENDCHAR
STARTCHAR 2260
ENCODING 8800
SWIDTH 903 0
DWIDTH 40 0
BBX 40 40 0 -6
BITMAP
0000000000
6030000000
707800000c
7ffc00001e
703dffffff
7038003800
7030003800
7070003800
7060003800
7060003800
70c0003800
70c0003800
7180003800
7180003800
7080003800
70c0003800
7060003800
7070003800
7030003800
7038003800
7038003800
701c003800
701c003800
701c003800
701c003800
701c003800
701c003800
703c003800
7ffc003800
71f8003800
7070003800
7060003800
7000003800
7000003800
7000003800
7000007800
70001ff800
700003f000
700000e000
600000c000
ENDCHAR
STARTCHAR 2261
ENCODING 8801
SWIDTH 903 0
DWIDTH 40 0
BBX 40 40 0 -6
BITMAP
0000000000
000000000c
000000001e
ffffffffff
0000380000
0000380000
0000380000
0000380000
0000380000
0000380030
3000380078
3ffffffffc
380038003c
3800380038
3800380038
3800380038
3800380038
3860381838
3878381e38
3870381c38
3870381c38
3870381c38
3870381c38
3870381c38
3870381c38
3870381c38
3870381c38
3870381c38
3870381c38
38fffffc38
3860001c38
3800001838
3800000038
3800000038
3800000038
3800000078
3800001ff8
38000003f0
38000000e0
30000000c0
ENDCHAR
STARTCHAR 2262
ENCODING 8802
SWIDTH 903 0
DWIDTH 40 0
BBX 40 40 0 -6
BITMAP
0006018000
0007c1f000
000781e000
000701c000
000701c000
000701c000
000701c000
000701c000
000701c000
000701c000
000701c000
000701c010
000701c038
3fff01fffc
000701c000
000701c000
000701c000
000701c000
000701c000
000701c000
000701c000
000701c000
000701c000
000701c001
000701c001
000701c003
000701c003
001f01e006
01f701ffff
ffc600ffff
fe00007ffe
7000000000
3000000000
0000000000
0000000000
0000000000
000000000c
000000001e
ffffffffff
0000000000
ENDCHAR
STARTCHAR 2263
ENCODING 8803
SWIDTH 903 0
DWIDTH 40 0
BBX 40 40 0 -6
BITMAP
00000000c0
00000003e0
000000fff0
00003ffc00
000fff0000
0ffc380000
0000380000
0000380000
0000380000
0000380000
00003800c0
00003801e0
0ffffffff0
0000380000
0000380000
0000380000
0000380000
0000380000
0000380000
000038000c
000038001e
ffffffffff
0000700000
0000700000
0000e00000
0000e00000
0001c00000
0003800000
0007001800
000e000e00
001c000700
00380003c0
00700001e0
00e00000f0
01c0000078
038003fffc
07ffffff3e
07fffe001f
03f800001f
018000000e
ENDCHAR
STARTCHAR 2264
ENCODING 8804
SWIDTH 903 0
DWIDTH 40 0
BBX 40 40 0 -6
BITMAP
0060006000
007c007c00
0078007800
00f0007000
00e0007000
01c0007000
01c0007000
0380007000
0300007000
0703007000
0601807000
0e00c07000
1c00607000
1800707000
3800387000
700ffc7000
fffe1c7000
ff001c7000
70000c7000
3000007000
0000007000
0000007000
0000c07000
1801e07000
1ffff07000
1c00f07000
1c00e07000
1c00e07000
1c00e07000
1c00e07000
1c00e07001
1c00e07001
1c00e07003
1c00e07003
1c00e07006
1c00e0780e
1fffe07fff
1c00e03fff
1c00c01ffe
1800000000
ENDCHAR
STARTCHAR 2265
ENCODING 8805
SWIDTH 903 0
DWIDTH 40 0
BBX 40 40 0 -6
BITMAP
0018000000
001f000000
001e006000
001c00f000
003ffff800
003800f800
007000e000
006001c000
00c0018000
0180030000
0300060300
00000c0780
03ffffffc0
00003803c0
0000380380
0000380380
0000380380
0000380384
000038038e
ffffffffff
0000380380
0000380380
0000380380
0000380380
0000380380
0000380380
03ffffff80
0000380380
0000380300
0000380000
0000380000
0000380000
0000380000
0000380000
0000380000
0000780000
001ff80000
0003f00000
0000e00000
0000c00000
ENDCHAR
STARTCHAR 2266
ENCODING 8806
SWIDTH 903 0
DWIDTH 40 0
BBX 40 40 0 -6
BITMAP
0000000000
0000000000
0000000030
0000000078
1ffffffffc
0000000000
0000000000
0000000000
0000000000
0000000600
00c0000f00
00ffffff80
00e0000780
00e0000700
00e0000700
00e0000700
00e0000700
00e0000700
00e0000700
00e0000700
00e0000700
00ffffff00
00e0000700
00e0000700
00e0000700
00e0000700
00e0000700
00e0000700
00e0000700
00e0000700
00e0000700
00ffffff00
00e0000700
00c0000600
0000000000
0000000000
000000000c
000000001e
ffffffffff
0000000000
ENDCHAR
STARTCHAR 2267
ENCODING 8807
SWIDTH 903 0
DWIDTH 40 0
BBX 40 40 0 -6
BITMAP
003000c000
003e00f800
003c00f000
007800e000
007000e000
007000e0c0
00e000e3e0
00e000fff0
01c003fc00
01c01fe000
03c0f8e000
03c000e000
07c000e000
07c000e000
0fc000e000
0fc000e020
1dc000e070
39c1fffff8
31c000e000
61c000e000
c1c000e000
01c000e000
01c000e000
01c000e000
01c000e00c
01c000e01e
01c7ffffff
01c000e000
01c000e000
01c000e000
01c000e000
01c000e000
01c000e000
01c000e000
01c000e000
01c000e000
01c000e000
01c000e000
01c000e000
018000c000
ENDCHAR
STARTCHAR 2268
ENCODING 8808
SWIDTH 903 0
DWIDTH 40 0
BBX 40 40 0 -6
BITMAP
0030006000
003e007c00
003c007800
0078007000
0070007000
0070007000
00e0007000
00e0007000
01c0007000
01c0307180
03c03c70e0
03c0387070
07c0387038
07c070701c
0fc070701e
0fc070700f
1dc0e0700f
39c0e07007
31c0c07003
61c1c07000
c1c1807060
01c3007078
01c3007070
01c60070e0
01c40070e0
01c00071c0
01c00071c0
01c0006380
01c0000700
01c0000e00
01c0001c00
01c0003800
01c0007000
01c001e000
01c0038000
01c00f0000
01c01c0000
01c0700000
01c1c00000
018f000000
ENDCHAR
STARTCHAR 2269
ENCODING 8809
SWIDTH 903 0
DWIDTH 40 0
BBX 40 40 0 -6
BITMAP
0060030000
007c018000
007800c000
007000e000
00f0006000
00e0007000
00e0c0700c
01c0e0301e
01c0ffffff
0380e0380f
0380e0380e
0700e0380e
0700e01c0e
0f00e03c0e
0f00e03c0e
1f00e03c0e
3f00e07c0e
3700e06e0e
6700e06e0e
c700e0e60e
0700e0e70e
0700e0c70e
0700e1c38e
0700e1838e
0700e381ce
0700e701ee
0700e600fe
0700ec00fe
0700f8006e
0700f0000e
0700e0000e
0700e0000e
0700e0000e
0700e0000e
0700e0000e
0700e0001e
0700e007fe
0700e000fc
0700e00038
0600c00030
ENDCHAR
STARTCHAR 226a
ENCODING 8810
SWIDTH 903 0
DWIDTH 40 0
BBX 40 40 0 -6
BITMAP
0060018180
007c07c1f0
00781fe1e0
00707e01c0
00f1ee01c0
00e00e01c0
00e00e01c0
01c00e01c0
01c00e01c0
03800e01c0
03800e01c0
07800e01c0
07800e01c0
0f800e01c0
0f800e01c0
1f800e01c0
3b800e01c6
3387ffffff
63800e01c0
c3800e01c0
03800e01c0
03800e01c0
03800e01c0
03800c01c0
03801c01c0
03801c01c0
03801c01c0
03801801c0
03803801c0
03803801c0
03803001c0
03807001c0
03806001c0
0380e001c0
0380c001c0
0381c001c0
03818001c0
03830001c0
03860001c0
030c000180
ENDCHAR
STARTCHAR 226b
ENCODING 8811
SWIDTH 903 0
DWIDTH 40 0
BBX 40 40 0 -6
BITMAP
00600001c0
007c000fe0
007803fff0
00703ff800
00f3f9c000
00e001c000
00e001c000
01c001c000
01c001c000
038001c000
038001c000
070001c000
070001c000
0f0001c030
0f0001c078
1f07fffffc
3f0001c000
370001c000
670003e000
c70003e000
070003e000
070003b000
0700073000
0700073800
0700073800
07000e1c00
07000e1c00
07001c1e00
07001c0e00
0700380f00
0700380780
07007007c0
07007003e0
0700e001f0
0701c001fc
07038000ff
070700007f
070e000038
071c000018
0670000000
ENDCHAR
STARTCHAR 226c
ENCODING 8812
SWIDTH 903 0
DWIDTH 40 0
BBX 40 40 0 -6
BITMAP
0060300000
007c3e0000
00783c0000
0070380000
00f0380000
00e0380000
00e0700000
01c0700018
01c070003c
0380fffffe
0380e3871e
0700c3871c
0701c3871c
0f0183871c
0f0383871c
1f0307071c
3f06070e1c
370c070e1c
67000e0e1c
c7000e0e1c
07000e1c1c
07001c1c1c
07001c1c1c
070038381c
070038381c
070070701c
070070701c
0700e0e01c
0700c0e01c
070181c01c
070301c03c
0706038038
0700070038
07000e0078
07001c0070
07003800f0
0700707fe0
0700c00fc0
0700000380
0600000300
ENDCHAR
STARTCHAR 226d
ENCODING 8813
SWIDTH 903 0
DWIDTH 40 0
BBX 40 40 0 -6
BITMAP
0060000000
007c0000c0
00780001e0
00707ffff0
00f00001f0
00e00003c0
00e0000380
01c0000700
01c0060600
0380038c00
038001d800
070000f000
070000f000
0f0000700c
0f0000301e
1f07ffffff
3f0000701f
370000701c
6700007018
c700007030
0700007020
0700007000
0700007000
0700007000
0700007000
0700007000
0700007000
0700007000
0700007000
0700007000
0700007000
0700007000
0700007000
0700007000
0700007000
070000f000
07003ff000
070007e000
070001c000
0600018000
ENDCHAR
STARTCHAR 226e
ENCODING 8814
SWIDTH 903 0
DWIDTH 40 0
BBX 40 40 0 -6
BITMAP
0060000000
007c000018
007800003c
0073fffffe
00f000e000
00e000e000
00e000e000
01c000e000
01c000e000
038000e000
038000e000
070000e000
070000e000
0f0000e000
0f0000e000
1f0000e000
3f0000e000
370000e030
670000e078
c701fffffc
070000e000
070000e000
070000e000
070000e000
070000e000
070000e000
070000e000
070000e000
070000e000
070000e000
070000e000
070000e000
070000e000
070000e000
070000e000
070000e00c
070000e01e
070fffffff
0700000000
0600000000
ENDCHAR
STARTCHAR 226f
ENCODING 8815
SWIDTH 903 0
DWIDTH 40 0
BBX 40 40 0 -6
BITMAP
0060000000
007c000000
0078c00030
0070e00078
00f0fffffc
00e0e00000
00e0e00000
01c0e00000
01c0e00000
0380e00000
0380e00000
0700e000c0
0700e001e0
0f00fffff0
0f00e200f0
1f00e200e0
3f00e200e0
3700e300e0
6700e301c0
c700e101c0
0700e181c0
0700e18380
0700e08380
0700e0c380
0701c0c700
0701c06700
0701c06e00
0701c07e00
0701803c00
0703803c00
0703807e00
0703007f00
070700e780
070601c3e0
070e0381f8
070c0700ff
07180e007f
07301c0038
0760700018
0601c00000
ENDCHAR
STARTCHAR 2270
ENCODING 8816
SWIDTH 903 0
DWIDTH 40 0
BBX 40 40 0 -6
BITMAP
00600c0000
007c0f8000
00780f0000
00700e0000
00f00e0000
00e00e0000
00e00e000c
01c00e001e
01cfffffff
03800e0000
03800e0000
07000e0000
07000e0000
0f000e0000
0f001c0060
1f001c00f0
3f001ffff8
37001c00f8
67001e00e0
c7003a00e0
07003b01c0
07003901c0
07003181c0
0700718380
070070c380
070060c700
0700e06700
0700e07e00
0700c03e00
0701c03c00
0701803e00
0703807700
070300e380
070601c1e0
070c0380f8
071807007f
07000e003f
070038001e
0700e00006
0607800000
ENDCHAR
STARTCHAR 2271
ENCODING 8817
SWIDTH 903 0
DWIDTH 40 0
BBX 40 40 0 -6
BITMAP
0060c00000
007cf80000
0078f00000
0070e00060
00f0e000f0
00e1fffff8
00e1c00000
01c3800000
01c3800000
0387000000
0386000180
070cffffc0
0718000000
0f00000000
0f00000000
1f00000180
3f000003c0
3707ffffe0
67000001e0
c7000001c0
07000001c0
07000001c0
07000001c0
07000001c0
07000001c0
07000001c0
07000001c0
07000001c0
07000000e0
07000000e0
07000000e0
0700000071
0700000071
0700000033
070000003b
070000001e
070000001e
070000000f
0700000007
0600000002
ENDCHAR
STARTCHAR 2272
ENCODING 8818
SWIDTH 903 0
DWIDTH 40 0
BBX 40 40 0 -6
BITMAP
0060300000
007c3e0000
00783c0000
0070380000
00f0380000
00e0700018
00e070003c
01c07ffffe
01c0e0001e
0380e0001c
0381c0001c
0701c0001c
070380001c
0f0380001c
0f0700081c
1f06001c1c
3f0cfffe1c
370800001c
670000001c
c70000001c
070000001c
070000001c
070000001c
070000001c
070000081c
0700001c1c
0700fffe1c
070000001c
070000001c
070000001c
070000003c
0700000038
0700000038
0700000078
0700000070
07000001f0
070000ffe0
0700000fc0
0700000380
0600000300
ENDCHAR
STARTCHAR 2273
ENCODING 8819
SWIDTH 903 0
DWIDTH 40 0
BBX 40 40 0 -6
BITMAP
0060060000
007c07c000
0078078000
0070070000
00f0070000
00e0070300
00e0070780
01c3ffffc0
01c00703c0
0380070380
0380070380
0700070380
0700070380
0f000e0381
0f000e0381
1f001c0383
3f001c0383
37003803c6
67007003ff
c700e0c1ff
0701c0f8fe
070700f000
071c00e000
070000e000
070000e000
070000e004
070000e00e
071fffffff
070000e000
070000e000
070000e000
070000e000
070000e000
070000e000
070000e000
070000e000
070000e000
070000e000
070000e000
060000c000
ENDCHAR
STARTCHAR 2274
ENCODING 8820
SWIDTH 903 0
DWIDTH 40 0
BBX 40 40 0 -6
BITMAP
0060000000
007c180600
00781c0f00
00701fff80
00f01c0780
00e01c0700
00e01c0700
01c01c0700
01c01c0700
03801c0700
03801c0700
0700380700
0700380780
0f007007fc
0f007003fe
1f00e001fe
3f01c00000
3703800000
67060001c0
c7007fffe0
07001001e0
07001801c0
07001801c0
07000c0380
07000c0380
0700060700
0700070700
0700038e00
070001de00
070001fc00
070000f800
070000f800
070001fe00
070003df00
0700078fe0
07001f07ff
07003c01ff
0700f000f8
0707c00038
063e000000
ENDCHAR
STARTCHAR 2275
ENCODING 8821
SWIDTH 903 0
DWIDTH 40 0
BBX 40 40 0 -6
BITMAP
0000300000
00003e0000
00003c0000
0000780000
00007c0000
0000f60000
0001e30000
0001c18000
000380c000
0007007000
000e003800
001c001c00
0038000f00
00700007c0
00e00023f0
01c00071ff
039ffff87f
0e00000038
3800000018
e000000000
0000000000
0000000000
00000000c0
00000001e0
0ffffffff0
0001e00000
0001c00000
0003800000
0007000000
000e001800
001c000c00
0038000600
0070000300
00e0000180
01c000ffc0
03803ff0e0
07fff800f0
07fe000070
03c0000070
01c0000030
ENDCHAR
STARTCHAR 2276
ENCODING 8822
SWIDTH 903 0
DWIDTH 40 0
BBX 40 40 0 -6
BITMAP
0000300000
00003c0000
0000780000
0000780000
0000fc0000
0000e60000
0001c30000
0003818000
000700c000
000e007000
001c003800
0038001c00
0070000f00
00e00007c0
01c00003f8
03800001ff
076000067f
0e7fffff3c
387000000c
e070000000
0070000000
0070000000
0070000000
0070000000
0070000000
0070000800
0070001c00
007ffffe00
0070000000
0070000000
0070000000
0070000000
0070000000
0070000000
0070000000
0070000100
0070000380
00ffffffc0
0060000000
0000000000
ENDCHAR
STARTCHAR 2277
ENCODING 8823
SWIDTH 903 0
DWIDTH 40 0
BBX 40 40 0 -6
BITMAP
0000300000
00003e0000
00003c0000
0000380000
0000380000
00007c0000
0000740000
0000e60000
0000e30000
0001c18000
000381c000
000700f000
000e007800
001c003e00
0038001fc0
00e00007ff
01c00003ff
07000000f8
1c00000038
f030003000
003e003e00
003c003c00
0038003800
0038003800
0038003800
0038003800
0038003c00
007c007c00
0076007600
0073007200
00e380e300
00e1c0e180
01c1e1c0c0
01c0e1c0e0
0380e38078
070067003f
0e000e001f
1c001c000e
3800700006
6001c00000
ENDCHAR
STARTCHAR 2278
ENCODING 8824
SWIDTH 903 0
DWIDTH 40 0
BBX 40 40 0 -6
BITMAP
0000030000
0006018000
0007c0e000
000f807000
000f003800
001e001c00
003c000f00
0078000780
00f06003c0
01e07801e0
0380f000f8
0701e0007f
0e01c0003f
380380601c
e00700300c
000e001c00
001c000e00
0038000700
0070000380
00e00003c0
01c1ffffc0
07fffdc1c0
07ff01c1c0
03c701c0c0
018701c000
000701c000
000701c000
000701c000
000701c000
000f01c000
000e01c001
001e01c001
001c01c003
003801c003
007001c006
00e001e00e
01c001ffff
070000ffff
1c00007ffe
7000000000
ENDCHAR
STARTCHAR 2279
ENCODING 8825
SWIDTH 903 0
DWIDTH 40 0
BBX 40 40 0 -6
BITMAP
0001c00000
0000600000
0000300000
0000780000
00007c0000
0000e60000
0001c30000
0001c18000
000380c000
0007007000
000e003800
001c001e00
0038000f80
00700007f0
00e00003ff
01c00000ff
038000007c
0e0000001c
3800000c00
e0c0001e00
00ffffff00
00e0000f00
00e0000e00
00e0000e00
00e0000e00
00e0000e00
00e0000e00
00e0000e00
00fffffe00
00e0000e00
00e0000e00
00e0000e00
00e0000e00
00e0000e00
00e0000e00
00e0000e00
00fffffe00
00e0000e00
00e0000c00
00c0000000
ENDCHAR
STARTCHAR 227a
ENCODING 8826
SWIDTH 903 0
DWIDTH 40 0
BBX 40 40 0 -6
BITMAP
0000000060
00000000f0
1ffffffff8
0000380000
0000380000
0000380000
0000380000
0000380200
0000380700
01ffffff80
0000380000
0000380000
0000380000
0000380000
0000380010
0000380038
3ffffffffc
0000000000
0000000000
00000c0000
0000060000
0003030000
0003e18000
0003c18000
000380c000
000700e000
0007006000
000f003000
000e003800
001e001c00
001c000e00
0038000700
0070000380
00e00001e0
01c00000f8
038000007f
070000003f
0e0000001c
380000000c
6000000000
ENDCHAR
STARTCHAR 227b
ENCODING 8827
SWIDTH 903 0
DWIDTH 40 0
BBX 40 40 0 -6
BITMAP
0000000000
0000000018
000000003c
7ffffffffe
0000380000
0000380000
0000380000
0000380000
0000380300
0300380780
03ffffffc0
03803803c0
0380380380
0380380380
0380380380
0380380380
0380380380
038038038c
7ffffffffe
0380380380
0380380380
0380380380
0380380380
0380380380
0380380384
038038038e
ffffffffff
0380000380
0380000380
0380000380
0380000380
0380000380
0380000380
0380000380
0380000380
0380000780
038001ff80
0380003f00
0380000e00
0300000c00
ENDCHAR
STARTCHAR 227c
ENCODING 8828
SWIDTH 903 0
DWIDTH 40 0
BBX 40 40 0 -6
BITMAP
0000000000
0000000010
0000000038
6000fffffc
3800380700
1c00380700
0e00380700
0f00380700
0700700700
0300700700
0020700700
0020700700
0060e00700
0040e00700
00c0e00704
00c0e0070e
0181ffffff
0180c00f00
0380001f00
0300001f00
0300003f00
0700007700
0600007700
0e0000e700
0e0001c700
1c0001c700
fc00038700
7c00070700
38000e0700
38001c0700
1c00380700
1c00700700
1c00e00700
1e01c00700
1e03800700
1e0e000f00
1e3807ff00
0c00007e00
0000001c00
0000001800
ENDCHAR
STARTCHAR 227d
ENCODING 8829
SWIDTH 903 0
DWIDTH 40 0
BBX 40 40 0 -6
BITMAP
0000030000
000003e000
000003c000
6000038000
3800038000
1c00038000
0e00038000
0f00038180
07000383c0
0601ffffe0
00000381e0
00800381c0
00800381c0
00800381c0
01800381c0
01800381c0
01800381c0
03000381c0
03000381c0
03000381c4
06000381ce
060fffffff
0600070000
0e00070000
0c00070000
1c00071800
fc000e0e00
78000e0700
38000e0380
38001c01c0
1c001c00e0
1c003800f0
1c00380078
1e00700078
1e00e0003c
1e01c0003c
1e0380001c
0c0700001c
001c00000c
0070000000
ENDCHAR
STARTCHAR 227e
ENCODING 8830
SWIDTH 903 0
DWIDTH 40 0
BBX 40 40 0 -6
BITMAP
000000c000
000000f800
000000f000
600000e000
380000e000
1c0000e000
0e0000e000
0f0000e018
070600e03c
0607fffffe
000700e01e
008700e01c
008700e01c
008700e01c
018700e01c
018700e01c
018700e01c
030700e01c
030700e01c
030700e01c
060700e01c
0607fffffc
060700e01c
0e0600e018
0c0000e000
1c0000e000
fc0000e000
780000e000
380000e000
380000e000
1c0000e000
1c0000e000
1c0000e000
1e0000e000
1e0000e000
1e0000e000
1e0000e000
0c0000e000
000000e000
000000c000
ENDCHAR
STARTCHAR 2321
ENCODING 8993
SWIDTH 903 0
DWIDTH 40 0
BBX 40 40 0 -6
BITMAP
0000000380
0000001fc0
000001ffe0
60001ff800
3801fce000
1c0000e000
0e0000e000
0f0000e000
070000e000
030000e000
002000e000
002000e000
006000e000
004000e018
00c000e03c
00c7fffffe
018000e000
018000e000
038001e000
030001f000
030001f000
070001d000
0600039800
0e00039800
0e00038c00
1c00070c00
fc00070600
7c000e0700
38000e0300
38001c0380
1c003801c0
1c003801e0
1c007000f0
1e00e00078
1e01c0007c
1e0380003f
1e0700001f
0c0e00000e
0038000006
00e0000000
ENDCHAR
STARTCHAR 2322
ENCODING 8994
SWIDTH 903 0
DWIDTH 40 0
BBX 40 40 0 -6
BITMAP
0000000000
0000000300
0600000780
07ffffffc0
07000003c0
0700000380
0700000380
0700000380
0700008380
070001c380
071fffe380
0700000380
0700000380
0700000380
0700000380
0700000380
0700002380
0700007380
077ffffb80
0700e00380
0700e00380
0700e00380
0701c00380
0701c00380
0703800380
0703800380
07070301c0
0e060181c0
0e0e00c1c0
0e1c00e1c0
1c381ff0e1
1c7ffc78e1
187f8038e3
3838003873
3018001876
700000003e
600000003e
c00000001f
800000000f
0000000006
ENDCHAR
STARTCHAR 2323
ENCODING 8995
SWIDTH 903 0
DWIDTH 40 0
BBX 40 40 0 -6
BITMAP
0000c00000
0000700000
0000380000
00003c0000
00001c0000
00001c000c
00000c001e
ffffffffff
0000000000
0000000000
0000000000
0000000000
0000003000
1800003c60
1f1800787c
1e0e007078
1c0700f070
1c0380e070
1c01c1c070
1c00e38070
1c00770070
1c003e0070
1c001e0070
1c003f0070
1c00738070
1c00e1c070
1c01c0f070
1c03807870
1c07003c70
1c0e001e70
1c1c000e70
1c38000670
1ce0000070
1c00000070
1c00000070
1c00000070
3ffffffff0
1800000070
0000000060
0000000000
ENDCHAR
STARTCHAR 2324
ENCODING 8996
SWIDTH 903 0
DWIDTH 40 0
BBX 40 40 0 -6
BITMAP
0060000018
007c00001f
007800001e
007000001c
007000001c
007000181c
0070001f1c
0070601e1c
0070f01c1c
1ffff81c1c
0070781c1c
0070701c1c
0070701c1c
0070701c1c
0070701c1c
0070701c1c
0070701c1c
0070701c1c
0070701c1c
0070701c1c
0070731c1c
ffffff9c1c
00e0001c1c
00e0001c1c
00e0001c1c
00e0001c1c
01c6001c1c
01c3801c1c
01c1c01c1c
0380e0181c
038070001c
070078001c
07003c001c
0e001c001c
0e001e001c
1c000e003c
18000e0ffc
30000601f8
6000000070
0000000060
ENDCHAR
STARTCHAR 2325
ENCODING 8997
SWIDTH 903 0
DWIDTH 40 0
BBX 40 40 0 -6
BITMAP
0600000018
078000001f
070000001e
070000001c
060030001c
0e0078301c
0ffffc3e1c
1c00003c1c
180000381c
300000381c
600040381c
c000e0381c
1ffff0381c
000000381c
000000381c
000000381c
000000381c
0001c0381c
3fffe0381c
0003e0381c
000780381c
000e00381c
001c00381c
003800381c
007000381c
00e000381c
01c000381c
038000381c
070000381c
0e0000301c
1c0004001c
380004001c
38000c001c
70000c001c
700018001c
780038003c
7ffffc0ffc
3ffffc01f8
1ffff80070
0000000060
ENDCHAR
STARTCHAR 2326
ENCODING 8998
SWIDTH 903 0
DWIDTH 40 0
BBX 40 40 0 -6
BITMAP
0000000000
0000000600
0000000f00
00ffffff80
0000e00780
0000e00700
0000e00700
0000e00700
0000e00700
0001c00700
0001c00700
0003800700
0003800f00
0007000e00
000e001e00
001c0ffc00
003801f800
0070007000
01c0006000
0700000000
0000000000
0000c00018
0001e0003c
7ffff7fffe
01c0f0381e
01c0e0381c
01c0e0381c
01c0e0381c
01c0e0381c
0380e0701c
0380e0701c
0300e0601c
0700e0e01c
0601e0c03c
0e01c1c038
0c03c18078
19ff833ff0
303f0607e0
600e0c01c0
400c180180
ENDCHAR
STARTCHAR 2327
ENCODING 8999
SWIDTH 903 0
DWIDTH 40 0
BBX 40 40 0 -6
BITMAP
0180000018
00c000001f
00e000001e
007000001c
007800001c
003800301c
0038083e1c
00181c3c1c
fffffe381c
0001c0381c
0001c0381c
0001c0381c
0001c0381c
3001c0381c
1801c0381c
0c0380381c
060380381c
070380381c
030700381c
018700381c
01c700381c
00ce00381c
00ee00381c
007c00381c
007c00381c
003c00381c
007e00381c
007f00381c
00e700381c
00e380301c
01c3c0001c
01c1c0001c
0381e0001c
0380e0001c
0700f0001c
0e0070003c
1c00700ffc
38003001f8
6000000070
0000000060
ENDCHAR
STARTCHAR 2328
ENCODING 9000
SWIDTH 903 0
DWIDTH 40 0
BBX 40 40 0 -6
BITMAP
0000003000
0000003e00
0000003c00
0000803800
0001c03800
3fffe03800
0000003800
0000003800
0000003800
0000003800
000000380c
000000381e
00000fffff
000040380f
0000e0380e
fffff0380e
00e000380e
00e000380e
01c000380e
01c000380e
018000380e
038000700e
030000700e
070600700e
060380700e
0c01c0e00e
0c01c0e00e
1800e0e00e
3000e1c00e
601ff1c01e
fffc73801c
ff8073801c
7e0037003c
3800060038
18000e0078
00001c00f0
000038ffe0
0000700fc0
0000e00380
0003800300
ENDCHAR
STARTCHAR 2329
ENCODING 9001
SWIDTH 903 0
DWIDTH 40 0
BBX 40 40 0 -6
BITMAP
0000300000
00003e0000
00003c0000
0000380000
0000380000
0000380000
0000380060
00003800f0
1ffffffff8
0000380000
0000380000
0000380000
0000380000
00c0380c00
00f8380f80
00f0380f00
00e0380e00
00e0380e00
00e0300e00
00e0000e00
00e0000e00
00e1000e04
00e3800e0e
ffffcfffff
00e0000e00
00e0000e00
00e0000e00
00e0000e00
00e0000e00
00e0000e00
01c0000e00
01c0000e00
01c0000e00
0380000e00
0380000e00
0700000e00
0600000e00
0c00000e00
1800000e00
3000000c00
ENDCHAR
STARTCHAR 232a
ENCODING 9002
SWIDTH 903 0
DWIDTH 40 0
BBX 40 40 0 -6
BITMAP
0000000000
0000300000
00003e0000
00003c0000
0000380000
0000380000
0000380000
0000380060
00003800f0
1ffffffff8
0000380000
0000380000
0000380000
0000380000
00c0380c00
00f8380f80
00f0380f00
00e0380e00
00e0380e00
00e0300e00
00e0000e00
00e0000e00
00e0000e0c
00e0000e1e
ffffffffff
00e0000e00
00e0000e00
00e0000e00
00e0000e00
00e0000e00
00e0000e00
00e0000e00
00e0000e00
00e0000e00
00e0000e00
00e0000e00
00fffffe00
00e0000e00
00c0000c00
0000000000
ENDCHAR
STARTCHAR 232b
ENCODING 9003
SWIDTH 903 0
DWIDTH 40 0
BBX 40 40 0 -6
BITMAP
0600030000
07c003e000
078003c000
0700038000
0700038000
0700038000
0700038000
0700038000
0700038000
0710038000
07380380c0
fffc0381e0
0700fffff0
07000380f0
07000380e0
07000380e0
07000380e0
07004380e0
07004380f8
0700c380ec
0700c380ee
0701c380e7
07018380e7
07038700e7
07078700e3
07070700e0
07060e00e0
07000e00e0
07000e00e0
07001c00e0
07001c01e0
07003801c0
07007001c0
07007003c0
0700e00380
0701c00f80
070381ff00
0707003e00
070e001c00
0618001800
ENDCHAR
STARTCHAR 232c
ENCODING 9004
SWIDTH 903 0
DWIDTH 40 0
BBX 40 40 0 -6
BITMAP
0000000000
0000000030
0000000078
3ffffffffc
0000078000
00000f0000
00001e0000
00003c0000
000079c000
0000f87800
0001f81f00
0007b807c0
000e3801e0
00383800f0
00e0380070
0380380030
0e00380000
0000380000
0000380000
0000380000
0000300000
0000000000
0000000000
0000300000
00003c0000
0000380000
0000380000
0000380018
000038003c
7ffffffffe
0000380000
0000380000
0000380000
0000380000
0000380000
0000380000
0000380000
0000380000
0000380000
0000300000
ENDCHAR
STARTCHAR 232d
ENCODING 9005
SWIDTH 903 0
DWIDTH 40 0
BBX 40 40 0 -6
BITMAP
0000000000
3000000060
3e003000f0
3c003ffff8
3800380000
3800380000
3800380000
3800380000
3800380000
3800380000
3800380000
3800380000
3800380000
3800380000
3800380000
3800380000
3800380000
3800380030
3800380078
7ffffffffc
300038003c
0000380038
0000380038
0000380038
0000380038
0000380038
0000380038
0000380038
0000380038
0000380038
0000380038
0000380038
0000380038
0000380038
0000380038
0000380038
0000380038
3ffff80030
0000300000
0000000000
ENDCHAR
STARTCHAR 232e
ENCODING 9006
SWIDTH 903 0
DWIDTH 40 0
BBX 40 40 0 -6
BITMAP
0000000000
0c0000000c
0e0000001e
0fffffffff
0e00000000
0e00000000
0e00000010
0e00000038
0efffffffc
0e000c0000
0e000f8000
0e000f0000
0e001e0000
0e001c0000
0e00380000
0e00383000
0e00703e00
0e00e03c00
0e01c07800
0e03807000
0e0700e000
0e0781e000
1c01e1c000
1c007b8000
1c001f0000
1c000e0000
1c001c0000
1800380000
3800701800
3800e00e00
3801c00700
3003800380
30070001c0
700e00ffe0
603fffe0f0
603ffc0070
c01f800070
c00e000030
8006000000
0000000000
ENDCHAR
STARTCHAR 232f
ENCODING 9007
SWIDTH 903 0
DWIDTH 40 0
BBX 40 40 0 -6
BITMAP
0000000000
0c00000018
0e0000003c
0ffffffffe
0e00000000
0e00000000
0e00060000
0e0007c000
0e00078000
0e00070000
0e00070000
0e00070000
0e00070000
0e00070000
0e00070000
0e00070000
0e000700c0
0e000701e0
0e3ffffff0
0e00070000
0e00070000
0e00070000
1c00070000
1c00070000
1c00071800
1c00070e00
1c00070780
18000703c0
38000701e0
38000700e0
3800070060
3000070000
3000070000
7000070000
6000070018
600007003c
c1fffffffe
c000000000
8000000000
0000000000
ENDCHAR
STARTCHAR 2330
ENCODING 9008
SWIDTH 903 0
DWIDTH 40 0
BBX 40 40 0 -6
BITMAP
0000000000
0000000000
0c0000000c
0e0000001e
0fffffffff
0e00000000
0e00000000
0e00060000
0e0007c000
0e00078000
0e000f0000
0e000e8000
0e001ec000
0e001c6000
0e00383800
0e00701c00
0e00e00e00
0e01c00780
0e038003e0
0e070001fe
0e0e00087e
0e38001c38
1ce0fffe18
1c00000000
1c00000000
1c00000300
1c00000780
1807ffffc0
38000007c0
3800000700
3800000e00
3000000e00
3000001c00
7000001800
6000003800
6000003000
c000007000
c000006000
800000e000
000000c000
ENDCHAR
STARTCHAR 2331
ENCODING 9009
SWIDTH 903 0
DWIDTH 40 0
BBX 40 40 0 -6
BITMAP
0000000000
0000000060
00000000f0
3ffffffff8
0000000078
0000c00070
0000f80070
0000f00070
0000e00070
0000e00038
0000e00038
0000e00838
0000e01c1c
0ffffffe1c
0000e0000e
0000e0000e
0000e00007
0000e00003
0000e00000
0000e00300
0000e00780
3fffffffc0
0001c00000
0001c00000
0003800000
0007000000
0007018000
000e00c000
001c007000
0038003800
0070001c00
00e0000e00
01c0000f00
0380000780
07003fff80
0ffffc03c0
0fff0001c0
07c00001c0
03800000c0
0180000000
ENDCHAR
STARTCHAR 2332
ENCODING 9010
SWIDTH 903 0
DWIDTH 40 0
BBX 40 40 0 -6
BITMAP
0000300000
00003e0000
00003c0000
0000380000
00003800c0
0c003801e0
0ffffffff0
0e003800f0
0e003800e0
0e003800e0
0e003800e0
0e003800e0
0fffffffe0
0c003800c0
0000380000
0000380000
0000380000
0000380000
0000300300
0000000780
3fffffffc0
00c00007c0
0060000780
0070000f00
0038001e00
001c003c00
000e007800
000700f000
000381e000
0001e78000
0000ff0000
00007e0000
0000ff8000
0001f7e000
0007c1fc00
001f007fc0
007c001fff
03f00007ff
1f800000f8
7c00000038
ENDCHAR
STARTCHAR 2333
ENCODING 9011
SWIDTH 903 0
DWIDTH 40 0
BBX 40 40 0 -6
BITMAP
0000000000
0000001800
0000003c00
03fffffe00
0000003e00
0000007800
006000f000
001c01e000
000703c000
0001c78000
0000ff0000
00007f0000
0000f7c000
0001e1f000
0007807c00
001e001e00
0078000f00
03c0000700
1e00000300
0000000000
0003000030
0007800078
3fffc7fffc
0003c0003c
0003808038
000700c070
0c070040f0
060e0060e0
038e0031c0
01dc001b80
00fc001f80
0078000f00
007c000f80
00ee001dc0
01c70038f8
038780707f
070380e03f
0e0183801c
38000e000c
6000380000
ENDCHAR
STARTCHAR 2334
ENCODING 9012
SWIDTH 903 0
DWIDTH 40 0
BBX 40 40 0 -6
BITMAP
0000000000
0000000018
000180001f
0000e0003e
0000700078
6030380070
70781c00e0
7ffc0e01c0
703c070380
7038038700
703803ce00
703801dc00
703800f800
7038007000
7038007000
7038007000
7038007000
7038007000
7038007000
7038007000
7038007000
7038007000
7038007000
7038007000
7038007000
7038007000
7ff8007000
7038007000
7038007000
7030007000
6000007000
0000007000
0000007000
0000007000
0000007000
0000007000
0000007000
0000007000
0000007000
0000006000
ENDCHAR
STARTCHAR 2335
ENCODING 9013
SWIDTH 903 0
DWIDTH 40 0
BBX 40 40 0 -6
BITMAP
0000000000
0000000000
0000000000
0000000000
0000000030
0030000078
6078fffffc
7ffc007000
703c007000
7038007000
7038007000
7038007000
7038007000
7038007000
7038007000
7038007000
7038007000
7038007000
7038007000
7038007000
7038007000
7038007000
7038007000
7038007000
7038007000
7038007000
7038007000
7ff8007000
7038007000
7030007000
7000007000
6000007000
0000007000
0000007000
000000700c
000000701e
0007ffffff
0000000000
0000000000
0000000000
ENDCHAR
STARTCHAR 2336
ENCODING 9014
SWIDTH 903 0
DWIDTH 40 0
BBX 40 40 0 -6
BITMAP
0000000000
000000000c
000060001e
00007fffff
000070000f
603070000e
707870000e
7ffc70000e
703c70000e
703870000e
703870000e
703870000e
703870000e
703870000e
703870000e
70387ffffe
703870000e
703870000c
7038700000
7038700000
7038700000
7038700000
7038700000
7038700000
7038700000
7038700000
7ff8700000
7038700000
7038e00000
7030e00000
6000e00000
0000e00000
0001c00000
0001c00000
0001800000
0003800000
0003000000
0006000000
000c000000
0018000000
ENDCHAR
STARTCHAR 2337
ENCODING 9015
SWIDTH 903 0
DWIDTH 40 0
BBX 40 40 0 -6
BITMAP
0000000000
0000000380
0000000fe0
0000003ff0
000001fc00
60301ff000
7078fc7000
7ffc007000
703c007000
7038007000
7038007000
7038007000
7038007000
7038007000
7038007000
7038007000
703800700c
703800701e
703bffffff
7038007000
7038007000
7038007000
7038007000
7038007000
7038007000
7038007000
7ff8007000
7038007000
7038007000
7030007000
6000007000
0000007000
0000007000
0000007000
0000007000
0000007000
0000007000
0000007000
0000007000
0000006000
ENDCHAR
STARTCHAR 2338
ENCODING 9016
SWIDTH 903 0
DWIDTH 40 0
BBX 40 40 0 -6
BITMAP
0000000000
0000000600
0180000f00
01ffffff80
01c0000780
01c0000700
01c0000700
01c0000700
01c0000700
01c0000700
01c0000700
01c0000700
01c0000700
01c0000700
01c0000700
01ffffff00
01c0000700
0180600600
00007c0000
0000780000
0000700000
0000700000
0000700000
000070000c
000070001e
ffffffffff
0000e40000
0000e60000
0001c30000
0001c18000
000380e000
0007007000
000e003c00
001c001f00
0038000fc0
00700007ff
01e00003ff
07800000f0
1e00000070
7000000000
ENDCHAR
STARTCHAR 2339
ENCODING 9017
SWIDTH 903 0
DWIDTH 40 0
BBX 40 40 0 -6
BITMAP
0000000000
0000000000
0000000000
0000000000
0006000018
600f06003c
7fff87fffe
700787001e
700707001c
700707001c
700707001c
700707001c
700707001c
700707001c
700707001c
700707001c
700707001c
700707001c
700707001c
700707001c
700707001c
700707001c
700707001c
700707001c
700707001c
700707001c
700707001c
700707001c
700707001c
700707001c
700707001c
700707001c
700707001c
7fff07fffc
700707001c
700707001c
6006060018
0000000000
0000000000
0000000000
ENDCHAR
STARTCHAR 233a
ENCODING 9018
SWIDTH 903 0
DWIDTH 40 0
BBX 40 40 0 -6
BITMAP
0000000000
000000000c
000000001e
0003ffffff
000000e000
603000e000
707800e000
7ffc00e000
703c00e000
703800e000
703800e000
703800e000
703800e000
703800f000
703800fc00
703800ef00
703800e780
703800e3c0
703800e1e0
703800e0f0
703800e070
703800e030
703800e000
703800e000
703800e000
703800e000
7ff800e000
703800e000
703800e000
703000e000
600000e000
000000e000
000000e000
000000e000
000000e000
000000e000
000000e000
000000e000
000000e000
000000c000
ENDCHAR
STARTCHAR 233b
ENCODING 9019
SWIDTH 903 0
DWIDTH 40 0
BBX 40 40 0 -6
BITMAP
0000000000
0000000600
00c0000f00
00ffffff80
00e0000780
00e0000700
00e0000700
00e0000700
00e0000700
00e0000700
00e0000700
00e0000700
00e0000700
00e0000700
00e0000700
00ffffff00
00e0000700
00c0000600
0000000000
0000000000
0000000000
0000000000
00000000c0
06000001e0
07fffffff0
07000000f0
07000000e0
07000000e0
07000000e0
07000000e0
07000000e0
07000000e0
07000000e0
07000000e0
07000000e0
07000000e0
07000000e0
07ffffffe0
07000000e0
06000000c0
ENDCHAR
STARTCHAR 233c
ENCODING 9020
SWIDTH 903 0
DWIDTH 40 0
BBX 40 40 0 -6
BITMAP
0000000000
0000000000
0000030000
000003e000
000003c000
6060038000
70f0078000
7ff8070000
7078070000
70700e0000
70700e0000
70700e0000
70701c0000
70701c3000
7070383e00
7070383c00
7070703800
7070603800
7070e07000
7070c07000
7071807000
707300e000
707000e000
707000e000
707001c000
707001c180
70700380c0
7ff0038060
7070070070
7060070038
70000e001c
60000c001c
00001c000e
000038000e
0000700fff
0001fffe07
0001ffe007
0000fc0007
0000700003
0000300000
ENDCHAR
STARTCHAR 233d
ENCODING 9021
SWIDTH 903 0
DWIDTH 40 0
BBX 40 40 0 -6
BITMAP
0000000000
3000000018
380000003c
3ffffffffe
380000001e
380600c01c
3807c0f81c
380780f01c
380700e01c
380700e01c
380700e01c
380700e01c
380700e01c
380700e01c
380700e01c
380700e11c
380700e39c
3bffffffdc
380700e01c
380700e01c
380700e01c
380700e01c
380700e01c
380700e01c
380e00e01c
380e00e01c
380e00e01c
381c00e01c
381c00e01c
383800e01c
383800e01c
387000e01c
386000e01c
38c000e01c
398000c01c
380000001c
3ffffffffc
380000001c
3800000018
3000000000
ENDCHAR
STARTCHAR 233e
ENCODING 9022
SWIDTH 903 0
DWIDTH 40 0
BBX 40 40 0 -6
BITMAP
0000000000
3000000018
380000003c
3ffffffffe
380000001e
380003001c
380003e01c
380003c01c
380003801c
380003801c
380003801c
380003821c
380003871c
39ffffff9c
380003801c
380003801c
380003801c
383003801c
381803801c
380c03801c
380e03801c
380703801c
380783801c
380383801c
380383801c
380183801c
380003801c
380003801c
380003801c
380007801c
3803ff801c
38003f001c
38000e001c
38000c001c
380000001c
380000001c
3ffffffffc
380000001c
3800000018
3000000000
ENDCHAR
STARTCHAR 233f
ENCODING 9023
SWIDTH 903 0
DWIDTH 40 0
BBX 40 40 0 -6
BITMAP
0000018000
030001f000
03e001e000
03c001c000
038001c000
038001c000
038001c000
038001c000
038001c000
038001c000
038001c000
038801c000
039c01c000
7ffe01c000
038001c000
038001c060
038001c0f0
038001fff8
038001c000
038001c000
038001c000
038001c000
038001c000
038001c000
038001c000
038001c000
038701c000
03bc01c000
03f001c000
0fc001c000
ff0001c000
fc0001c000
700001c000
300001c000
000001c000
000001c00c
000001c01e
000fffffff
0000000000
0000000000
ENDCHAR
STARTCHAR 2340
ENCODING 9024
SWIDTH 903 0
DWIDTH 40 0
BBX 40 40 0 -6
BITMAP
0000300000
00003e0000
00003c0000
0000380000
0000380000
0000380000
000070000c
000070001e
ffffffffff
0000e60000
0001e30000
0001c1c000
000380e000
0007007800
000e003e00
001c001f80
0038000ff8
00700003ff
01e00001ff
0780300070
1e003e0030
f0003c0000
0000380000
0000380000
0000380000
00003800c0
00003801e0
0ffffffff0
0000380000
0000380000
0000380000
0000380000
0000380000
0000380000
0000380000
000038000c
000038001e
ffffffffff
0000000000
0000000000
ENDCHAR
STARTCHAR 2341
ENCODING 9025
SWIDTH 903 0
DWIDTH 40 0
BBX 40 40 0 -6
BITMAP
0000003000
000c003e00
003f003c00
00ff803800
03f0003800
1fc0003800
79c0003800
01c0003800
01c0003800
01c0003800
01c0003800
01c0003800
01c0003800
01c0003800
01c2003800
01c7003830
ffff803878
01c03ffffc
01c0003800
01c0003800
01c0003800
01c0003800
01c0003800
01c0003800
0380003800
0380003800
0380003800
0380003800
0700003800
0700003800
0700003800
0e00003800
0e00003800
1c00003800
1c00003800
380000380c
300000381e
60007fffff
c000000000
0000000000
ENDCHAR
STARTCHAR 2342
ENCODING 9026
SWIDTH 903 0
DWIDTH 40 0
BBX 40 40 0 -6
BITMAP
00000001c0
03000007e0
03e0003ff0
03c001fe00
03800ff800
03807e3800
0380003800
0380003800
0380003800
0380003800
0380003800
0388003800
039c003800
7ffe00380c
038000381e
0381ffffff
0380003800
0380003800
0380003800
0380003800
0380003800
0380003800
0380003800
0380003800
0380003800
0380003800
0387003800
03bc003800
03f0003800
0fc0003800
ff00003800
fc00003800
7000003800
3000003800
0000003800
0000003800
0000003800
0000003800
0000003800
0000003000
ENDCHAR
STARTCHAR 2343
ENCODING 9027
SWIDTH 903 0
DWIDTH 40 0
BBX 40 40 0 -6
BITMAP
0030003000
003e003e00
003c003c00
0038003800
0038003800
3038003800
1838003800
0c38003800
0e38003800
0738003800
07b8003800
03b8003800
03b8003800
01b8003800
0038003800
003800380c
003800381e
0039ffffff
0038003800
0038003800
0038003800
0038003800
0038003800
0038003800
0038003800
00f8003800
03b8003800
0f38003800
1e38003800
fc38003800
f838003800
7038003800
3038003800
0038003800
0038003800
0038003818
003800383c
00387ffffe
0038000000
0030000000
ENDCHAR
STARTCHAR 2344
ENCODING 9028
SWIDTH 903 0
DWIDTH 40 0
BBX 40 40 0 -6
BITMAP
000c000000
000f800000
000f000000
001e000c00
001c001e00
003fffff00
0038003f00
007c007c00
00e300f800
01c181e000
0380e3c000
07007f8000
0c007f0000
0000f7c000
0003e1f800
000f807f80
003e001fff
00f83007ff
03c03e01f0
1f003c0070
f800380000
0000380400
0180380e00
01ffffff00
01c0380000
01c0380000
01c0380000
01c0380000
01c0380000
01c0380300
01c0380780
03ffffffc0
0180380000
0000380000
0000380000
0000380000
0000380000
0000380000
0000380000
0000300000
ENDCHAR
STARTCHAR 2345
ENCODING 9029
SWIDTH 903 0
DWIDTH 40 0
BBX 40 40 0 -6
BITMAP
0000003800
000001fc00
00000ffe00
00007f8000
000ffc0000
00fc700000
0000700000
0000700000
0000e00000
0000e00030
0001c00078
3ffffffffc
000380c000
0007006000
000e003800
001c000e00
0038000780
00f00003f0
01c00001ff
078000007f
1e0c00c038
f00f80f818
000f00f000
000e00e000
000e00e000
000e00e000
000e00e000
000e00e000
000e00e000
000e00e000
000e00e000
000e00e000
000e00e000
001c00e000
001c00e000
003800e000
003000e000
006000e000
00c000e000
018000c000
ENDCHAR
STARTCHAR 2346
ENCODING 9030
SWIDTH 903 0
DWIDTH 40 0
BBX 40 40 0 -6
BITMAP
0000600000
00007c0000
0000780000
0000f00000
0000e00030
0001c00078
3ffffffffc
0003818000
000780c000
0007006000
000e003800
001e001c00
001c000f00
0038000780
00700003e0
00e00001f8
01c00000ff
038000007f
0718006038
0e1f007c18
381e007800
e01c007000
001c007000
001c007018
001c00703c
7ffffffffe
001c007000
001c007000
001c007000
001c007000
0038007000
0038007000
0038007000
0070007000
0070007000
00e0007000
00c0007000
0180007000
0300007000
0600006000
ENDCHAR
STARTCHAR 2347
ENCODING 9031
SWIDTH 903 0
DWIDTH 40 0
BBX 40 40 0 -6
BITMAP
00c0000c00
00f8000f80
00f0000f00
00e0000e00
00e0000e00
00e0000e00
00e0000e00
00e0000e00
00e0000e00
00e0000e00
00e1000e08
00e3800e1c
7fffc7fffe
00e0000e00
00e0000e00
00e0000e00
00e0000e00
00e0000e00
00e0000f00
01c0001f00
01f0001d00
01d8001d80
01dc001d80
01cc003980
038e003980
03870039c0
03870070c0
07038070c0
07038070e0
0701c0e0e0
0e01c0e070
0e00e1c070
0c00e1c078
1c00e38038
180063803c
380007001e
30000e001f
60001c000f
c000380006
0000e00000
ENDCHAR
STARTCHAR 2348
ENCODING 9032
SWIDTH 903 0
DWIDTH 40 0
BBX 40 40 0 -6
BITMAP
0000600000
00007c0000
0000780000
0000700000
0000e00030
0000e00078
3ffffffffc
0001c18000
000380c000
0003806000
0007003800
000e001c00
001c000f00
0038000780
00700003e0
00e00001f8
01c00000ff
038000007f
0e00600038
38007c0018
e000780000
0000700000
0000700000
000070000c
000070001e
ffffffffff
0000e40000
0000e60000
0001c30000
0001c18000
000380e000
0007007000
000e003c00
001c001f00
0038000fe0
00f00007ff
01e00003ff
07800000f0
1e00000070
7000000000
ENDCHAR
STARTCHAR 2349
ENCODING 9033
SWIDTH 903 0
DWIDTH 40 0
BBX 40 40 0 -6
BITMAP
0000000000
0c00000300
0f80000780
0f01ffffc0
0e000e03c0
0e000e0380
0e000e0380
0e300e0380
0e380e0380
0e380e0380
0efe0e0380
fff80e0380
ff380e0380
6e380e0380
0e380e0380
0e380e0380
0e380e0380
1c380e3380
1c3bfffb80
1c380e0380
1c380e0380
38700e0380
38700e0380
38700e0380
70700e0380
70e00e0380
7ce00e0380
0fc00e0380
03c00e0380
03e00e0380
07f00e0381
07780e0381
0e3c0e0383
0c1c0e0383
180c0e0386
30000e03ce
60000e03ff
c0000e01ff
00000e00fe
00000c0000
ENDCHAR
STARTCHAR 234a
ENCODING 9034
SWIDTH 903 0
DWIDTH 40 0
BBX 40 40 0 -6
BITMAP
000000c000
0c0000f800
0f8000f000
0f0000e000
0e0000e300
0e0000e180
0e0000e1c0
0e3000e0e0
0e3800e0e0
0e3800e060
0efe00e000
fff800e008
ff3800e01c
6e39fffffe
0e3800e000
0e3800e000
0e3800e000
1c3800e000
1c3800e000
1c3800e000
1c38007000
3870007000
3870007000
3870007000
7070003800
70e0003800
7ce0003800
0fc0001c00
03c0001c00
03e0000e00
07f0000e01
0778000701
0e3c000783
0c1c0003c3
180c0001e6
30000000fe
600000007e
c00000003f
000000001f
0000000006
ENDCHAR
STARTCHAR 234b
ENCODING 9035
SWIDTH 903 0
DWIDTH 40 0
BBX 40 40 0 -6
BITMAP
00000c0000
0c000f8000
0f800f0000
0f000e0000
0e000e0000
0e000e0000
0e000e0300
0e301c0780
0e381fffc0
0e381c07c0
0efe180700
fff8380700
ff38380700
6e38300700
0e38700e00
0e38600e00
0e38e00e00
1c38c01c00
1c39801c00
1c39001c00
1c38003800
3870003800
3870007c00
3870007c00
707000f400
70e000e600
7ce001c600
0fc001c300
03c0038300
03e0070380
07f0070180
07780e01c0
0e3c1c00e0
0c1c3800f0
180c700078
3000e0003c
6001c0001f
c00380000f
000e000006
0038000000
ENDCHAR
STARTCHAR 234c
ENCODING 9036
SWIDTH 903 0
DWIDTH 40 0
BBX 40 40 0 -6
BITMAP
0006000000
0007c00000
0007803000
0007003c00
000f003810
000e003838
3ffffffffc
001c007000
003800f000
003800e000
007001e000
00e003c000
01ff078000
00c3ff0000
00003fc000
0000f8f800
0003e03f00
001f000fc0
00f80003e0
07c00000f0
3e00000070
0006000000
0007c00000
0007803000
0007003c00
000f003804
000e00380e
ffffffffff
001c007000
0038007000
003800e000
007001c000
00ff038000
0063ff0000
00003fe000
000078fc00
0003e03f80
001f000fc0
01f80003e0
3f800000e0
ENDCHAR
STARTCHAR 234d
ENCODING 9037
SWIDTH 903 0
DWIDTH 40 0
BBX 40 40 0 -6
BITMAP
0030018000
003e01f000
003c01e000
003801c000
003801c000
303801c000
183801c000
0c3801c000
0e3801c180
073801c1e0
07b801c1c0
03b801c1c4
03b801c1ce
01b9ffffff
00380381c0
00380381c0
00380381c0
00380701c0
00380701c0
00380701c0
00380e01c0
00380e0380
00380c0380
00381c0380
0038180380
00f8380700
03b83e0700
0f383fcf00
1e3800fe00
fc38001f00
f838003f80
70380079c0
303800f0f0
003801e078
003803c03c
003807801e
00380f000f
00383c0007
0038f00003
0033c00000
ENDCHAR
STARTCHAR 234e
ENCODING 9038
SWIDTH 903 0
DWIDTH 40 0
BBX 40 40 0 -6
BITMAP
0060180600
00781e0780
00f03c0f00
01c0701c00
0380e03800
0701c07000
0380e03800
01c0701c00
00e0380f00
00f03c0780
00701c0380
00300c0180
0000000000
0000003000
0000007800
00fffffc00
0000007c00
000000f000
000001c000
0000030000
0000060000
00001c0000
00001c0000
00001c0018
00001c003c
7ffffffffe
00001c0000
00001c0000
00001c0000
00001c0000
00001c0000
00001c0000
00001c0000
00001c0000
00001c0000
00003c0000
000ffc0000
0001f80000
0000700000
0000600000
ENDCHAR
STARTCHAR 234f
ENCODING 9039
SWIDTH 903 0
DWIDTH 40 0
BBX 40 40 0 -6
BITMAP
0001800000
0000e00000
0000700000
0800780000
080038000c
180018001e
1fffffffff
380000001f
380300001c
7003e00018
f003c00030
e003800020
6007800000
0007006000
000700f000
000ffff800
000e00f800
001c00f000
001c00e000
003801e000
007001c000
00e003c000
01c0038000
0380078000
0600070000
00000f0000
00001e0000
00003f0000
0000798000
0000f1c000
0001e0e000
0003c07000
0007803800
000e001e00
003c000f80
00780007f0
01e00003ff
07800001ff
1e00000078
7800000018
ENDCHAR
STARTCHAR 2350
ENCODING 9040
SWIDTH 903 0
DWIDTH 40 0
BBX 40 40 0 -6
BITMAP
0000c00000
0000700000
0000380000
08003c0000
08001c000c
180018001e
1fffffffff
380000001f
380000001c
7800000c18
f000001e30
f07fffff20
6000000f00
0000000e00
0000000e00
0000000e00
0000000e00
0060000e00
007ffffe00
0070000c00
0070000000
0070000000
00e0000180
00e00003c0
01ffffffe0
00c00001e0
00000001c0
00000001c0
00000001c0
00000001c0
00000001c0
0000000380
0000000380
0000000380
0000000700
0000000f00
00007ffe00
000001fc00
0000003800
0000003000
ENDCHAR
STARTCHAR 2351
ENCODING 9041
SWIDTH 903 0
DWIDTH 40 0
BBX 40 40 0 -6
BITMAP
0000000000
0000300000
00003e0000
00003c0000
0000380600
06003807c0
0380380780
01c0380f00
00e0380e00
00f0381c00
0070381c00
0078383800
0038383000
0038386000
0018384000
0000380060
00003800f0
1ffffffff8
0000000078
0000000070
0000000070
0000000070
0000000070
0000000070
0000000070
0000000070
03fffffff0
0000000070
0000000070
0000000070
0000000070
0000000070
0000000070
0000000070
0000000070
0000000070
1ffffffff0
0000000070
0000000060
0000000000
ENDCHAR
STARTCHAR 2352
ENCODING 9042
SWIDTH 903 0
DWIDTH 40 0
BBX 40 40 0 -6
BITMAP
0000000000
0000300000
00003e0000
00003c0000
0000380000
0030380000
003e386000
003c383800
0078380e00
0070380700
00e03803c0
01c03801e0
03803800f0
0700380078
0e00380038
1c00380018
3800380000
6000380000
0000380000
0000380000
0000300000
0000000000
0000000000
0000300000
00003e0000
00003c0000
0000380000
0000380300
0000380780
03ffffffc0
0000380000
0000380000
0000380000
0000380000
0000380000
0000380000
000038000c
000038001e
ffffffffff
0000000000
ENDCHAR
STARTCHAR 2353
ENCODING 9043
SWIDTH 903 0
DWIDTH 40 0
BBX 40 40 0 -6
BITMAP
0000000000
1800000030
1c00000078
1ffffffffc
1c0000003c
1c00000038
1c00000038
1c00000038
1c00000038
1ffffffff8
1c00000030
1c00000000
1c00000600
1c00000f00
1c0fffff80
1c00000f80
1c00001e00
1c00007800
1c0000e000
1c00018000
1c00070000
1c00070000
1c00070000
1c00070030
1c00070078
1cfffffffc
1c00070000
1c00070000
3800070000
3800070000
3800070000
3800070000
3000070000
7000070000
7000070000
60000f0000
6003ff0000
c0007e0000
80001c0000
0000180000
ENDCHAR
STARTCHAR 2354
ENCODING 9044
SWIDTH 903 0
DWIDTH 40 0
BBX 40 40 0 -6
BITMAP
0000000000
0000000300
00c0000780
00ffffffc0
00e00003c0
00e0000380
00e0000380
00e0000380
00e0000380
00e0000380
00e0000380
00e0000380
00e0000380
00ffffff80
00e0080380
00e00c0300
00e0060000
00e0060000
00e0030000
00e0030000
00e3018000
01c1c1c000
01c0e0e000
01c0787000
03803c7800
03801e3c00
03800f1e00
0700070f00
07000307c0
0e000003f0
0e000001ff
1c030000ff
1801c0007c
3000e00038
6000780018
c0003c0000
80001e0000
00000f0000
0000070000
0000030000
ENDCHAR
STARTCHAR 2355
ENCODING 9045
SWIDTH 903 0
DWIDTH 40 0
BBX 40 40 0 -6
BITMAP
0000000000
0180000000
01f0000000
01e0000000
01c0000030
01c0000078
01c07ffffc
01c0003800
01c0003800
61c6003800
79c7803800
71c7003800
71c7003800
71c7003800
71c7003800
71c7003800
71c7003800
71c7003800
71c7003800
71c7003800
71c7003800
71c7003800
71c7003800
71c7003800
71c7003800
71c7003800
71c7003800
71c7003800
71c7003800
71c7003800
ffff003800
6007003800
0006003800
0000003800
000000380c
000000381e
0000ffffff
0000000000
0000000000
0000000000
ENDCHAR
STARTCHAR 2356
ENCODING 9046
SWIDTH 903 0
DWIDTH 40 0
BBX 40 40 0 -6
BITMAP
0000000000
0300000060
03e00000f0
03c07ffff8
03800000f8
03800001e0
0380000380
0380000700
0380000e00
638c001800
738e007000
638c007000
638c007000
638c007000
638c007000
638c007000
638c007000
638c00700c
638c00701e
638dffffff
638c007000
638c007000
638c007000
638c007000
638c007000
638c007000
638c007000
638c007000
638c007000
638c007000
fffc007000
600c007000
000c007000
0000007000
0000007000
000000f000
00003ff000
000007e000
000001c000
0000018000
ENDCHAR
STARTCHAR 2357
ENCODING 9047
SWIDTH 903 0
DWIDTH 40 0
BBX 40 40 0 -6
BITMAP
0000000000
0000600000
0000780000
0000700000
0000e00000
0000e00030
0001c00078
3ffffffffc
0003808000
000780c000
0007006000
000e003000
001e003800
001c001c00
0038000f00
0070000780
00e00003e0
01c00001f8
03800000ff
070000007f
0e00000038
3800300018
e0003e0000
00003c0000
0000380000
0000380000
0600380180
07c03801f0
07803801e0
07003801c0
07003801c0
07003801c0
07003801c0
07003801c0
07003801c0
07003801c0
07003801c0
0fffffffc0
06000001c0
0000000180
ENDCHAR
STARTCHAR 2358
ENCODING 9048
SWIDTH 903 0
DWIDTH 40 0
BBX 40 40 0 -6
BITMAP
0000000300
0000000780
0fffffffc0
00000003c0
0000000380
0000000380
0000000380
0000000380
0600000380
07ffffff80
0700000300
0700000008
0700000008
0700000008
0700000018
0700000018
0700000030
0780000070
07fffffff8
03fffffff8
01ffffffe0
0000000000
0000000000
0000300000
00003e0000
00003c0000
0000380000
0600380180
07c03801f0
07803801e0
07003801c0
07003801c0
07003801c0
07003801c0
07003801c0
07003801c0
07003801c0
0fffffffc0
06000001c0
0000000180
ENDCHAR
STARTCHAR 2359
ENCODING 9049
SWIDTH 903 0
DWIDTH 40 0
BBX 40 40 0 -6
BITMAP
0000000000
0180000000
01f00c0030
01e00e0078
01c00ffffc
01c00e003c
01c00e0038
01c00e0038
01c00e0038
61c60e0038
79c78e0038
71c70e0038
71c70e0038
71c70e0038
71c70e0038
71c70e0038
71c70e0038
71c70e0038
71c70ffff8
71c70e0038
71c70e0030
71c70e0000
71c70e0000
71c70e0000
71c70e0000
71c70e0000
71c70e0000
71c70e0000
71c70e0000
71c70e0000
ffff0e0001
60070e0001
00060e0003
00000e0003
00000e0006
00000f000e
00000fffff
000007ffff
000003fffe
0000000000
ENDCHAR
STARTCHAR 235a
ENCODING 9050
SWIDTH 903 0
DWIDTH 40 0
BBX 40 40 0 -6
BITMAP
0000300000
00003e0000
00003c0000
0000380000
0000380000
1800380060
1f0038007c
1e00380078
1c00380070
1c00380070
1c00380070
1c00380070
1c00380070
1c00380070
1c00380070
1c00380070
3ffffffff0
1800000070
0000000060
0000300000
00003e0000
00003c0000
0000380000
0000380000
3000380030
3e0038003e
3c0038003c
3800380038
3800380038
3800380038
3800380038
3800380038
3800380038
3800380038
3800380038
3800380038
3800380038
7ffffffff8
3000000038
0000000030
ENDCHAR
STARTCHAR 235b
ENCODING 9051
SWIDTH 903 0
DWIDTH 40 0
BBX 40 40 0 -6
BITMAP
0000000000
0300060000
03e007c000
03c0078000
0380070000
0380070000
0380070000
03800e0000
03800f8000
03801ce000
03801c7800
0380383c00
0380701e00
0380e00f00
0381c00700
0387000300
039c000000
0380000020
0380000070
07fffffff8
0300000000
0060301800
007c3e1f00
00783c1e00
0070381c00
0070381c00
0070381c00
0070381c00
0070381c00
0070381c00
00e0381c00
00e0381c00
01c0381c00
01c0381c00
0380381c00
0700381e00
0e00381ffe
1c00380fff
38003807ff
6000300000
ENDCHAR
STARTCHAR 235c
ENCODING 9052
SWIDTH 903 0
DWIDTH 40 0
BBX 40 40 0 -6
BITMAP
0000000000
006000000c
007c00001e
0078ffffff
0070003800
0070003800
0070003800
0070003800
0070003800
6070303830
3070383878
38703ffffc
1c7038383c
1c70383838
0e70383838
0e70383838
0e70383838
0670383838
0070383838
0070383838
0070383838
0070383838
0070383838
00e0383838
00e0383838
00e0383838
00e0383838
00e0383838
01c0383bf8
01c03838f8
01c0383870
0380383860
0380303800
0700003800
0700003800
0e00003800
1c00003800
3800003800
6000003800
0000003000
ENDCHAR
STARTCHAR 235d
ENCODING 9053
SWIDTH 903 0
DWIDTH 40 0
BBX 40 40 0 -6
BITMAP
030000c000
03e000f800
03c000f000
038000e000
038001c000
038001c000
0380018000
038c038000
c39e030300
ffff060780
e38f0fffc0
e38e0e03c0
e38e0e0380
e38e0e0380
e38e0e0380
e38e0e0380
e38e0e0380
e38e0e0380
e38e0e0380
e38e0e0380
e38e0e0380
e38e0e0380
e38e0e0380
e38e0e0380
e38e0e0380
e38e0e0380
e3fe0e0380
e3be0e0380
e39c1c0380
c3981c0380
03801c0380
03801c0381
0380380381
0380380383
0380700383
03807003c6
0380e003ff
0381c001ff
03838000fe
0306000000
ENDCHAR
STARTCHAR 235e
ENCODING 9054
SWIDTH 903 0
DWIDTH 40 0
BBX 40 40 0 -6
BITMAP
0000300000
00001c0000
00000e0000
0c000e000c
0e0006001e
0fffffffff
0e00000000
0e00000000
0e00600000
0e007c0000
0e00780000
0e00700000
0e00700000
0e00600c00
0e00e01e00
0e00ffff00
0e00e01f00
0e01c01e00
0e01c01c00
0e03803c00
0e03803800
0e07007800
0e06007000
0e0c00f000
0e1800e000
0e0001e000
0e0003c000
1c0003e000
1c00073000
1c000e3800
1c001c1c00
1800380e00
3800700700
3800e003c0
3001c001e0
70078000f8
600e00007f
c03c00003f
80f000001c
03c000000c
ENDCHAR
STARTCHAR 235f
ENCODING 9055
SWIDTH 903 0
DWIDTH 40 0
BBX 40 40 0 -6
BITMAP
0000300000
00001c0000
00000e0000
0c000e000c
0e0006001e
0fffffffff
0e00000000
0e00000000
0e00000000
0e00000180
0e000003c0
0e0fffffe0
0e00038000
0e00038000
0e00038000
0e00038000
0e00038000
0e00038000
0e00038000
0e00038018
0e0003803c
0e3ffffffe
0e00038000
0e00038000
0e00038000
0e00038000
0e00038000
1c00038000
1c00038000
1c00038000
1c00038000
1800038000
3800038000
3800038000
3000038000
7000078000
6003ff8000
c0003f0000
80000e0000
00000c0000
ENDCHAR
STARTCHAR 2360
ENCODING 9056
SWIDTH 903 0
DWIDTH 40 0
BBX 40 40 0 -6
BITMAP
0000300000
00001c0000
00000e0000
0c000e000c
0e0006001e
0fffffffff
0e00000000
0e00000000
0e00000000
0e00000e00
0e00007f00
0e0003ff80
0e003ff000
0e01ff0000
0e1fce0000
0e000e0000
0e000e0000
0e000e0000
0e000e0000
0e000e0000
0e000e0000
0e000e0018
0e000e003c
0efffffffe
0e000e0000
0e000e0000
0e000e0000
1c000e0000
1c000e0000
1c000e0000
1c000e0002
18000e0002
38000e0006
38000e0006
30000e000c
70000f001c
60000ffffe
c00007fffe
800003fffc
0000000000
ENDCHAR
STARTCHAR 2361
ENCODING 9057
SWIDTH 903 0
DWIDTH 40 0
BBX 40 40 0 -6
BITMAP
0000000000
0000000000
0000000000
0000060c18
00c007cf9f
01e0078f1e
7ff0070e1c
00f0070e1c
00e00e1c38
01c00e1c38
01c01c3870
03801c3870
03801c38e0
07003870e0
07003071c0
0e3070e1c0
0e78e1c380
1ffdc38700
0c3dc38700
0038e1c380
003870e1c0
20383870e0
20381c3870
30700c1c38
10700e1c38
1870070e1c
18e0070e1c
0ce003870e
0ee003870e
07c003870e
07c0018306
0380000000
03c0000000
07e0000000
0778000000
0e3f00000f
1c1ffffffe
3807fffff8
6001ffffe0
0000000000
ENDCHAR
STARTCHAR 2362
ENCODING 9058
SWIDTH 903 0
DWIDTH 40 0
BBX 40 40 0 -6
BITMAP
000000c000
000000f300
000000e1c0
000000e0e0
000000e070
000000e078
000000e038
000000e018
000000e000
000000e006
ffffffffff
000000e000
000000e000
000000e000
000000e000
000000e000
000020e000
000070e000
1ffff87000
0000007000
0000007000
0000007000
0000003800
0000003800
0000403800
0000e03800
0ffff01c00
0000001c00
0000001c00
0000000e02
0000000e02
0000000706
0000040706
00000e0386
7fffff03cc
00000001ec
00000000fc
000000007e
000000003e
000000000c
ENDCHAR
STARTCHAR 2363
ENCODING 9059
SWIDTH 903 0
DWIDTH 40 0
BBX 40 40 0 -6
BITMAP
0000060000
003007c000
0078078000
fffc070000
003c070000
0038070000
00380e0000
00380e0018
00380e003c
00381ffffe
00381c001e
303818001c
3ff838001c
383030001c
380070001c
380060001c
3800c0001c
700083001c
701801c01c
703c00e01c
fffe00701c
601e00701c
001c00381c
001c00381c
001c00181c
001c00001c
001c00001c
001c00001c
001c00001c
001c00001c
001c00003c
001c000038
001c000038
003c000078
0038000070
00780001f0
7ff0007fe0
07e0000fc0
01c0000380
0180000300
ENDCHAR
STARTCHAR 2364
ENCODING 9060
SWIDTH 903 0
DWIDTH 40 0
BBX 40 40 0 -6
BITMAP
0000000000
0030000000
0078000030
fffc000078
003c3ffffc
0038000000
0038000000
0038000000
0038000000
0038000000
0038000000
303800000c
3ff800001e
3831ffffff
380001c000
380001c000
380001c000
7000038000
7018038000
703c038000
fffe070030
601e070078
001c0ffffc
001c06003c
001c000038
001c000038
001c000038
001c000038
001c000038
001c000038
001c000078
001c000070
001c000070
003c0000f0
00380000e0
00780003e0
7ff001ffc0
07e0001f80
01c0000700
0180000600
ENDCHAR
STARTCHAR 2365
ENCODING 9061
SWIDTH 903 0
DWIDTH 40 0
BBX 40 40 0 -6
BITMAP
0000000000
0000001800
0000001f00
00e0003e00
003c007800
000f00f000
000381e000
0001e3c000
00007f8000
00003f0000
00007f8000
0000f3e000
0003e0f800
0007807c00
001e001e00
0078000f00
01e0000780
0f80000380
3c00000180
0000000000
0000000000
0000180000
00300c0000
003e0e0000
003c070000
0038038000
0838038000
0838038030
1838018018
183800021c
183800020e
383800060e
3838000607
703c000c07
f03e001c03
e01ffffe03
600ffffe00
0003fff800
0000000000
0000000000
ENDCHAR
STARTCHAR 2366
ENCODING 9062
SWIDTH 903 0
DWIDTH 40 0
BBX 40 40 0 -6
BITMAP
0300000000
03e0000020
03c0000070
03807ffff8
0380007000
0380007000
0380007000
0380007000
0380007000
03a0007000
23b0007000
2398007000
239c007000
638e007000
638e007000
638600700c
e38000701e
e381ffffff
c380007000
c380007000
0380007000
0380007000
0380007000
0380007000
0380007000
0380007000
0380007000
0380007000
0380007000
0380007000
0380007000
0380007000
0380007000
0380007000
0380007000
0380007000
0380007000
0380007000
0380007000
0300006000
ENDCHAR
STARTCHAR 2367
ENCODING 9063
SWIDTH 903 0
DWIDTH 40 0
BBX 40 40 0 -6
BITMAP
0600003000
07c0003e00
0780003c00
0700303800
07003e3800
07003c3800
0700383800
0700383800
0700383800
0780383800
27c0383818
276038383c
2770383ffe
673838381e
67383ff81c
671838381c
e703f8381c
e700383838
c700383838
c700383838
0700383830
0700383870
0700383870
0700383860
0700383860
07003838e0
07003838c0
07003838c0
0700383880
0700383800
0700383801
0700383001
0700380003
0700380003
0700380006
07003c000e
07003fffff
07001fffff
07000ffffe
0600000000
ENDCHAR
STARTCHAR 2368
ENCODING 9064
SWIDTH 903 0
DWIDTH 40 0
BBX 40 40 0 -6
BITMAP
0600000000
07c0000018
078000003c
0703fffffe
070003801e
070003801c
070003801c
070003801c
070003801c
078003801c
27c003801c
276003801c
277003801c
673803801c
673983801c
6718e3801c
e70073801c
e7003b801c
c7001f801c
c7000f001c
070007801c
070007c01c
070007e01c
070007f01c
07000e701c
07000e781c
07000e381c
07001c381c
07001c181c
070038001c
070038003c
0700700038
0700700038
0700e00078
0701c00070
07038001f0
070701ffe0
070e000fc0
071c000380
0670000300
ENDCHAR
STARTCHAR 2369
ENCODING 9065
SWIDTH 903 0
DWIDTH 40 0
BBX 40 40 0 -6
BITMAP
0600000000
07c0000600
0780600f00
07007fff80
0700700780
0700700700
0700700700
0700700700
0700700700
0780700700
27c0700700
2760700700
2770700700
6738700700
6738700700
6718700700
e700700700
e700700700
c700706700
c70077f700
0700700700
0700700700
0700700700
0700700700
0700700700
0700700700
0700700700
0700e00700
0700e00700
0700e00700
0700e00701
0701c00701
0701c00703
0703800703
0703800706
070700070e
07060007ff
070c0007ff
07180003fc
0630000000
ENDCHAR
STARTCHAR 236a
ENCODING 9066
SWIDTH 903 0
DWIDTH 40 0
BBX 40 40 0 -6
BITMAP
0001800000
0001f18000
0001e0e000
0001c07800
0001c03c00
0001c01c00
0001c00c00
0001c00040
0001c000e0
1ffffffff0
0001c00000
0001c00000
0001c00000
0001c00100
0001c00380
07ffffffc0
0000e00000
0000e00000
0000e00000
0000e00010
0000e00038
3ffffffffc
0000700000
0000700c00
0000381f80
0000383f00
0000387c00
00001df004
00001fc004
00000f800c
00001f800c
00003fc00c
0000f9f018
0001e0fc18
0007803f38
001e001ff8
00780007f8
01e00001fc
0f0000007c
7800000018
ENDCHAR
STARTCHAR 236b
ENCODING 9067
SWIDTH 903 0
DWIDTH 40 0
BBX 40 40 0 -6
BITMAP
0000018000
000001f000
000001e300
000001c1c0
000001c0f0
000c01c078
001e01c038
7fff01c018
000f01c000
000e01c000
000e01c000
000e01c00c
000e01c01e
601cffffff
301c01c000
181c01c000
0c1c01c000
0e1c01c000
063801c0c0
033800e0f8
03b800e0f0
01f000e0e0
01f000e1c0
00f00071c0
00f0007380
00f8007380
00fc003f00
01dc003e00
01ce001e01
038f001c01
0387003e01
0707807f03
070380e783
0e0381c3c6
0c018381e6
18000700fe
30000e007e
600038003f
c000f0000f
0007800006
ENDCHAR
STARTCHAR 236c
ENCODING 9068
SWIDTH 903 0
DWIDTH 40 0
BBX 40 40 0 -6
BITMAP
0300000000
03e0000000
03c0000030
0380000078
03807ffffc
0380000000
0380000000
0380000000
0380000000
0398000000
7ffc000000
038000000c
038000001e
0383ffffff
038001c000
038001c000
038001c000
0380038000
039c038000
03f0038000
03c0070030
0f80070078
ff800ffffc
ff8006003c
7380000038
3380000038
0380000038
0380000038
0380000038
0380000038
0380000078
0380000070
0380000070
03800000f0
03800000e0
03800003e0
7f8001ffc0
1f80001f80
0700000700
0600000600
ENDCHAR
STARTCHAR 236d
ENCODING 9069
SWIDTH 903 0
DWIDTH 40 0
BBX 40 40 0 -6
BITMAP
0300000000
03e0000180
03c00003c0
0380ffffe0
03800701e0
03800701c0
03800701c0
03800701c0
03800701c0
03980701c0
7ffc0701c0
03800701c0
03800701c0
03800701c0
03800701c0
03800701c0
03800701c0
0380070dc0
039dffffc0
03f00701c0
03c00701c0
0f800701c0
ff800701c0
ff800701c0
73800701c0
33800700e0
03800700e0
03800700e0
03800700e0
03800700e1
03800700e1
0380070073
0380070073
0380070076
038007003e
038007003e
7f8007001e
0f8007001f
070007000f
0600060006
ENDCHAR
STARTCHAR 236e
ENCODING 9070
SWIDTH 903 0
DWIDTH 40 0
BBX 40 40 0 -6
BITMAP
0300060000
03e007c000
03c0078000
0380070000
0380070000
0380070000
0380070000
0380070000
0380070000
0398070300
7ffc070780
0381ffffc0
03800703c0
0380070380
0380070380
0380070380
0380070380
0380c70380
039c670380
03f0370380
03c01f0380
0f800f0380
ff80078380
ff8007c380
73800fe380
33800ee380
03800e7380
03800e7380
03801c3380
03801c0380
0380380381
0380380381
0380700383
0380700383
0380e00386
0380c003ce
7f818003ff
1f830001ff
07060000fc
060c000000
ENDCHAR
STARTCHAR 236f
ENCODING 9071
SWIDTH 903 0
DWIDTH 40 0
BBX 40 40 0 -6
BITMAP
0300006000
03e0007c00
03c0007800
0380007000
0380007000
0380007000
0380007000
0380007000
0380007000
0398007000
7ffc007000
0380007000
0380007000
0380007030
0380007078
0380fffffc
0380007000
0380007000
039c007000
03f0007000
03c0007000
0f80007000
ff80007000
ff80007000
7380007000
3380007000
0380007000
0380007000
0380007000
0380007000
0380007000
0380007000
0380007000
0380007000
0380007000
038000700c
7f8000701e
1f83ffffff
0700000000
0600000000
ENDCHAR
STARTCHAR 2370
ENCODING 9072
SWIDTH 903 0
DWIDTH 40 0
BBX 40 40 0 -6
BITMAP
0000c00000
0000700000
0000380000
0000380060
00001800f0
1ffffffff8
0030003c00
0018007800
000c00f000
000701e000
0003838000
0001ef0000
0000fe0000
0001ff8000
0007c3f000
001f00ff00
007c003fff
03e0000fff
1f000001f8
f818006078
001f007c00
001e007800
001c007000
001c007000
001c007000
001c007000
001c007000
001c007000
001c007000
0038007000
0038007000
0038007000
0070007000
0070007000
00e0007000
00e0007000
01c0007000
0380007000
0700007000
0c00006000
ENDCHAR
STARTCHAR 2371
ENCODING 9073
SWIDTH 903 0
DWIDTH 40 0
BBX 40 40 0 -6
BITMAP
0c00006000
0600007c00
0700007800
0380007000
0380007000
0180007000
0002007000
0007007000
ffff807000
0700007000
0700007000
0700007000
0700007000
0700007000
0700007000
071c007000
07fe00f800
071e00e800
071c00e800
061c00ec00
061c00ec00
0e1c00ec00
0e1c01cc00
0e1c01c600
0c1c01c600
0c1c01c600
1c1c038700
1c1c038300
1c1c078380
181c070380
181c0f01c0
381c0e01c0
301c1e00e0
303c1c00f0
703838007c
607870003f
4ff0e0003f
c1e1c0001c
81c380000c
0186000000
ENDCHAR
STARTCHAR 2372
ENCODING 9074
SWIDTH 903 0
DWIDTH 40 0
BBX 40 40 0 -6
BITMAP
0000000000
0000000000
000000000c
000000001e
60187fffff
703c00e00f
7ffe00e00e
701e00e00e
701c00e00e
701c00e00e
701c00e00e
701c00e00e
701c00e00e
701c00e00e
701c00e00e
701c00e00e
701c00e00e
701c00e00e
7ffc00e00e
701c01c00e
701c01c00e
701c01c00e
701c01c00e
701c01c00e
701c03800e
701c03800e
701c03800e
701c07000e
701c07000e
701c0e001e
7ffc0e001c
701c1c001c
70181c003c
6000380038
0000700078
0000e000f0
0001c07fe0
0003800fc0
0007000380
001c000300
ENDCHAR
STARTCHAR 2373
ENCODING 9075
SWIDTH 903 0
DWIDTH 40 0
BBX 40 40 0 -6
BITMAP
0000003000
0000003e00
0000003c00
0000003800
6018003800
703c003800
7ffe003800
701e003800
701c003800
701c003800
701c003800
701c003800
701c003800
701c003800
701c00380c
701c00381e
701cffffff
701c003800
7ffc003800
701c003800
701c003800
701c003800
701c003800
701c003800
701c003800
701c003800
701c003800
701c003800
701c003800
701c003800
7ffc003800
701c003800
7018003800
6000003800
0000003800
0000003800
0000003800
0000003800
0000003800
0000003000
ENDCHAR
STARTCHAR 2374
ENCODING 9076
SWIDTH 903 0
DWIDTH 40 0
BBX 40 40 0 -6
BITMAP
0000300000
00003e0000
00003c0000
0000380000
0000380000
0000380000
0000380180
06003803c0
07ffffffe0
07003801e0
07003801c0
07003801c0
07003801c0
07003801c0
07003801c0
07ffffffc0
07003801c0
07003801c0
07003801c0
07003801c0
07003801c0
07003801c0
07ffffffc0
07007401c0
0700760180
0600e60000
0000e30000
0001c30000
0001c18000
000381c000
000780e000
0007007800
000e003c00
001c001f00
0038000fe0
00700007ff
01e00001ff
0780000078
1e00000018
7000000000
ENDCHAR
STARTCHAR 2375
ENCODING 9077
SWIDTH 903 0
DWIDTH 40 0
BBX 40 40 0 -6
BITMAP
0180000000
01f0000000
01e000000c
01c000001e
01c0ffffff
01c000e00f
01c000e00e
01c000e00e
01c400e00e
01ce00e00e
ffff00e00e
01c000e00e
01c000e00e
03c000e00e
03c000e00e
03e000e00e
07f000e00e
07d800e00e
07dc00e00e
0fce01c00e
0fce01c00e
0dc601c00e
1dc001c00e
19c001c00e
39c003800e
31c003800e
71c003800e
61c007000e
c1c007000e
81c00e001e
01c00e001c
01c01c001c
01c01c003c
01c0380038
01c0700078
01c0e000f0
01c1c07fe0
01c3800fc0
01c7000380
018c000300
ENDCHAR
STARTCHAR 2376
ENCODING 9078
SWIDTH 903 0
DWIDTH 40 0
BBX 40 40 0 -6
BITMAP
0180000000
01f0000300
01e0000780
01c0ffffc0
01c00703c0
01c0070380
01c0070380
01c0070380
01c4070380
01ce070700
7fff070700
01c0070700
01c0070700
03c0070e00
03c0070e18
03e0070e3c
07f00e1ffe
07d80e0c1e
07dc0e001c
0fce0e001c
0fce0e001c
0dc60e001c
1dc01c001c
19c01c001c
39c01c001c
31c038001c
71c038001c
61c038001c
c1c038001c
81c070001c
01c070003c
01c0e00038
01c0e00038
01c1c00078
01c1c00070
01c38001f0
01c300ffe0
01c6000fc0
01cc000380
0188000300
ENDCHAR
STARTCHAR 2377
ENCODING 9079
SWIDTH 903 0
DWIDTH 40 0
BBX 40 40 0 -6
BITMAP
018000c000
01f000f800
01e000f000
01c000e000
01c000e000
01c000e000
01c000e000
01c000e000
01c400e000
01ce00e000
7fff00e000
01c000e000
01c000e000
03c000e000
03c000e000
03e000f000
07f000f000
07d801d000
07dc01d000
0fce01d800
0fce01d800
0dc601c800
1dc0018c00
19c0038c00
39c0038c00
31c0038600
71c0070600
61c0070700
c1c0070300
81c00e0380
01c00e0180
01c01c01c0
01c01c00e0
01c03800f0
01c038007c
01c070003f
01c0e0003f
01c1c0001c
01c380000c
0186000000
ENDCHAR
STARTCHAR 2378
ENCODING 9080
SWIDTH 903 0
DWIDTH 40 0
BBX 40 40 0 -6
BITMAP
0000000000
0000006000
000000f000
0ffffff800
0007007800
0007007000
000700e000
000700c000
000701c030
0007018078
000e03fffc
000e01803c
001c000038
001c000038
0038000038
0038000078
0070000070
00e0000070
01c00000f0
038000ffe0
0700000fc0
1c00000380
7000300300
00003e0000
00003c0000
000038000c
000038001e
ffffffffff
0000380000
0000380000
0030380000
003c383800
0078380f00
00f03803c0
01c03801e0
03803800f0
0700380078
1c00380038
7000380018
0000300000
ENDCHAR
STARTCHAR 2379
ENCODING 9081
SWIDTH 903 0
DWIDTH 40 0
BBX 40 40 0 -6
BITMAP
0000060000
000007c000
0000078000
0000070000
0000070000
0018070000
003c0e0000
7ffe0e0000
001e0e0018
001c1c003c
001c1ffffe
001c18703e
0038387038
0038307070
6038707060
30386070c0
1838c07080
0c38807000
0c70007000
0670007800
077000f800
03e000e800
03e000ec00
01e000ec00
01e001cc00
01f001c600
01f801c600
03b8038700
039c038380
071e070380
070e0701c0
060f0e01e0
0e070e00f0
0c031c00f8
1c0038007c
180070003f
3000e0001f
6001c0000e
c007000006
001c000000
ENDCHAR
STARTCHAR 237a
ENCODING 9082
SWIDTH 903 0
DWIDTH 40 0
BBX 40 40 0 -6
BITMAP
00c0000000
00f8000000
00f0000000
00e0000000
00e0000060
01c00000f0
01fffffff8
0380000000
0380000000
0700000000
0700000000
0e00000600
0c60000f00
187fffff80
30701c0780
00701c0700
00701c0700
00701c0700
00701c0700
00701c0700
00701c0704
00701c070e
ffffffffff
00e0380e00
00e0380e00
00e0380e00
00e0380e00
00e0380e00
01c0380e00
01c0380e08
01c0380e1c
03fffffffe
0180001c00
0000001c00
0000003c00
0000007800
00003ff800
000003f000
000000e000
000000c000
ENDCHAR
STARTCHAR 237b
ENCODING 9083
SWIDTH 903 0
DWIDTH 40 0
BBX 40 40 0 -6
BITMAP
0000000000
0018000000
007c000300
01fe000780
07f0ffffc0
1f800703c0
7380070380
0380070380
0380070300
0380070700
0380070700
0380070600
038c070e18
7ffe070c3c
0380071ffe
0380070c1e
03800e001c
03800e001c
03800e001c
03800e001c
03800e001c
03841c001c
038e1c001c
ffff18001c
038038003c
0380380038
0380300038
0380700078
0380600070
0380e001f0
0380c07fe1
0381800fc1
0383000383
0382000303
03c0000006
03e000000e
01ffffffff
00ffffffff
003ffffffe
0000000000
ENDCHAR
STARTCHAR 237c
ENCODING 9084
SWIDTH 903 0
DWIDTH 40 0
BBX 40 40 0 -6
BITMAP
0000000380
0c00000fc0
0700007fe0
038003fc00
03c01fe000
01c0f8e000
01c000e000
00c000e000
000000e000
000800e000
000800e000
c01800e000
701000e000
383000e00c
3c3000e01e
1c67ffffff
1c6000e000
0c6000e000
00c000e000
00c000e000
01c000e000
018000e000
038000e000
030000e000
070000e000
070000e000
0e0000e000
1e0000e000
fe0000e000
3c0000e000
1c0000e000
1c0000e000
0e0000e000
0e0000e000
0f0000e000
0f0000e000
0f0000e000
0f0000e000
060000e000
000000c000
ENDCHAR
STARTCHAR 237d
ENCODING 9085
SWIDTH 903 0
DWIDTH 40 0
BBX 40 40 0 -6
BITMAP
0000000000
0c000001c0
07000007e0
0380001ff0
01c0007f00
01c001f800
00c00fc000
000079c000
000001c000
000801c000
000801c000
c01801c000
701001c000
383001c000
1c3001c000
1c6001c000
0c6001c008
006001c01c
00c001fffe
00c3ffc000
01c001c000
018001c000
038001c000
030001c000
070001c000
070001c000
0e0001c000
1e0001c000
fe0001c000
3c0001c000
1c0001c001
1c0001c001
0e0001c003
0e0001c003
0f0001c006
0f0001e00e
0f0001ffff
0f0000ffff
0600007ffe
0000000000
ENDCHAR
STARTCHAR 237e
ENCODING 9086
SWIDTH 903 0
DWIDTH 40 0
BBX 40 40 0 -6
BITMAP
0000000000
0c00060000
070007c000
0380078000
01c0070000
01c00e0000
00c00e0000
00000e0060
00001c00f0
00081ffff8
00081800f8
c0183c00f0
70103400e0
38307400e0
1c306600e0
1c60c601e0
0c61c601c0
00618301c0
00c30301c0
00c6030380
01c0030380
0180018700
0380018700
030001cf00
070000ce00
070000fe00
0e00007c00
1e00007c00
fe00007800
3c0000fc00
1c0001ee00
1c0001cf00
0e00038780
0e000703e0
0f000e01f8
0f001c00ff
0f0078007f
0f00e0003c
060780001c
001e000000
ENDCHAR
STARTCHAR 2421
ENCODING 9249
SWIDTH 903 0
DWIDTH 40 0
BBX 40 40 0 -6
BITMAP
0000300000
00003e0000
00003c0000
0000380000
0000380300
00063807c0
000f380f80
1fffbc1e00
0007be3000
000f3b8000
001e39c000
001c38f000
0038387c00
0070381f00
00e0380fe0
01c03803fe
07807801fe
0e0ff80070
3803f00030
e000e00000
0000c00000
0000000000
0000300000
00003e0000
00003c0000
0000380000
0000380000
00007c0000
0000760000
0000e30000
0001c38000
000381c000
000700f000
000e007c00
003c003f80
0078000ff0
01e00007ff
07800001ff
1e0000007c
700000001c
ENDCHAR
STARTCHAR 2422
ENCODING 9250
SWIDTH 903 0
DWIDTH 40 0
BBX 40 40 0 -6
BITMAP
006000c000
007c00f800
007800f000
007000e000
00f000e000
00e000e000
00e000e000
01c000e000
01c000e000
038000e060
038000e078
078000e0f0
078030e0e0
0f8078e1c0
0f8ffcf380
1f803cf600
3b8038f800
338038e800
638038e800
c38070ec00
038070ec00
038070e600
038070e600
0380e0e300
0380e0e300
0380e0e380
0381c0e180
0381c0e1c0
038380e0e0
038380e0f0
038700e078
038700e07c
038e00e03f
038c00e01f
039800e00e
03b001e006
03a03fe000
03800fc000
0380038000
0300030000
ENDCHAR
STARTCHAR 2423
ENCODING 9251
SWIDTH 903 0
DWIDTH 40 0
BBX 40 40 0 -6
BITMAP
0000000000
0c00000000
07000000c0
03800001e0
01c0fffff0
01c001c000
00c001c000
000001c000
000001c000
0008038000
0008038000
c01803800c
701003801e
3837ffffff
1c30070000
1c60070000
0c60070000
0060070000
00c00e0000
00c00e0060
01c00e00f0
01801ffff8
03800c0078
0300000070
0700000070
0700000070
0e00000070
1e00000070
fe00000070
3c00000070
1c000000f0
1c000000e0
0e000000e0
0e000001e0
0f000001c0
0f000007c0
0f0001ff80
0f00003f00
0600000e00
0000000c00
ENDCHAR
STARTCHAR 2424
ENCODING 9252
SWIDTH 903 0
DWIDTH 40 0
BBX 40 40 0 -6
BITMAP
0000000000
0c00000000
07000000c0
03800001e0
01c0fffff0
01c00000f0
00c00000e0
00000000e0
00000000e0
00080000e0
00080000e0
c0180000e0
70100000e0
38300000e0
1c300000e0
1c600000e0
0c60c000e0
0060e000e0
00c0ffffe0
00c0e000e0
01c0e000c0
0180e00000
0380e00000
0300e00000
0700e00000
0700e00000
0e00e00000
1e00e00000
fe00e00000
3c00e00001
1c00e00001
1c00e00003
0e00e00003
0e00e00007
0f00e00006
0f00f0000e
0f00ffffff
0f007fffff
06003ffffc
0000000000
ENDCHAR
STARTCHAR 2425
ENCODING 9253
SWIDTH 903 0
DWIDTH 40 0
BBX 40 40 0 -6
BITMAP
0000000000
0c00000060
07000000f0
0380fffff8
01c00000f8
01c00001e0
00c0000380
0000000700
0000000e00
0008001800
0008007000
c018007000
7010007000
3830007000
1c30007000
1c60007000
0c60007000
006000700c
00c000701e
00cfffffff
01c0007000
0180007000
0380007000
0300007000
0700007000
0700007000
0e00007000
1e00007000
fe00007000
3c00007000
1c00007000
1c00007000
0e00007000
0e00007000
0f00007000
0f0000f000
0f003ff000
0f0007e000
060001c000
0000018000
ENDCHAR
STARTCHAR 2426
ENCODING 9254
SWIDTH 903 0
DWIDTH 40 0
BBX 40 40 0 -6
BITMAP
0000000000
0300000000
03e000000c
03c000001e
0380ffffff
0380003800
0380003800
0380003800
038c003800
838f003800
c39e003800
639c003800
73b8003800
33b0003800
3be0003800
3bc0003800
1b80003800
1b80003800
0380003800
0380003800
0380003800
0380003800
0380003800
0380003800
0700003800
0700003800
07c0003800
0760003800
0730003800
0e38003800
0e1c003800
0e1e003800
0c0e003800
1c0e003800
1806003800
3800007800
30001ff800
600003f000
c00000e000
000000c000
ENDCHAR
STARTCHAR 2427
ENCODING 9255
SWIDTH 903 0
DWIDTH 40 0
BBX 40 40 0 -6
BITMAP
0060000030
007c00003e
007800003c
0070000038
0070000038
0070000038
0070c0c038
0070f8f838
6070f0f038
3871e0e038
1c71c0e038
1c71c0e038
0e7380e038
0e7300e038
067300e038
067600e038
007400e038
007000e038
007000e038
007000e038
007000e038
007000e038
007000e038
007000e038
00e000e038
00f800e038
00ec00e038
01c600e038
01c700c038
01c3800038
0381c00038
0381e00038
0700e00038
0700f00038
0e00700038
1c00700078
1800307ff8
30000003f0
60000000e0
40000000c0
ENDCHAR
STARTCHAR 2428
ENCODING 9256
SWIDTH 903 0
DWIDTH 40 0
BBX 40 40 0 -6
BITMAP
0000300000
00003e0600
03003c07c0
01c0380f80
00e0380f00
0070381e00
0078383c00
0038387000
003838c000
00187c0000
0000760000
0000f30000
0000e38000
0001c1c000
000380e000
0007007800
000e003e00
001c001fc0
0078000ffe
01e00003fe
07800001e0
3e00000060
f80c00c000
000f80f800
000f00f000
000e00e000
000e00e000
000e00e000
000e00e000
001c00e000
001c00e002
003800e002
003800e006
007000e006
00e000e00c
01c000f01c
038000fffe
0f00007ffe
1c00003ff8
7000000000
ENDCHAR
STARTCHAR 2429
ENCODING 9257
SWIDTH 903 0
DWIDTH 40 0
BBX 40 40 0 -6
BITMAP
0000000000
0c0000000c
0e0000001e
0fffffffff
0e00000000
0e00000000
0e00060000
0e0007c000
0e00078000
0e00070000
0e00070000
0e00070180
0e000701f0
0e180701e0
0e0c0703c0
0e06070380
0e07070700
0e03870700
0e03870e00
0e01c70c00
0e01c71800
0e00c71000
1c000f8000
1c000e8000
1c000ec000
1c000ec000
1c001c6000
18001c6000
3800383000
3800383800
3800701c00
3000700e00
3000e00f00
7001c007c0
60038003f0
60070001fe
c00e0000fe
c038000070
80e0000030
0380000000
ENDCHAR
STARTCHAR 242a
ENCODING 9258
SWIDTH 903 0
DWIDTH 40 0
BBX 40 40 0 -6
BITMAP
0000000000
0000000300
0c00000780
0fffffffc0
0e000003c0
0e00000380
0e00600380
0e007c0380
0e00780380
0e00700380
0e00700380
0e00706380
0e60707b80
0e30707380
0e3870e380
0e1c70c380
0e1c71c380
0e0e718380
0e0e730380
0e06720380
0e00700380
0e00700380
0e00700380
0e00f00380
0e00f80380
0e00e80380
0e01cc0380
0e01cc0381
0e038601c1
1c038601c1
1c070301c3
1c0e0381e3
180e01c0e3
381c00e0f6
303800f876
7070007f7e
60e0003f3e
c380001c1f
8e00000c0f
0000000006
ENDCHAR
STARTCHAR 242b
ENCODING 9259
SWIDTH 903 0
DWIDTH 40 0
BBX 40 40 0 -6
BITMAP
0030000000
003e000000
003c000000
0038000000
007000000c
007000001e
00ffffffff
00e000000f
01c000000e
01c000000e
038060000e
07007c000e
0e0078000e
1c0070000e
380070300e
60c0703e0e
0060703c0e
007070780e
003870700e
003c70e00e
001c70c01e
001c71801c
000c71001c
0000f8003c
0000e80038
0000ec0078
0001cc3ff0
0001c607e0
00038701c0
0007838180
000703c000
000e01e000
001c00f000
0038007c00
0070003f00
00e0001ff8
03c0000ff8
07000007c0
1c000001c0
7000000000
ENDCHAR
STARTCHAR 242c
ENCODING 9260
SWIDTH 903 0
DWIDTH 40 0
BBX 40 40 0 -6
BITMAP
00000c0000
00c00f8000
c0f00f0000
61e00e0000
31c00e0000
1b800e0000
0f000e0000
0e000e0000
0f000e0000
1b000e0600
33800e0f00
6183ffff80
c1c00e0780
01c00e0700
00c00e0700
00e00e0700
01e00e0700
01e18e0700
03e0ee0700
03f07e0700
07703e0700
0e701e0700
0c700f0700
18700f8700
30701fc700
60701dc700
c0701ce700
00701ce700
0070386700
0070380700
0070700701
0070700701
00f0e00703
00e0e00703
01e1c00706
03c180078e
7fc30007ff
1f860003ff
070c0001fc
0618000000
ENDCHAR
STARTCHAR 242d
ENCODING 9261
SWIDTH 903 0
DWIDTH 40 0
BBX 40 40 0 -6
BITMAP
0000000c00
00c0000f80
c0f0000f00
61e0000e00
31c0000e00
1b80000e00
0f00000e00
0e00000e00
0f00000e00
1b00000e00
3380000e0c
6180000e1e
c1c0ffffff
01c0000e00
00c0001e00
00e0001e00
01e0003e00
01e0003e00
03e0007e00
03f0006e00
077000ee00
0e7000ce00
0c7001ce00
1870038e00
3070038e00
6070070e00
c0700e0e00
00700e0e00
00701c0e00
0070380e00
0070700e00
0070e00e00
00f1c00e00
00e3000e00
01e0000e00
03c0001e00
7fc007fe00
1f8000fc00
0700003800
0600003000
ENDCHAR
STARTCHAR 242e
ENCODING 9262
SWIDTH 903 0
DWIDTH 40 0
BBX 40 40 0 -6
BITMAP
0000000000
0000000000
0000006000
0008007c00
001c007800
fffe007000
0380007000
0380007000
0380007000
0380007000
038000e000
038000e000
038000e000
038000e000
038000e000
038001c000
039801c000
7ffc01c000
038001c000
0380038000
0380038000
0380038000
0380070600
0380070300
0380070180
03800e01c0
03800e00e0
03800e0070
038e1c0070
03f81c0038
0fe038001c
ff0038001e
fc0070000e
7000e03fff
3001fffe07
0001ffc007
0000fc0007
0000700003
0000300000
0000000000
ENDCHAR
STARTCHAR 242f
ENCODING 9263
SWIDTH 903 0
DWIDTH 40 0
BBX 40 40 0 -6
BITMAP
0000018000
000001f000
000001e000
000801c000
001c01c000
fffe01c000
038001c000
038001c000
038001c000
038001c018
038001c03c
0380fffffe
038001c01e
038001c01c
038001c01c
038001c01c
039801c01c
7ffc01c01c
038001c01c
038001c01c
038001c01c
038001c01c
038003801c
038003801c
038003801c
038007001c
038007001c
038007001c
038e0e001c
03f80e001c
0fe01c0038
ff001c0038
fc00380038
7000380070
3000700070
0000e000f0
0001c0ffe0
0003800fc0
0007000380
001c000300
ENDCHAR
STARTCHAR 2430
ENCODING 9264
SWIDTH 903 0
DWIDTH 40 0
BBX 40 40 0 -6
BITMAP
000000c000
000000f800
000000f000
000400e000
000e00e000
7fff00e000
01c000e000
01c000e000
01c000e000
01c000e000
01c000e000
01c000e000
01c000e000
01c000f800
01c000ee00
01c000e700
01cc00e380
3ffe00e1c0
01c000e0e0
01c000e0f0
01c000e078
01c000e03c
01c000e03c
01c000e01c
01c000e01c
01c000e00c
01c000e000
01c000e000
01c700e000
01fc00e000
07f000e000
7f8000e000
7e0000e000
380000e000
180000e000
000000e000
000000e000
000000e000
000000e000
000000c000
ENDCHAR
STARTCHAR 2431
ENCODING 9265
SWIDTH 903 0
DWIDTH 40 0
BBX 40 40 0 -6
BITMAP
0000000030
000000003e
000000003c
0001000038
0003800038
7fffc18038
00e001f038
00e001e038
00e001c038
00e001c038
00e001c038
00e001c038
00e001c038
00e001c038
00e001c038
00e001c038
00e301c038
3fff81c038
00e001c038
00e001c038
00e001c038
00e001c038
00e001c038
00e001c038
00e001c038
00e001c038
00e001c038
00e001c038
00e7c1c038
00fc018038
0fe0000038
ff80000038
fc00000038
7000000038
3000000038
0000000078
0000001ff8
00000003f0
00000000e0
00000000c0
ENDCHAR
STARTCHAR 2432
ENCODING 9266
SWIDTH 903 0
DWIDTH 40 0
BBX 40 40 0 -6
BITMAP
0000000000
0000000018
000000003c
7ffffffffe
00001c0000
00001c0000
0000380000
0000380000
0000700000
0000738000
0000e0e000
0001c03800
0003801e00
0007000f00
000e000780
001c0003c0
00780001e0
00e00000e0
03c0000060
0f00000000
3c00000000
f180000380
01ffffffc0
01c00003c0
01c0000380
01c0000380
01c0000380
01c0000380
01c0000380
01c0000380
01c0000380
01c0000380
01c0000380
01c0000380
01c0000380
01c0000380
01ffffff80
01c0000380
01c0000300
0180000000
ENDCHAR
STARTCHAR 2433
ENCODING 9267
SWIDTH 903 0
DWIDTH 40 0
BBX 40 40 0 -6
BITMAP
0600030000
030003e000
038003c000
01c0038000
01c0038000
00c0038000
000c038000
001e038000
7fff038000
001f038000
001c038000
003c038000
0038038000
0070038000
00f0038000
00e0038000
01c0038000
03c0038000
03f0038000
07d8038000
0fdc038000
0dce038000
19ce038000
31c6038000
61c0038000
c1c0038000
01c0038000
01c0038000
01c0038001
01c0038001
01c0038003
01c0038003
01c0038006
01c0038006
01c003800e
01c003c01f
01c003ffff
01c001fffe
01c000fff8
0180000000
ENDCHAR
STARTCHAR 2434
ENCODING 9268
SWIDTH 903 0
DWIDTH 40 0
BBX 40 40 0 -6
BITMAP
0000c00000
0000700000
0000380000
0000380000
00001c0000
00001c0060
00000c00f0
1ffffffff8
0000000000
0000000000
0000000300
01800003c0
00e0000780
0070000f00
0038000e00
001c001c00
001e003800
000e003000
0006006000
000000c00c
000000001e
ffffffffff
0000380000
0000380000
0000380000
0000380000
0000380000
0000380000
0000380000
0000380000
0000380000
0000380000
0000380000
0000380000
0000380000
0000380000
0000380000
0000380000
0000380000
0000300000
ENDCHAR
STARTCHAR 2435
ENCODING 9269
SWIDTH 903 0
DWIDTH 40 0
BBX 40 40 0 -6
BITMAP
0000030000
001803e000
183c03c000
1ffe038000
1c1e038000
1c1c038000
1c1c038000
1c1c038000
1c1c038000
1c1c038300
1c1c038780
1f1cffffc0
1ddc0383c0
1cfc038380
1c7c038380
1c1c038380
1c1c038380
1c1c038380
1c1c038380
1c1c038380
1c1c038380
1c3c038380
1cfc038380
1fdc070380
1f9c070380
1b1c070380
381c070380
381c0e0380
381c0e0380
381c0e0380
381c0c0380
301c1c0381
301c180381
701c380383
601c300383
603c7003c6
47fc6003ff
c1f8c001ff
80718000fe
0063000000
ENDCHAR
STARTCHAR 2436
ENCODING 9270
SWIDTH 903 0
DWIDTH 40 0
BBX 40 40 0 -6
BITMAP
0000000000
0800000000
080000000c
180000001e
1fffffffff
380000001f
380000001c
7800000018
f000000030
f000000020
6060001800
0070003c00
007ffffe00
0070001e00
0070001c00
0070001c00
0070001c00
0073c01c00
0070fc1c00
00703f1c00
00700f9c00
0070039c00
0070001c00
0070001c00
0070001c00
007001fc00
00700f9c00
0070fe1c00
00e7f81c00
00e7e01c00
00e3801c00
00e1801c00
01c0001c00
01c0001c00
0380001c00
0380003c00
07000ffc00
0e0001f800
1c00007000
3000006000
ENDCHAR
STARTCHAR 2437
ENCODING 9271
SWIDTH 903 0
DWIDTH 40 0
BBX 40 40 0 -6
BITMAP
0060001800
007c001f00
0078001e00
0070801c04
0071c01c0e
ffffe7ffff
0070001c00
0070001c00
0070001c00
0060001800
0000000000
0000000030
0000000078
3ffffffffc
000e000000
000e000000
001c000000
001c000000
0038000000
0038000300
0070000780
00ffffffc0
00600003c0
0000000380
0000000380
0000000380
0000000380
0000000380
0000000380
0000000380
0000000780
0000000700
0000000700
0000000f00
0000000e00
0000003e00
00001ffc00
000001f800
0000007000
0000006000
ENDCHAR
STARTCHAR 2438
ENCODING 9272
SWIDTH 903 0
DWIDTH 40 0
BBX 40 40 0 -6
BITMAP
0060001800
007c001f00
0078001e00
0070801c04
0071c01c0e
ffffe7ffff
0070001c00
0070001c00
0070001c00
0060001800
0000600000
00007c0000
0000780000
0000700000
0000700000
0000700000
00007000c0
00007001e0
07fffffff0
00007000f0
00007000e0
00007000e0
00007000e0
0000e000e0
0000e000e0
0000e000e0
0000e000e0
0001c000e0
0001c000e0
00038000e0
00038001e0
00070001c0
00070001c0
000e0003c0
001c000380
0038000f80
007007ff00
01c0007e00
0700001c00
1c00001800
ENDCHAR
STARTCHAR 2439
ENCODING 9273
SWIDTH 903 0
DWIDTH 40 0
BBX 40 40 0 -6
BITMAP
0060001800
007c001f00
0078001e00
0070801c04
0071c01c0e
ffffe7ffff
0070001c00
0070001c00
0070001c00
0060001800
0000000000
0000180000
00000c0000
0000060000
0000060000
0000030000
000c030000
000f830000
000f038000
000e038000
000e018000
001e01c000
001c01c000
001c00e000
003800e000
0038007000
0038007800
0070003800
0070001c00
00e0001e00
00e0000f00
01c0000780
03800007c0
03800003f0
07000001fc
0e000000ff
1c0000007f
3800000038
6000000018
0000000000
ENDCHAR
STARTCHAR 243a
ENCODING 9274
SWIDTH 903 0
DWIDTH 40 0
BBX 40 40 0 -6
BITMAP
0000300000
00003e0000
00003c0000
0000380000
00003800c0
00003801e0
0ffffffff0
0000380000
0000380000
0000380000
0000380000
0000380000
0000380018
000038003c
7ffffffffe
0000000000
0000000000
0000001800
0700003f00
01c0007e00
00f000f800
007801e000
003c03c000
003c078000
001c0f0000
000c3c0000
0000780000
0000e00000
0001c00000
0007800000
000e000000
003c000000
00f0000000
07e0000000
1ffc000000
1f9fc0001f
0e07fffffe
0600fffff8
00003fffc0
0000000000
ENDCHAR
STARTCHAR 243b
ENCODING 9275
SWIDTH 903 0
DWIDTH 40 0
BBX 40 40 0 -6
BITMAP
0000000000
0000018000
000001f000
300001e000
1c0001c000
0f0001c000
078001c000
038001c030
018001c078
0001fffffc
000001c03c
000001c038
000001c038
018001c038
03c001c038
ffe0038038
03e0038038
0380038038
0700070038
0700070038
0e00070038
0e600e0038
1cf00e0038
3ff81c0078
38f81c0070
30e0380070
00e03800f0
01c07000e0
01c0e003e0
0381c0ffc0
0383801f80
0707000700
0e0c000600
1fc0000000
7ff8000000
f87f80000f
600ffffffe
0001fffff8
00003fffe0
0000000000
ENDCHAR
STARTCHAR 243c
ENCODING 9276
SWIDTH 903 0
DWIDTH 40 0
BBX 40 40 0 -6
BITMAP
0000000000
0060006030
007c007078
0078007ffc
007000703c
0070007038
0070007030
0070007070
0070007060
3070c070e0
3c70f070c0
3870e07180
3870e07180
3870e07300
3870e07180
3870e070c0
3870e07060
3870e07030
3870e07038
3870e07018
3870e0701c
3870e0701c
3870e0700e
3870e0700e
3870e0700e
3870e0700e
3870e0700e
3870e0701e
3870e0703e
3870e07ffc
7fffe071f8
3000e07070
0000c07060
0000007000
0000007000
0000007000
0000007000
0000007000
0000007000
0000006000
ENDCHAR
STARTCHAR 243d
ENCODING 9277
SWIDTH 903 0
DWIDTH 40 0
BBX 40 40 0 -6
BITMAP
0000000000
0180006030
01f0007078
01e0007ffc
01c000703c
01c0c07038
01c0f07030
01c0e07070
01c0e07060
01c0e070e0
01fffe70c0
fff0e07180
ff80e07180
7380e07300
3380e07180
0380e070c0
0380e07060
0380e07030
0381c07038
0701c07018
0701c0701c
0701c0701c
070380700e
0e0380700e
0e0380700e
0f8700700e
1fef00700e
0c7e00700e
003f00701e
003f807ffc
007bc071fc
0071e07078
00e0f07070
01c0787000
0380387000
0700387000
0e00187000
3800007000
e000007000
0000006000
ENDCHAR
STARTCHAR 243e
ENCODING 9278
SWIDTH 903 0
DWIDTH 40 0
BBX 40 40 0 -6
BITMAP
0000000000
6060000060
70f00000f0
7ff87ffff8
70780000f8
70700001e0
7060000380
70e0000700
70c0000e00
70c0001800
7180007000
7180007000
7300007000
7300007000
7100007000
7180007000
70c0007000
70e000700c
706000701e
7073ffffff
7070007000
7038007000
7038007000
7038007000
7038007000
7038007000
7038007000
7078007000
7ff0007000
71f0007000
70e0007000
70c0007000
7000007000
7000007000
7000007000
700000f000
70003ff000
700007e000
700001c000
6000018000
ENDCHAR
STARTCHAR 243f
ENCODING 9279
SWIDTH 903 0
DWIDTH 40 0
BBX 40 40 0 -6
BITMAP
0000000000
0000000018
000000003c
7ffffffffe
000e00e000
000e00e000
000e00e000
000e00e000
000e00e000
300e00e030
380e00e078
3ffffffffc
380e00e03c
380e00e038
380e00e038
380e00e038
380e00e038
380e00e038
380e00e038
380e00e038
381d01d038
381d81d038
381cc1d838
3818e1c838
3838e38c38
3838738c38
3830730e38
3870370638
3860060738
38e00e07b8
38c00c03b8
3980180338
3b00300038
3800600038
3800000038
3800000078
3800003ff8
38000003f0
38000000e0
30000000c0
ENDCHAR
STARTCHAR 2440
ENCODING 9280
SWIDTH 903 0
DWIDTH 40 0
BBX 40 40 0 -6
BITMAP
000180c000
0007c0f800
001fe0f000
00fe00e000
07f000e000
3f7000e000
007000e000
007000e000
007000e000
007000e000
007000e000
007060e000
0070f0e000
fffff8e000
007000e000
007000e000
007000e000
007000e000
007000e000
007000e000
007000e000
0070c0e000
3071e0e000
3ffff0e000
3800f0e000
3800e0e000
3800e0e000
3800e0e000
3800e0e001
3800e0e001
3800e0e003
3800e0e003
3800e0e006
3800e0e006
3800e0e00e
3fffe0f01f
3800e0ffff
3800c07ffe
3000003ff8
0000000000
ENDCHAR
STARTCHAR 2441
ENCODING 9281
SWIDTH 903 0
DWIDTH 40 0
BBX 40 40 0 -6
BITMAP
0000000000
0001800060
0001c000f0
0001fffff8
0001c00078
0001c00070
0001c00070
0021c00070
0071c00070
fff9c00070
0001c00070
0001c00070
0001c00070
0001c00070
0001c00070
0001c00070
0001c00070
0001fffff0
0001c71c70
0001871c60
0000071c00
0000071c00
0000071c00
0000071c00
0010071c00
0038071c00
fffc0e1c00
00000e1c00
00000e1c00
00001c1c01
00001c1c01
0000381c03
0000381c03
0000701c07
0000e01c06
0001c01e0e
0003801fff
0007000fff
001c0007fe
0070000000
ENDCHAR
STARTCHAR 2442
ENCODING 9282
SWIDTH 903 0
DWIDTH 40 0
BBX 40 40 0 -6
BITMAP
0000000000
0000000060
00000000f0
1ffffffff8
000701c000
000701c000
000701c000
000701c000
000701c000
000701c000
000701c000
000701c0c0
0c0701c1e0
0ffffffff0
0e0701c0f0
0e0701c0e0
0e0701c0e0
0e0701c0e0
0e0701c0e0
0e0701c0e0
0e0701c0e0
0e0701c0e0
0e0701c0e0
0e0701c0e0
0e0701c0e0
0fffffffe0
0e0701c0e0
0e0701c0c0
0c0701c000
000701c000
000701c000
000701c000
000701c000
000701c000
000701c000
000701c00c
000701c01e
ffffffffff
0000000000
0000000000
ENDCHAR
STARTCHAR 2443
ENCODING 9283
SWIDTH 903 0
DWIDTH 40 0
BBX 40 40 0 -6
BITMAP
006000c000
007c00f800
007800f000
007000e000
00f000e000
00e000e000
00e000e0c0
01c000e1e0
01c1fffff0
038000e000
038000e000
078000e000
078000e000
0f8000e000
0f8000e000
1f8000e000
3b8000e030
338000e078
6387fffffc
c38001e000
038001e000
038003f000
038003f800
038006e800
038006ec00
03800ee600
03800ce700
03801ce380
038038e3c0
038030e1e0
038070e0f8
0380e0e07f
0381c0e03f
038380e01c
038700e00c
038e00e000
03b800e000
038000e000
038000e000
030000c000
ENDCHAR
STARTCHAR 2444
ENCODING 9284
SWIDTH 903 0
DWIDTH 40 0
BBX 40 40 0 -6
BITMAP
0060003000
007c003e00
0078003c00
0070003800
00f0003800
00e0003800
00e0003800
01c0c0380c
01c0e0381e
0380ffffff
0380e0381f
0780e0381c
0780e03818
0f80e03830
0f80e03820
1f80e03800
3b80e03800
3380e03860
6380e038f0
c380effff8
0380e200f8
0380e200e0
0380e300e0
0380e101c0
0380e181c0
0380e0c380
0381c0c380
0381c06700
0381c07e00
0383803e00
0383803c00
0383807e00
0387007700
038700e3c0
038601c1e0
038c0380f8
038c07007f
03980e003f
039038001c
0300e00000
ENDCHAR
STARTCHAR 2445
ENCODING 9285
SWIDTH 903 0
DWIDTH 40 0
BBX 40 40 0 -6
BITMAP
0030000000
003e000000
003c300180
00783803c0
00703fffe0
00703801e0
00e03801c0
00e03801c0
01c03801c0
01c03801c0
03803801c0
03803801c0
07803801c0
07803801c0
0f803801c0
0f803fffc0
1f803801c0
3b803801c0
33803801c0
63803801c0
c3803801c0
03803801c0
03803801c0
03803801c0
03803801c0
03803801c0
03803fffc0
03803801c0
03803801c0
03803801c0
03803801c0
03803801c0
03803801c0
03803801c0
03803801c0
03803801c4
03803801ce
038fffffff
0380000000
0300000000
ENDCHAR
STARTCHAR 2446
ENCODING 9286
SWIDTH 903 0
DWIDTH 40 0
BBX 40 40 0 -6
BITMAP
0030006000
003e007c00
003c007800
0078007000
0070007000
0070007000
00e0007000
00e0007000
01c0007000
01c0007000
03c1807018
0381c0703c
0781fffffe
0781c0701e
0f81c0701c
0f81c0701c
1f81c0701c
3b81c0701c
3381c0701c
6381c0701c
c381c0701c
8381c0701c
0381c0701c
0381c0701c
0381fffffc
0381c0701c
0381c0701c
0381c0701c
0381c0701c
0381c0701c
0381c0701c
0381c0701c
0381c0701c
0381c0701c
0381c0701c
0381c0701c
0381fffffc
0381c0001c
0381c00018
0301800000
ENDCHAR
STARTCHAR 2447
ENCODING 9287
SWIDTH 903 0
DWIDTH 40 0
BBX 40 40 0 -6
BITMAP
0060001800
007c001f00
0078c01e00
0070f81c00
00f0f01c00
00e0e01c00
00e1c01c00
01c1c01c00
01c3801c00
0383801c0c
0387001c1e
070703ffff
070e181c0f
0f0e1e1c0e
0f1c1c1c0e
1f1c1c1c0e
3f38381c0e
373e381c0e
6707f01c0e
c701e01c0e
0700e01c0e
0701c01c0e
0701c01c0e
070380380e
0703b0380e
070718380e
07061c380e
070e0e700e
071c7e700e
073fce700e
073f06e01e
071c00e01c
070c01c01c
070001c03c
0700038038
07000700f8
07000e3ff0
07001c07e0
07003801c0
0600e00180
ENDCHAR
STARTCHAR 2448
ENCODING 9288
SWIDTH 903 0
DWIDTH 40 0
BBX 40 40 0 -6
BITMAP
0060000000
007c600030
0078700078
00707ffffc
00f070003c
00e0700038
00e0700038
01c0700038
01c0700038
0380700038
0380700038
0780700038
07807ffff8
0f80700038
0f80700030
1f80700000
3b80718000
338071f000
638071e000
c38071c000
038071c000
038071c000
038071c030
038071c078
038071fffc
0380e1c000
0380e1c000
0380e1c000
0380e1c000
0381c1c000
0381c1c001
0381c1c001
038381c003
038381c003
038301c006
038701e00e
038601ffff
038c00ffff
0398007ffe
0300000000
ENDCHAR
STARTCHAR 2449
ENCODING 9289
SWIDTH 903 0
DWIDTH 40 0
BBX 40 40 0 -6
BITMAP
0060000000
007c000000
0078000018
007000003c
00f1fffffe
00e0003800
00e0003800
01c0003800
01c0003800
0380003800
0380003800
0780003800
0780003800
0f80003800
0f80303800
1f803e3800
3b803c3800
3380383810
6380383838
c380383ffc
0380383800
0380383800
0380383800
0380383800
0380383800
0380383800
0380383800
0380383800
0380383800
0380383800
0380383800
0380383800
0380383800
0380383800
0380383800
038038380c
038038381e
0387ffffff
0380000000
0300000000
ENDCHAR
STARTCHAR 244a
ENCODING 9290
SWIDTH 903 0
DWIDTH 40 0
BBX 40 40 0 -6
BITMAP
0060000000
007c00000c
007800001e
0073ffffff
00f0007000
00e0007000
00e0007000
01c0007000
01c0007000
0380007000
0381807018
0781c0703c
0781fffffe
0f81c0701e
0f81c0701c
1f81c0701c
3b81c0f81c
3381c0ec1c
6381c0e61c
c381c1c71c
0381c1c39c
0381c1839c
0381c381dc
0381c301dc
0381c701dc
0381c600dc
0381cc00dc
0381d8001c
0381f0001c
0381c0001c
0381c0001c
0381c0001c
0381c0001c
0381c0001c
0381c0001c
0381c0003c
0381c00ffc
0381c001f8
0381c00070
0301800060
ENDCHAR
STARTCHAR 244b
ENCODING 9291
SWIDTH 903 0
DWIDTH 40 0
BBX 40 40 0 -6
BITMAP
0060000000
007c300300
00783e03e0
00703c03c0
00f0380380
00e0380380
00e0380380
01c0380380
01c038038c
038038039e
039fffffff
0780380380
0780380380
0f80380380
0f80380380
1f80380380
3b80380380
3380380380
6380380380
c380380380
0380380380
0380380380
03803fff80
0380380380
0380380380
0380380380
0380380380
0380380380
0380380380
0380380380
0380380380
0380380380
0380380380
0380380380
0380380380
03803fff80
0380380380
0380380300
0380300000
0300000000
ENDCHAR
STARTCHAR 244c
ENCODING 9292
SWIDTH 903 0
DWIDTH 40 0
BBX 40 40 0 -6
BITMAP
0060000000
007c000018
007800003c
0071fffffe
00f001c01e
00e001c01c
00e001c01c
01c001c01c
01c001c01c
038003801c
038003801c
078003801c
078007001c
0f8007001c
0f800e003c
1f800e0038
3b801c1ff8
33801c03f0
63803800e0
c3807000c0
0380e00000
0381c00000
0383b00038
03873ffffc
038c38003c
0380380038
0380380038
0380380038
0380380038
0380380038
0380380038
0380380038
0380380038
0380380038
0380380038
0380380038
03803ffff8
0380380038
0380380030
0300300000
ENDCHAR
STARTCHAR 244d
ENCODING 9293
SWIDTH 903 0
DWIDTH 40 0
BBX 40 40 0 -6
BITMAP
0060000000
007cc00180
0078e003c0
0070ffffe0
00f0e001e0
00e0e001c0
00e0e001c0
01c0e301c0
01c0e1c1c0
0380e0e1c0
0380e071c0
0780e071c0
0780e031c0
0f80e001c0
0f80e001c0
1f80e001c4
3b80e001ce
339fffffff
6381c001c0
c381c001c0
0381c001c0
0381c601c0
0381c381c0
0381c1c1c0
0381c0e1c0
0381c071c0
0381c071c0
0381c031c0
0381c001c0
0381c001c8
0381c001dc
0383fffffe
0381800380
0380000380
0380000380
0380000700
038003ff00
0380007e00
0380001c00
0300001800
ENDCHAR
STARTCHAR 244e
ENCODING 9294
SWIDTH 903 0
DWIDTH 40 0
BBX 40 40 0 -6
BITMAP
0060000000
007c000000
0078300060
00703800f0
00f03ffff8
00e0380078
00e0380070
01c0380070
01c0380070
0380380070
0380380070
0780380070
0780380070
0f80380070
0f80380070
1f803ffff0
3b80380070
3380380060
6380380000
c380380000
0380380000
0380380018
038038003c
03803ffffe
038038001e
038038001c
038038001c
038038001c
038038001c
038038001c
038038001c
038038001c
038038001c
038038001c
038038001c
03803ffffc
038038001c
0380380018
0380380000
0300300000
ENDCHAR
STARTCHAR 244f
ENCODING 9295
SWIDTH 903 0
DWIDTH 40 0
BBX 40 40 0 -6
BITMAP
0060000000
007c000000
007800000c
007180001e
00f1ffffff
00e1c3870f
00e1c3870e
01c1c3870e
01c1c3870e
0381c3870e
0381c3870e
0781c3870e
0781c3870e
0f81c3870e
0f81c3870e
1f81c3870e
3b81c3870e
3381c3870e
6381c3870e
c381c7070e
0381c7070e
0381c7078e
0381ce07fe
0381ce03fe
0381dc01fe
0381d8000e
0381f0000e
0381c0000e
0381c0000e
0381c0000e
0381c0000e
0381c0000e
0381c0000e
0381c0000e
0381c0000e
0381fffffe
0381c0000e
0381c0000c
0381800000
0300000000
ENDCHAR
STARTCHAR 2450
ENCODING 9296
SWIDTH 903 0
DWIDTH 40 0
BBX 40 40 0 -6
BITMAP
0060030000
007c03e000
007803c000
0070038000
00f0038000
00e007c000
00e0076000
01c00f3000
01c00e1800
03801e1c00
03801c0e00
0780380780
07807003e0
0f80e001f8
0f81c180ff
1f8381f07f
3b8701e038
338e01c018
63b801c000
c38001c000
038001c000
0380c1c000
0380f9c600
0380f1c300
0380e1c180
0381c1c0c0
0381c1c0e0
0381c1c070
038381c078
038301c038
038701c03c
038601c01c
038c01c01c
039801c00c
039001c000
038003c000
0380ffc000
03801f8000
0380070000
0300060000
ENDCHAR
STARTCHAR 2451
ENCODING 9297
SWIDTH 903 0
DWIDTH 40 0
BBX 40 40 0 -6
BITMAP
0000003000
00c0003e00
0070007c00
0038007800
001c00f000
000e00e000
000f01c000
0007038000
0003030000
0000060c00
00c00c1e00
00ffffff00
00e0000f00
00e0000e00
00e0000e00
00e0000e00
00e0000e00
00e0000e00
00e0000e00
00e0000e00
00e0000e00
00e0000e00
00e0000e00
00fffffe00
00e3838c00
00c3838000
0003838000
0003838000
0007038000
0007038001
000f038001
000e038003
001c038003
0038038006
0070038006
00e003c00e
01c003ffff
070001ffff
1c0000fffe
7000000000
ENDCHAR
STARTCHAR 2452
ENCODING 9298
SWIDTH 903 0
DWIDTH 40 0
BBX 40 40 0 -6
BITMAP
0000000000
0000001800
0000003c00
03fffffe00
000e001e00
000e001c00
001c001c00
001c001c00
0038003800
0038007800
00700ff000
00e001e000
01c001c000
0380000380
07ffffffc0
0dc03803c0
19c0380380
01c0380380
01c0380380
01c0380380
01c0380380
01c0380380
01c0380380
01ffffff80
01c0730300
018073c000
0000738000
0000e38000
0000e38000
0001c38001
0001c38001
0003838003
0007038003
000e038006
001c038006
007803c00e
00f003ffff
03c001ffff
1f0000fffc
7800000000
ENDCHAR
STARTCHAR 2453
ENCODING 9299
SWIDTH 903 0
DWIDTH 40 0
BBX 40 40 0 -6
BITMAP
0000000000
01800000c0
01f01801e0
01e01ffff0
01c01c00f0
01c01c00e0
01c01c00e0
01c01c00e0
01c01c00e0
01c01c00e0
01c01c00e0
01c01fffe0
01c01c00e0
01c01c00e0
01c01c00e0
01c01c00e0
01c01c00e0
01c01c00e0
01c01c00e0
01c01c00e0
01c01fffe0
01c01c00e0
01c01800c0
0180000000
000c00c000
000f80f800
000f00f000
000e00e000
000e00e000
000e00e000
000e00e001
001c00e001
001c00e003
003800e003
007000e006
00e000f00e
01c000ffff
0700007fff
1c00003ffe
7000000000
ENDCHAR
STARTCHAR 2454
ENCODING 9300
SWIDTH 903 0
DWIDTH 40 0
BBX 40 40 0 -6
BITMAP
0000000000
000000f000
000003fc00
00003ffe00
0001ff0000
001ff80000
01fe380000
0000380000
0000380000
0000380000
0000380000
0600380180
07003803c0
07ffffffe0
07003801e0
07003801c0
07003801c0
07003801c0
07003801c0
07003801c0
07003801c0
07003801c0
07ffffffc0
0700760180
0700778000
0600e70000
0000e71800
0001c70e00
0001c70700
0003870380
00038703c1
00070701c1
000e0701c3
001c0700c3
0038070006
007007800e
01e007ffff
078003ffff
1e0001fffc
7800000000
ENDCHAR
STARTCHAR 2455
ENCODING 9301
SWIDTH 903 0
DWIDTH 40 0
BBX 40 40 0 -6
BITMAP
0000000000
0000000000
0000000018
300000003c
3ffffffffe
380038001e
380038001c
380038001c
380038001c
38c038601c
386038301c
387038301c
383038181c
383038181c
3838381c1c
3818380c1c
3838381c1c
3838381c1c
387c383e1c
386c38361c
386c38361c
38ee38771c
38ce38631c
39c738e31c
398739c39c
3987b9839c
3b03bb03dc
3e033e01dc
380038019c
380038001c
380038001c
380038001c
380038001c
380038001c
380038001c
380038003c
3800381ffc
38003801f8
3800380070
3000300060
ENDCHAR
STARTCHAR 2456
ENCODING 9302
SWIDTH 903 0
DWIDTH 40 0
BBX 40 40 0 -6
BITMAP
0000000000
0000000180
03000003c0
03ffffffe0
03800001e0
03800001c0
03803001c0
03803e01c0
03803c01c0
03803801c0
03803801c0
03803801c0
03807801c0
03807001c0
03807601c0
0380e301c0
0380e181c0
0381c1c1c0
0381c0e1c0
03838071c0
03870079c0
038e0039c0
039c0019c0
03b00001c0
03800001c4
03800001ce
ffffffffff
0000000000
0000000000
0030000000
003e003800
007c000e00
0078000780
00f00001e0
01e00000f0
03c0000078
078000003c
0e0000001c
380000000c
6000000000
ENDCHAR
STARTCHAR 2457
ENCODING 9303
SWIDTH 903 0
DWIDTH 40 0
BBX 40 40 0 -6
BITMAP
0000000000
0800000000
080000000c
180000001e
1fffffffff
380000001f
380000001c
7800000018
f000000030
f000000020
6000003000
0030007800
003ffffc00
0038003c00
0038003800
0038003800
0038003800
0038003800
0038003800
0038003800
003ffff800
0038003800
0038003800
0038003800
0038003800
0038003800
0038003800
0038003800
003ffff800
0038003800
0038003800
0038003800
0038003800
0038003800
0038003800
0038003818
003800383c
7ffffffffe
0000000000
0000000000
ENDCHAR
STARTCHAR 2458
ENCODING 9304
SWIDTH 903 0
DWIDTH 40 0
BBX 40 40 0 -6
BITMAP
0000000000
0000000000
000000000c
300000001e
1c0fffffff
0e00038000
0700038000
0780038000
0380038000
0180070000
0010070000
0010070000
0030070000
00200e0000
00600e0000
00600e0000
00c01c0000
00c01c0030
01c01c0078
01803ffffc
03803c003c
03007c0038
07007c0038
0700fc0038
0e00dc0038
1e01dc0038
fc019c0038
7c031c0038
3c031c0038
1c061c0038
1c0c1c0038
0e081c0038
0e001c0038
0f001c0038
0f001c0038
0f001ffff8
0f001c0038
06001c0030
0000180000
0000000000
ENDCHAR
STARTCHAR 2459
ENCODING 9305
SWIDTH 903 0
DWIDTH 40 0
BBX 40 40 0 -6
BITMAP
0000000000
0001800060
0001c000f0
6001fffff8
3801c00078
1c01c00070
0e01c00070
0f01c00070
0701c00070
0301c00070
0021c00070
0021c00070
0061c00070
0041c00070
00c1c00070
00c1c00070
0181fffff0
0181c71c70
0381871c60
0300071c00
0300071c00
0700071c00
0600071c00
0e000e1c00
0e000e1c00
1c000e1c00
fc001c1c00
7c001c1c00
38001c1c00
3800381c01
1c00381c01
1c00701c03
1c00701c03
1e00e01c06
1e01c01e0e
1e03801fff
1e07000fff
0c1c0007fe
0070000000
0000000000
ENDCHAR
STARTCHAR 245a
ENCODING 9306
SWIDTH 903 0
DWIDTH 40 0
BBX 40 40 0 -6
BITMAP
000000c000
000000f800
000000f000
600000e060
380300e07c
1c01c0e078
0e00e0e0f0
0f00f0e0e0
070070e1e0
030078e1c0
002038e380
002038e300
006018e600
004000e410
00c000e038
00c3fffffc
018000e000
018000e000
038000e000
030000e000
030000e000
070000e000
060000e000
0e0000e00c
0e0000e01e
1c0fffffff
fc0000e000
7c0000e000
380000e000
380000e000
1c0000e000
1c0000e000
1c0000e000
1e0000e000
1e0000e000
1e0000e000
1e0000e000
0c0000e000
000000e000
000000c000
ENDCHAR
STARTCHAR 245b
ENCODING 9307
SWIDTH 903 0
DWIDTH 40 0
BBX 40 40 0 -6
BITMAP
0000000300
0600000780
07ffffffc0
07000003c0
0700000380
0700000380
0700000380
070000c380
070001e380
073ffff380
0700000380
0700000380
0700000380
0700018380
070c03c380
070fffe380
070e01e380
070e01c380
070e01c380
070e01c380
070e01c380
070e01c380
070e01c380
070e01c380
070fffc380
070e01c380
070e01c380
070e01c380
0e0e01c1c0
0e0e01c1c1
0e0e01c1c1
1c0e01c1c3
1c0e01c0e3
180fffc0e6
380e01c076
300c01807e
600000003e
c00000001f
800000000f
0000000006
ENDCHAR
STARTCHAR 245c
ENCODING 9308
SWIDTH 903 0
DWIDTH 40 0
BBX 40 40 0 -6
BITMAP
0060000018
007c00001f
007800001e
00f000001c
00e000001c
01c000181c
01c0001f1c
0380001e1c
0380001c1c
0701801c1c
0700c01c1c
0e00601c1c
0e00301c1c
1c00381c1c
18001c1c1c
38001c1c1c
701ffe1c1c
fff80e1c1c
ff800e1c1c
78000e1c1c
3800061c1c
0000001c1c
0000601c1c
1800f01c1c
1ffff81c1c
1c00781c1c
1c00701c1c
1c00701c1c
1c00701c1c
1c0070181c
1c0070001c
1c0070001c
1c0070001c
1c0070001c
1c0070001c
1c0070003c
1ffff00ffc
1c007001f8
1c00600070
1800000060
ENDCHAR
STARTCHAR 245d
ENCODING 9309
SWIDTH 903 0
DWIDTH 40 0
BBX 40 40 0 -6
BITMAP
00c0000000
00f8000000
00f000000c
00e000001e
00e03fffff
00e000700f
00e100700e
00e380700e
3fffc0700e
00e000700e
00e000700e
00e000700e
00e000700e
00e000700e
00e000700e
00e000700e
00e060700e
00e0f0700e
fffff8700e
01c000700e
01c000700e
01c000700e
038000e00e
038000e00e
070600e00e
070300e00e
0e0181c00e
0e01c1c00e
1c01e1c01e
1c00e1c01c
383fe3801c
7ff0e3801c
7f80e7003c
3c00670038
1c000e00f8
00000c3ff0
00001807e0
00003001c0
0000600180
0000c00000
ENDCHAR
STARTCHAR 245e
ENCODING 9310
SWIDTH 903 0
DWIDTH 40 0
BBX 40 40 0 -6
BITMAP
0030000018
003e00001f
003c00001e
003800001c
003800001c
003800181c
0038001f1c
0038001e1c
0038201c1c
0038701c1c
3ffff81c1c
0038001c1c
0038001c1c
0038001c1c
0038001c1c
0038001c1c
0038001c1c
0038001c1c
0038181c1c
00383c1c1c
fffffe1c1c
0070001c1c
0070001c1c
0070001c1c
00e0001c1c
00e0001c1c
01c0001c1c
01c0001c1c
0381801c1c
0380c0181c
070060001c
0e0070001c
0e0038001c
1c07fc001c
38fe1c001c
7ff01e003c
7f000e0ffc
3c000e01f8
1c00060070
0000000060
ENDCHAR
STARTCHAR 245f
ENCODING 9311
SWIDTH 903 0
DWIDTH 40 0
BBX 40 40 0 -6
BITMAP
0000000018
000030001f
000078001e
7ffffc001c
01c03c001c
01c038181c
01c0381f1c
01c0381e1c
01c0381c1c
01c0381c1c
0380381c1c
0380381c1c
0380381c1c
0700381c1c
0700781c1c
0e00701c1c
0e00f01c1c
1c3fe01c1c
380fc01c1c
3003801c1c
6003001c1c
c000601c1c
8000f01c1c
3ffff81c1c
3800781c1c
3800701c1c
3800701c1c
3800701c1c
3800701c1c
380070181c
380070001c
380070001c
380070001c
380070001c
380070001c
380070003c
3ffff00ffc
38007001f8
3000600070
0000000060
ENDCHAR
STARTCHAR 2460
ENCODING 9312
SWIDTH 903 0
DWIDTH 40 0
BBX 40 40 0 -6
BITMAP
0000000018
000060001f
1800f0001e
1ffff8001c
1c0078001c
1c0070181c
1c00701f1c
1c00701e1c
1c00701c1c
1c00701c1c
1c00701c1c
1c00701c1c
1c00701c1c
1c00701c1c
1ffff01c1c
1cc0601c1c
18f8001c1c
00f0001c1c
00e0001c1c
00e0301c1c
00e0781c1c
7ffffc1c1c
00e03c1c1c
00e0381c1c
00e0381c1c
00e0381c1c
01c0381c1c
01c0381c1c
01c0381c1c
038038181c
038038001c
070038001c
070078001c
0e0070001c
0e00f0001c
1c01e0003c
187fc00ffc
301f8001f8
6007000070
0006000060
ENDCHAR
STARTCHAR 2461
ENCODING 9313
SWIDTH 903 0
DWIDTH 40 0
BBX 40 40 0 -6
BITMAP
0000000018
000000001f
187187001e
1ff9ff801c
1c79c7801c
1c71c70c1c
1c71c70f9c
1c71c70f1c
1c71c70e1c
1c71c70e1c
1c71c70e1c
1c71c70e1c
1c71c70e1c
1c71c70e1c
1c71c70e1c
1c71c70e1c
1c71c70e1c
1c71c70e1c
1c71c70e1c
ffffffee1c
1c71c70e1c
1c71c70e1c
1c71c70e1c
1c71c70e1c
1c71c70e1c
1c71c70e1c
1c71c70e1c
1c71c70e1c
1c71c70e1c
1c71c70c1c
1c71c7001c
1c71c7001c
1c71c7001c
1c71c7001c
1c71c7001c
1c71c7003c
1c71c70ffc
1df1df01f8
1c71c70070
1861860060
ENDCHAR
STARTCHAR 2462
ENCODING 9314
SWIDTH 903 0
DWIDTH 40 0
BBX 40 40 0 -6
BITMAP
0000000180
00018001f0
0600e001e0
03807003c0
01c0380380
00e03c0700
00f01c0700
00701e0e00
00700e0c00
0030061800
0000003000
100000200c
100000001e
3fffffffff
300000001f
700000001c
7001800038
e001f00030
e001e00060
c001c00040
0001c00000
0001c00300
0001c00780
07ffffffc0
0001c003c0
0001c00380
0001800380
0003800380
0003800380
0007000380
0007000380
000e000780
000e000700
001c000700
0038000f00
0070001e00
00e03ffc00
03c001f800
0f00007000
3c00006000
ENDCHAR
STARTCHAR 2463
ENCODING 9315
SWIDTH 903 0
DWIDTH 40 0
BBX 40 40 0 -6
BITMAP
0060001800
007c001f00
0078001e00
0070001c04
0070001c0e
ffffffffff
0070001c00
0070001c00
0070001c00
0060001800
0000000000
100000000c
100000001e
3fffffffff
300000001f
700000001c
7001800038
e001f00030
e001e00060
c001c00040
0001c00000
0001c00300
0001c00780
07ffffffc0
0001c003c0
0001c00380
0001800380
0003800380
0003800380
0007000380
0007000380
000e000780
000e000700
001c000700
0038000f00
0070001e00
00e03ffc00
03c001f800
0f00007000
3c00006000
ENDCHAR
STARTCHAR 2464
ENCODING 9316
SWIDTH 903 0
DWIDTH 40 0
BBX 40 40 0 -6
BITMAP
00c0003000
00f8003e00
00f0003c00
00e0003800
00e0003800
30e3003800
3ce3c03800
38e3803800
38e3803800
38e3803800
38e380380c
38e380381e
38e39fffff
38e380380f
38e380380e
38e380380e
7fff80380e
30e380380e
00e300380e
00e000380e
00e000380e
60e180380e
78e1e0380e
70e1c0380e
70e1c0700e
70e1c0700e
70e1c0700e
70e1c0e00e
70e1c0e00e
70e1c0e00e
70e1c1c01e
70e1c1c01c
70e1c3801c
ffffc3003c
6001c70038
00018e00f8
00001c1ff0
00003803e0
00007001c0
0001c00180
ENDCHAR
STARTCHAR 2465
ENCODING 9317
SWIDTH 903 0
DWIDTH 40 0
BBX 40 40 0 -6
BITMAP
0000000000
3000000018
380000003c
3ffffffffe
3800000000
3800180000
38001e0000
38003c0000
3800780000
3800e01800
3801c00e00
3803800700
3807000380
381c03ffc0
383fff81e0
383fe000e0
381c0000e0
380d806060
3801e07800
3801c07000
3801c07000
3801c07020
3801c07070
39fffffff8
3801c07000
3801c07000
3801c07000
3803807000
3803807000
3803807000
3807007000
3807007000
380e007000
380c007000
3818007000
383000600c
380000001e
7fffffffff
3000000000
0000000000
ENDCHAR
STARTCHAR 2466
ENCODING 9318
SWIDTH 903 0
DWIDTH 40 0
BBX 40 40 0 -6
BITMAP
0000000000
0000000018
000000003c
fffffffffe
3800000000
3803000000
3803c00000
3803800000
3807000100
3807000380
380fffffc0
380e070000
381c070000
3818070000
3830070000
3860070000
3800070000
3800070060
38000700f0
38fffffff8
38000e0000
38000e0000
38001cc000
38001c7000
3800383800
3800381e00
3800700f00
3800e00780
3801c003c0
38038001e0
38070000e0
381c000060
3870000000
3800000000
3c00000000
1ffffffffe
0fffffffff
07ffffffff
0000000000
0000000000
ENDCHAR
STARTCHAR 2467
ENCODING 9319
SWIDTH 903 0
DWIDTH 40 0
BBX 40 40 0 -6
BITMAP
0030000000
003c000000
003800600c
003800701e
0038007fff
003800700f
003800700e
003800700e
003840700e
0038e0700e
1ffff0700e
003800700e
003800700e
003800700e
003800700e
003800700e
003800700e
003800700e
003808700e
00381c700e
fffffe700e
007000700e
007000700e
007000700e
00e000700e
00e000700e
01c000700e
01c000701e
03830073fc
038180707c
0700c07038
0700e07030
0e00707000
0e07f07000
1c7c787000
3fe0387000
3f00387000
1c00187000
0c00007000
0000006000
ENDCHAR
STARTCHAR 2468
ENCODING 9320
SWIDTH 903 0
DWIDTH 40 0
BBX 40 40 0 -6
BITMAP
0000000000
0c0000000c
0e0000001e
0fffffffff
0e00000000
0e00000000
0e00300000
0e00180000
0e000c0000
0e000e0000
0e00070000
0e000700c0
0e000301e0
0e3ffffff0
0e00000000
0e00000000
0e00000600
0e000007c0
0e00000780
0e0c000700
0e06000f00
0e03000e00
0e03800e00
1c01c00e00
1c01c01c00
1c01c01c00
1c00e03800
1800e03800
3800e03800
3800707000
3800707000
3000706000
300030e000
700030c000
6000008000
600000000c
c00000001e
c0ffffffff
8000000000
0000000000
ENDCHAR
STARTCHAR 2469
ENCODING 9321
SWIDTH 903 0
DWIDTH 40 0
BBX 40 40 0 -6
BITMAP
0000000000
0c0000000c
0e0000001e
0fffffffff
0e00000000
0e00000000
0e00030000
0e0003e000
0e0003c000
0e00038000
0e00038000
0e00038000
0e00038000
0e00038030
0e00038078
0e7ffffffc
0e00038000
0e00038000
0e00038000
0e00038000
0e00038000
0e00038000
0e06038180
1c070383c0
1c07ffffe0
1c070001e0
1c070001c0
18070001c0
38070001c0
38070001c0
38070001c0
30070001c0
30070001c0
70070001c0
60070001c0
6007ffffc0
c0070001c0
c007000180
8006000000
0000000000
ENDCHAR
STARTCHAR 246a
ENCODING 9322
SWIDTH 903 0
DWIDTH 40 0
BBX 40 40 0 -6
BITMAP
0000000000
0c0000000c
0e0000001e
0fffffffff
0e00000000
0e00000000
0e18000060
0e1c0000f0
0e1ffffff8
0e1c038078
0e1c038070
0e1c038070
0e1c038070
0e1c038070
0e1c038070
0e1ffffff0
0e1c038070
0e1c038070
0e1c038070
0e1c038070
0e1c038070
0e1c038070
1c1ffffff0
1c1c038070
1c18038060
1c00038000
1c00038000
1800038000
3800038000
3800038000
3800038000
3000038000
3000038000
7000038000
6000038000
6000038000
c000038000
c000038000
8000030000
0000000000
ENDCHAR
STARTCHAR 246b
ENCODING 9323
SWIDTH 903 0
DWIDTH 40 0
BBX 40 40 0 -6
BITMAP
00000c0000
0000070000
0000038000
000001c000
000001e000
603000e000
707800e000
7ffc006000
703c00000c
703800001e
703bffffff
7038070000
7038070000
7038070000
7038070000
7038070000
70380700c0
70380701e0
703807fff0
70380e00f0
70380e00e0
70380e00e0
70380e00e0
70380e00e0
70381c00e0
70381c00e0
7ff81c00e0
70381c00e0
70383800e0
70303800e0
60007001e0
00007001c0
0000e001c0
0000e003c0
0001c00380
0003800780
000703ff00
000e007e00
001c001c00
0030001800
ENDCHAR
STARTCHAR 246c
ENCODING 9324
SWIDTH 903 0
DWIDTH 40 0
BBX 40 40 0 -6
BITMAP
0000003000
0000003e00
0000003c00
0000003800
0000003800
6030003860
70780039f0
7ffc003ff8
703c00ff00
703807f800
70383f3800
7038003800
7038003800
7038003800
7038003800
7038003810
7038003838
70387ffffc
7038003800
7038003800
7038003800
7038003800
7038003800
7038003800
703800380c
703800381e
7ff9ffffff
7038003800
7038003800
7030003800
6000003800
0000003800
0000003800
0000003800
0000003800
0000003800
0000003800
0000003800
0000003800
0000003000
ENDCHAR
STARTCHAR 246d
ENCODING 9325
SWIDTH 903 0
DWIDTH 40 0
BBX 40 40 0 -6
BITMAP
0000000000
0000000000
0000000000
0000000060
00000000f0
60303ffff8
7078000000
7ffc000000
703c000000
7038000000
7038000000
7038000000
7038000000
7038000000
703800000c
703800001e
7039ffffff
703800e000
703800e000
703801c000
703801c000
703801c000
7038038000
7038038000
7038070000
7038070000
7038060000
7ff80e0000
70380c00c0
70301c0060
7000180070
6000380038
00003003fc
000070ff1e
0000fff01e
0000ff000e
000078000e
0000380006
0000000000
0000000000
ENDCHAR
STARTCHAR 246e
ENCODING 9326
SWIDTH 903 0
DWIDTH 40 0
BBX 40 40 0 -6
BITMAP
0000006000
0000007c00
0000007800
0000007000
0000007000
6060007000
70f0007000
7ff8007000
7078007000
7070007018
707000703c
7073fffffe
7070007000
707000f000
707000f800
707000f800
707001fc00
707001f400
707003f600
7070037600
7070077300
7070077380
70700e7180
70700e71c0
70701c70e0
70701c70f0
7070387078
7ff070703c
707070703f
7060e0701f
7001c0700e
6003807006
0007007000
000c007000
0000007000
0000007000
0000007000
0000007000
0000007000
0000006000
ENDCHAR
STARTCHAR 246f
ENCODING 9327
SWIDTH 903 0
DWIDTH 40 0
BBX 40 40 0 -6
BITMAP
000000c000
000000f800
000000f000
000000e300
000000e1c0
606000e0f0
70f000e078
7ff800e038
707800e018
707000e000
707000e000
707000e00c
7073fffffe
707000e000
707000e000
707000e000
707000e000
707000e000
707001c000
707001f000
707001fe00
707001bc00
707003b800
707003b800
707003b800
7070073800
7070073800
7ff0073800
70700e3800
70600e3800
70001c3801
60001c3801
0000383803
0000383803
0000703806
0000e03c0e
0001c03fff
0003801fff
000e000ffe
0038000000
ENDCHAR
STARTCHAR 2470
ENCODING 9328
SWIDTH 903 0
DWIDTH 40 0
BBX 40 40 0 -6
BITMAP
0000000000
00000c0300
00000e0780
00000fffc0
00000e03c0
60600e0380
70f00e0380
7ff80e0380
70780e0380
70700e0380
70701c0380
70701c03c0
70703803fc
70703801fe
70707000fe
7070600000
7070c00000
7071800000
70730001c0
70703fffe0
70700801e0
70700801c0
70700c01c0
7070040380
7070060380
7070060700
7070030700
7ff0038e00
707001dc00
706000fc00
700000f800
6000007c00
000000fe00
000001cfc0
00000387f8
00000f03ff
00001c00ff
0000780078
0001e00018
000f000000
ENDCHAR
STARTCHAR 2471
ENCODING 9329
SWIDTH 903 0
DWIDTH 40 0
BBX 40 40 0 -6
BITMAP
0000003000
0000001800
0000001800
0000000c00
0000000c00
6060000600
70f00c0600
7ff80f8300
70780f0300
70700e0380
70701e0180
70701c01c0
70701c01c0
70703800e0
70703800e0
70703000f0
707070c070
707060f878
7070e0f03c
7070c0e03e
7070c1e01f
707181c01f
707181c00e
7073038006
7072038000
7070030000
7070070000
7ff0060000
70700e0300
70600c0180
70001c00c0
6000180060
0000380070
0000300038
0000703ff8
0000fff81c
0000ff001c
000078001c
000038000c
0000000000
ENDCHAR
STARTCHAR 2472
ENCODING 9330
SWIDTH 903 0
DWIDTH 40 0
BBX 40 40 0 -6
BITMAP
0001800000
0000e00000
0000700000
0000700000
0000380000
1800380060
1c003800f0
1ffffffff8
1c003c0078
1c007c0070
1c00760070
1c00f70070
1c00e38070
1c01c3c070
1c03c1e070
1c0780f870
1c0f007e70
1c1e003ff0
1c3c001ff0
1c70000e70
1ce0000670
1ddffff070
1f1c007070
1c1c007070
1c1c007070
1c1c007070
1c1c007070
1c1c007070
1c1c007070
1c1c007070
1c1c007070
1c1ffff070
1c1c007070
1c1c006070
1c18000070
1c000000f0
1c00003ff0
1c000007e0
1c000001c0
1800000180
ENDCHAR
STARTCHAR 2473
ENCODING 9331
SWIDTH 903 0
DWIDTH 40 0
BBX 40 40 0 -6
BITMAP
0000001800
0000003c00
3ffffffe00
001c003e00
001c003800
001c007000
0038007030
003800e078
003801fffc
007000c03c
0070000038
00e0000038
00e0000078
01c0000070
03803000f0
07003e3fe0
0e003c07c0
1c00380380
3800380300
7000380000
c000380000
00003800e0
1ffffffff0
0000380000
0000380000
0000380000
0000380000
0000380300
0300380780
03ffffffc0
03800003c0
0380000380
0380000380
0380000380
0380000380
0380000380
0380000380
03ffffff80
0380000380
0300000300
ENDCHAR
STARTCHAR 2474
ENCODING 9332
SWIDTH 903 0
DWIDTH 40 0
BBX 40 40 0 -6
BITMAP
0000000300
00000003e0
00000003c0
00000c0380
0000070380
6030038380
707801c380
7ffc01e380
703c00e380
703800e380
7038006380
7038000380
7038000380
7038000380
7038300380
70381c0380
70380e0380
7038070380
7038078380
7038038380
7038038380
7038018380
7038000384
703800038e
70380003ff
7039ffff80
7ff8000380
7038000380
7038000380
7030000380
6000000380
0000000380
0000000380
0000000380
0000000380
0000000380
0000000380
0000000380
0000000380
0000000300
ENDCHAR
STARTCHAR 2475
ENCODING 9333
SWIDTH 903 0
DWIDTH 40 0
BBX 40 40 0 -6
BITMAP
0000000000
0000000000
0000018000
000000c000
0000006000
6060007000
70f0003800
7ff8003c00
7078001c00
7070001e00
7070060e00
7070078e00
7070070e00
7070070600
7070070000
7070070000
7070070000
7070070000
7070470000
7070470000
7070470000
70704700c0
7070c70060
7070c70030
7070c70038
7071c7001c
7071c7001e
7ff1c7000e
7073c7000f
7063870007
7007870047
6007870047
00070700c3
00070700c0
0006078180
000007ffc0
000003ffc0
000000ff80
0000000000
0000000000
ENDCHAR
STARTCHAR 2476
ENCODING 9334
SWIDTH 903 0
DWIDTH 40 0
BBX 40 40 0 -6
BITMAP
0000000000
0000000180
00000003c0
0001ffffe0
00000381e0
00c00381c0
61e00381c0
7ff00381c0
70f00381c0
70e00381c0
70e00381c0
70e00381c4
70e00381ce
70efffffff
70e00381c0
70e00381c0
70e00381c0
70e00381c0
70e00381c0
70e00381c0
70e00381c0
70e00381c0
70e00381c0
70e3ffffc0
70e00701c0
70e0070180
7fe0070000
70e00e0000
70c00e0000
70000e0000
60001c0000
00001c0000
0000380000
0000380000
0000700000
0000e00000
0001c00000
0003800000
0007000000
001c000000
ENDCHAR
STARTCHAR 2477
ENCODING 9335
SWIDTH 903 0
DWIDTH 40 0
BBX 40 40 0 -6
BITMAP
0000000018
000000301f
000000781e
0000fffc1c
0000003c1c
606000381c
70f000381c
7ff800381c
707800381c
707000381c
707000381c
707000381c
7070c0381c
7070fff81c
7070e0381c
7070e0301c
7070e0001c
7070e0001c
7070e0001c
7071c0001c
7071c0301c
7071c0781c
7073fffc1c
7071803c1c
707000381c
707000381c
7ff000381c
707000381c
706000381c
700000381c
600000381c
000000381c
000000781c
000000701c
000000f01c
000001e01c
0000ffe01c
00000fc01c
000003801c
0000030018
ENDCHAR
STARTCHAR 2478
ENCODING 9336
SWIDTH 903 0
DWIDTH 40 0
BBX 40 40 0 -6
BITMAP
000000c000
000000f800
000000f000
000000e000
000000e000
606000e000
70f000e000
7ff800e000
707800e020
707000e070
7071fffff8
707000e000
707000e000
707000e000
707000e000
707000e000
707000e000
707000e000
707000e018
707000e03c
7077fffffe
707001d000
707001d000
7070039800
7070039800
7070038c00
7070070c00
7ff0070e00
70700e0600
70600e0700
70001c0300
6000380380
00003801c0
00007001e0
0000e000f8
0001c0007f
000380003f
000700001c
000e00000c
0038000000
ENDCHAR
STARTCHAR 2479
ENCODING 9337
SWIDTH 903 0
DWIDTH 40 0
BBX 40 40 0 -6
BITMAP
0000000c00
0000c00f80
0000f80f00
0000f00e00
0000e00e00
6060e00e00
70f0e00e00
7ff8e00e00
7078e00e00
7070e00e00
7070e00e00
7070e00e00
7070e00e00
7070e00e00
7070e10e08
7070e38e1c
7070ffcffe
7070e00e00
7070e00e00
7070e00e00
7070e00e00
7070e00e00
7070e00e00
7070e00e00
7070e00e00
7070e00e00
7070e00e00
7ff0e00e00
7070e00e00
7060e00e00
7000e00e01
6000e00e01
0000e0ce03
0000e38e03
0000ee0e06
0000fc0f0e
0000f80fff
0000f007ff
0000e003fe
0000600000
ENDCHAR
STARTCHAR 247a
ENCODING 9338
SWIDTH 903 0
DWIDTH 40 0
BBX 40 40 0 -6
BITMAP
0000000000
0000000018
000180001f
0001f0061e
0001e007dc
6061c0079c
70f1c0071c
7ff9cc071c
7079c6071c
7071c70e1c
7071c30e1c
7071c38e1c
7071c19c1c
7071c1dc1c
7071c1dc1c
7071c0f81c
7071c0f81c
7071c0701c
7071c0781c
7071c0781c
7071c0fc1c
7071c0fc1c
7071c0de1c
7071c1ce1c
7071c18f1c
7071c3871c
7ff1c3079c
7071c7039c
7071c6039c
7061cc019c
6001d8001c
0001d0001c
0001c0001c
0001c0001c
0001c0001c
0001c0001c
0003fffffc
000180001c
0000000018
0000000000
ENDCHAR
STARTCHAR 247b
ENCODING 9339
SWIDTH 903 0
DWIDTH 40 0
BBX 40 40 0 -6
BITMAP
0000000000
0000000300
0180000780
01ffffffc0
01c00003c0
01c0000380
01c0000380
01c0000380
01c0000380
01c0000380
01c0000380
01ffffff80
01c0000300
0180000000
0000000000
0000000060
00000000f0
1ffffffff8
0000380000
0000380000
0000380000
0000380000
0000380000
000038000c
000038001e
ffffffffff
0000740000
0000760000
0000e30000
0000e38000
0001c1c000
000380e000
0007007800
000e003c00
001c001f00
0038000fc0
00f00007ff
03c00001ff
1f000000f8
7800000038
ENDCHAR
STARTCHAR 247c
ENCODING 9340
SWIDTH 903 0
DWIDTH 40 0
BBX 40 40 0 -6
BITMAP
0000000000
0000000c00
0060001e00
007fffff00
0070000f00
0070000e00
0070000e00
0070000e00
0070000e00
0070000e00
0070000e00
007ffffe00
006c000c00
000f000000
000e000000
001c000000
001c000000
0038000000
0070000300
00e0000780
01ffffffc0
00c00003c0
0000000380
0000000700
0000000700
0000000e00
0000000c0c
000000181e
ffffffffff
0000000000
0018000000
001e003000
003c001c00
0078000f00
00f0000780
01e00003c0
03c00001e0
07000000f0
1c00000070
7000000030
ENDCHAR
STARTCHAR 247d
ENCODING 9341
SWIDTH 903 0
DWIDTH 40 0
BBX 40 40 0 -6
BITMAP
0000001800
0000001f00
0000001e00
0000001c00
0000001c00
6060001c00
70f0c01c0c
7ff8e01c1e
7078ffffff
7070e0380f
7070e0380e
7070e0380e
7070e0380e
7070e0380e
7070e07c0e
7070e07c0e
7070e0740e
7070e0e60e
7070e0e60e
7070e0c30e
7070e1c30e
7070e1c38e
7070e381ce
7070e301fe
7070e700fe
7070ee00ee
7070ec006e
7ff0f8000e
7070e0000e
7060e0000e
7000e0000e
6000e0000e
0000e0000e
0000e0000e
0000e0000e
0000e0001e
0000e007fe
0000e000fc
0000e00038
0000c00030
ENDCHAR
STARTCHAR 247e
ENCODING 9342
SWIDTH 903 0
DWIDTH 40 0
BBX 40 40 0 -6
BITMAP
0000000000
0000600000
0000380000
00601e0000
007c0f0000
0478078180
04700780e0
0c70038070
0c70018038
1c7000023c
1c7000021e
387000061e
387000060e
3870000c0e
7078001c06
703ffffe00
603ffffe00
000ffff800
0000000000
0000000000
0000000000
0000000000
00c0000600
00e0000f00
00ffffff80
00e0000780
00e0000700
00e0000700
00e0000700
00e0000700
00e0000700
00e0000700
00e0000700
00e0000700
00e0000700
00e0000700
00ffffff00
00e0000700
00e0000600
00c0000000
ENDCHAR
STARTCHAR 2521
ENCODING 9505
SWIDTH 903 0
DWIDTH 40 0
BBX 40 40 0 -6
BITMAP
0000300000
00003e0000
00003c0000
0180380000
01f0380000
01e0380000
01c0380000
0380380180
03803803c0
07ffffffe0
0700380000
0e00380000
1c00380000
1800380000
3000380000
6000380000
0000380018
000038003c
7ffffffffe
0000380000
0000380000
0000380000
0000380000
0000380000
0300380300
0380300780
03ffffffc0
03800003c0
0380000380
0380000380
0380000380
0380000380
0380000380
0380000380
0380000380
0380000380
0380000380
03ffffff80
0380000380
0300000300
ENDCHAR
STARTCHAR 2522
ENCODING 9506
SWIDTH 903 0
DWIDTH 40 0
BBX 40 40 0 -6
BITMAP
0000000000
0000007c00
000003ff00
00007fff80
000fff8000
01ffb80000
0000380000
0000380000
0000380000
0000700000
0000700000
000070000c
0000e0001e
ffffffffff
0001c60000
0003c30000
0003818000
000700e000
000e007000
001c003c00
0038001e00
0070000f80
00e00007f0
01c00001ff
03800000ff
0e60000e3c
387fffff1c
e070000f00
0070000e00
0070000e00
0070000e00
0070000e00
0070000e00
0070000e00
0070000e00
0070000e00
0070000e00
007ffffe00
0070000c00
0060000000
ENDCHAR
STARTCHAR 2523
ENCODING 9507
SWIDTH 903 0
DWIDTH 40 0
BBX 40 40 0 -6
BITMAP
0000180000
00001f0000
00001e0000
00001c0000
00001c0000
60601c0000
70f0380000
7ff8380000
7078380018
707030003c
70707ffffe
7070700380
7070780380
7070e80380
7070e80380
7071cc0380
70718c0700
70730c0700
7072060700
7070060700
7070060e00
7070030e00
7070030e00
7070019c00
7070019c00
707001f800
707000f800
7ff000f000
707000f800
706001f800
700001dc00
6000038e00
0000070f00
00000e07c0
00001c03f8
00003801ff
00007000ff
0001c00070
0007000030
001c000000
ENDCHAR
STARTCHAR 2524
ENCODING 9508
SWIDTH 903 0
DWIDTH 40 0
BBX 40 40 0 -6
BITMAP
0000000380
0000003fe0
00000ffff0
0601ff0000
07ffc00000
0700000000
0700000018
070000003c
07fffffffe
070000001e
070000001c
070000001c
070000001c
070000001c
070000001c
070000001c
07fffffffc
070000001c
0700000018
0700000000
0700000000
0700000000
070c0000c0
070e0001e0
070ffffff0
070e0000f0
070e0000e0
070e0000e0
0e0e0000e0
0e0e0000e0
0e0e0000e0
1c0e0000e0
1c0e0000e0
180e0000e0
380e0000e0
300e0000e0
700fffffe0
600e0000e0
c00e0000c0
000c000000
ENDCHAR
ENDFONT
